<svg width="5320" height="1585" xmlns="http://www.w3.org/2000/svg" xmlns:xlink="http://www.w3.org/1999/xlink" xml:space="preserve" overflow="hidden"><defs><clipPath id="clip0"><rect x="243" y="445" width="5320" height="1585"/></clipPath></defs><g clip-path="url(#clip0)" transform="translate(-243 -445)"><path d="M243 1257 1892 1257 1892 2030 243 2030Z" fill="#D73749" fill-rule="evenodd"/><path d="M1746.46 1501.67C1737.55 1507.12 1703.09 1507.44 1682.32 1507.44L1682.32 1428.96C1682.32 1414.94 1682.32 1400.11 1683.49 1385.43 1683.49 1378.01 1681.51 1374.22 1668.31 1374.22L1652.5 1374.22C1653.64 1393.18 1654.45 1411.35 1654.45 1429.45L1654.45 1470.01C1654.45 1484.37 1654.45 1498.7 1653.31 1513.38 1653.31 1519.15 1653.31 1524.6 1667.32 1524.6L1736.63 1524.6C1742.11 1523.76 1746.28 1519.23 1746.68 1513.7 1746.68 1513.7 1746.46 1509.92 1746.46 1501.67ZM1389.23 1450.55 1372.75 1450.55C1374.54 1461.44 1375.21 1472.49 1374.73 1483.52L1374.73 1505.63C1364.46 1509.25 1353.63 1510.98 1342.75 1510.73 1312.2 1512.3 1286.16 1488.82 1284.58 1458.27 1284.44 1455.7 1284.49 1453.11 1284.73 1450.55 1284.73 1416.11 1304.53 1389.05 1340.77 1389.05 1359.14 1390.3 1376.57 1397.67 1390.27 1409.99L1394.88 1396.8C1397.08 1391.75 1394.8 1385.87 1389.78 1383.63 1374.26 1376.54 1357.32 1373.1 1340.27 1373.55 1290.77 1373.55 1253.24 1397.14 1253.24 1450.55 1253.24 1503.95 1290.82 1527.3 1339.11 1527.3 1360.32 1526.4 1381.33 1522.77 1401.61 1516.5L1401.61 1461.61C1401.66 1455.52 1396.76 1450.53 1390.67 1450.47 1390.66 1450.47 1390.65 1450.47 1390.64 1450.47 1390.17 1450.47 1389.7 1450.5 1389.23 1450.55ZM1536.26 1634.4 1511.51 1634.4C1511.78 1638.62 1511.11 1642.84 1509.55 1646.78 1504.43 1657.15 1498.34 1668.04 1493.07 1678.42 1487.8 1688.79 1474.43 1710.08 1468.32 1719.81 1453.32 1695.4 1440.44 1670.3 1426.93 1645.12 1423.27 1637.98 1415.63 1633.81 1407.65 1634.57L1376.86 1634.57C1402.75 1671.71 1422.85 1705.3 1444.45 1742.07 1444.45 1763.34 1444.45 1791.58 1442.97 1813.3 1442.64 1818.84 1446.86 1823.6 1452.4 1823.94 1453.38 1824 1454.37 1823.91 1455.32 1823.67L1482.87 1823.67C1479.55 1796.81 1479.55 1765.64 1479.55 1739.77 1497.37 1707.58 1517.8 1677.87 1539.9 1645.44 1541.4 1643.59 1542.11 1641.22 1541.88 1638.85 1541.81 1635.96 1539.41 1633.66 1536.51 1633.73 1536.49 1633.73 1536.48 1633.73 1536.46 1633.73L1536.11 1633.73ZM1141.71 1408.85C1142.37 1396.4 1153.01 1386.85 1165.45 1387.51 1165.46 1387.51 1165.47 1387.51 1165.47 1387.51L1166.26 1387.51C1179.75 1387.62 1192.24 1394.65 1199.33 1406.13 1203.49 1400.66 1206.26 1394.27 1207.4 1387.49 1207.4 1374.81 1178.39 1371 1168.66 1371 1142.8 1371 1117.23 1385.36 1117.23 1413.56 1117.23 1463.07 1187.62 1449.83 1187.62 1482.88 1188.13 1496.53 1177.48 1508.01 1163.84 1508.53 1162.76 1508.59 1161.67 1508.59 1160.59 1508.53 1143.44 1508.74 1127.22 1500.73 1116.96 1486.99 1115.05 1492.9 1113.72 1498.97 1113 1505.14 1112.52 1510.9 1115.76 1516.34 1121.06 1518.65 1130.9 1523.54 1141.75 1526.02 1152.72 1525.91 1182.57 1525.91 1211.09 1509.42 1211.09 1476.39 1211.86 1429.28 1141.71 1443.64 1141.71 1408.85ZM1081.04 1373.72 1061.02 1373.72C1057.37 1386.01 1051.81 1397.64 1044.53 1408.19 1035.97 1421.7 1028.05 1435.22 1023.59 1441.16 1011.56 1421.88 1000.03 1402.07 988.491 1382.78 985.236 1376.87 978.702 1373.54 972.006 1374.39L947.254 1374.39C968.194 1403.06 987.476 1432.42 1006.11 1462.6L1006.11 1479.09C1006.11 1492.93 1004.95 1508.11 1004.95 1516.23 1005.23 1520.86 1009.21 1524.39 1013.84 1524.13 1014.23 1524.1 1014.62 1524.05 1015 1523.98L1035.45 1523.98C1033.52 1502.38 1032.75 1480.69 1033.14 1459.01 1044.04 1440.47 1055.92 1422.53 1068.74 1405.26 1073.86 1397.52 1079.63 1390.09 1085.22 1382.83 1086.29 1381.32 1086.97 1379.57 1087.2 1377.73 1086.99 1375.21 1084.78 1373.34 1082.26 1373.55 1082.26 1373.55 1082.26 1373.55 1082.25 1373.55 1081.88 1373.56 1081.5 1373.61 1081.14 1373.72ZM909.259 1374.54 824.136 1374.54C824.39 1382.43 825.051 1390.31 826.116 1398.13L826.116 1453.52C826.116 1479.41 824.953 1493.25 824.953 1513.38 824.328 1518.81 828.216 1523.72 833.641 1524.35 834.593 1524.49 835.56 1524.49 836.512 1524.35L855.126 1524.35C854.804 1507.02 853.146 1490.06 853.146 1472.58L853.146 1452.77C873.026 1452.32 892.907 1453.64 912.551 1456.74 912.551 1449.8 914.531 1436.61 903.987 1436.61 893.442 1436.61 873.492 1438.94 852.898 1438.94L852.898 1390.04C874.309 1388.95 895.768 1390.78 916.685 1395.49 918.17 1387.74 920.472 1374.71 909.259 1374.71ZM751.834 1441.81C751.834 1412.1 753.319 1405.04 753.319 1386.57 754.504 1380.79 750.775 1375.13 744.99 1373.95 744.986 1373.95 744.982 1373.95 744.978 1373.95 743.654 1373.69 742.292 1373.69 740.968 1373.95L723.146 1373.95C725.196 1397.08 725.973 1420.3 725.473 1443.52 725.473 1480.65 723.988 1488.87 723.988 1511.62 723.109 1517.58 727.22 1523.11 733.171 1523.99 733.196 1524 733.22 1524 733.245 1524 734.002 1524.08 734.765 1524.08 735.523 1524L754.136 1524C752.651 1507.02 751.834 1481.91 751.834 1442.05ZM869.532 1752.94C850.889 1759.77 830.97 1762.42 811.19 1760.69 805.423 1760.69 804.581 1757.25 804.26 1750.31L804.26 1696.22C823.397 1695.37 842.56 1697.2 861.19 1701.66L861.19 1689.63C861.19 1681.56 856.883 1678.42 845.695 1678.42 834.507 1678.42 818.987 1680.4 803.146 1680.4L803.146 1622.86C848.319 1622.86 859.705 1626.65 866.116 1629.45L866.116 1620.71C866.327 1613.05 860.69 1606.5 853.096 1605.55L767.601 1605.55C770.991 1613.51 772.458 1622.15 771.884 1630.78L771.884 1713.13C771.884 1729.42 771.496 1745.92 770.72 1762.64 770.72 1771.23 772.205 1776.16 781.116 1776.16L854.581 1776.16C861.136 1777.73 867.72 1773.68 869.288 1767.13 869.432 1766.52 869.53 1765.91 869.581 1765.29ZM611.81 1603.72C583.364 1589.77 552.108 1582.5 520.424 1582.46 416.737 1582.46 348 1666.06 348 1768.14 348 1867.17 423.321 1931.37 519.756 1931.37 555.512 1931.86 590.615 1921.77 620.647 1902.35L616.686 1869.37C595.6 1889.12 568.229 1900.8 539.385 1902.35 453.99 1902.35 397.109 1831.62 397.109 1749.17 397.109 1678.79 437.331 1609.19 514.657 1609.19 540.734 1608.7 566.122 1617.59 586.191 1634.25 597.3 1643.75 605.145 1656.49 608.617 1670.69 618.637 1657.61 625.422 1642.34 628.419 1626.13 627.417 1616.18 621.04 1607.57 611.81 1603.72ZM1527.65 1372.91C1478.14 1372.91 1445.22 1399.27 1445.22 1449.9 1445.22 1497.54 1482.35 1526.4 1527.65 1526.4 1572.94 1526.4 1611.38 1497.88 1611.38 1450.55 1611.38 1403.21 1573.96 1372.91 1527.47 1372.91ZM1527.65 1510.91C1492.87 1510.91 1475.39 1481.54 1475.39 1449.73 1475.39 1417.92 1492.87 1388.23 1527.65 1388.23 1562.42 1388.23 1580.07 1417.57 1580.07 1450.55 1580.07 1485.5 1567.37 1511.08 1527.47 1511.08ZM1676.01 1605.88 1592.2 1605.88C1595.87 1611.79 1597.96 1618.54 1598.29 1625.48 1600.27 1651.06 1601.43 1675.79 1601.43 1701.66L1520.99 1701.66C1524.58 1707.69 1526.72 1714.47 1527.25 1721.47 1529.55 1749.03 1530.39 1774.9 1530.39 1802.28 1530.39 1837.39 1530.39 1873.01 1528.07 1908.29 1528.24 1913.59 1532.67 1917.74 1537.97 1917.58L1538.69 1917.58 1601.31 1917.58C1668.91 1917.58 1719.18 1881.13 1722.6 1813.2 1767.31 1799.06 1796.67 1756.3 1793.81 1709.49 1794.3 1635.46 1746.33 1606.12 1677.47 1606.12ZM1722 1790.37C1716.56 1737.79 1683.76 1711.89 1636.11 1704.46 1636.11 1675.45 1637.27 1650.22 1638.41 1623.68 1645.93 1622.44 1653.54 1621.78 1661.16 1621.7 1716.88 1621.7 1755.47 1654.67 1755.47 1712.21 1758.12 1742.13 1745.85 1771.44 1722.67 1790.54ZM1675.19 1803.57 1648.86 1803.57C1643.8 1804.21 1639.18 1800.63 1638.54 1795.57L1638.54 1794.65C1637.08 1771.41 1635.74 1748.33 1635.74 1727.39 1665.91 1740.52 1685.37 1770.34 1685.24 1803.24ZM1604.58 1899.85 1578.46 1899.85C1573.36 1900.69 1568.55 1897.25 1567.7 1892.15 1567.7 1892.13 1567.7 1892.12 1567.7 1892.1 1567.7 1891.83 1567.7 1891.56 1567.7 1891.28 1566.21 1865.73 1565.39 1841.77 1565.39 1816.59 1565.39 1784.6 1565.39 1750.63 1568.02 1720.03 1575.55 1718.89 1583.15 1718.33 1590.76 1718.38 1594.5 1718.18 1598.24 1718.18 1601.98 1718.38 1601.98 1749.74 1601.21 1781.09 1599.68 1812.45 1599.91 1817.63 1604.3 1821.64 1609.48 1821.4 1609.51 1821.4 1609.54 1821.39 1609.58 1821.39L1684.8 1821.39C1681.19 1866.9 1656.46 1900.2 1605.34 1900.2ZM1232.3 1606.87 1130.59 1606.87C1136.36 1614.94 1138.66 1630.44 1140.32 1661.78 1141.46 1684.53 1142.3 1707.78 1142.3 1731.1 1142.3 1759.36 1141.91 1787.61 1141.14 1815.85 1141.14 1831.34 1139.16 1846.35 1139.16 1861.85 1139.31 1868.21 1144.58 1873.26 1150.94 1873.14L1152.01 1873.14 1229.33 1873.14C1315.22 1873.14 1379.33 1825.48 1379.33 1735.46 1379.33 1645.44 1318.51 1606.87 1232.3 1606.87ZM1232.3 1850.88 1199.33 1850.88C1193.16 1851.92 1187.31 1847.75 1186.28 1841.57 1186.27 1841.55 1186.27 1841.52 1186.26 1841.5 1186.26 1841.17 1186.26 1840.83 1186.26 1840.51 1185.1 1832.76 1184.6 1821.54 1184.28 1813.47 1184.28 1795.99 1183.14 1770.09 1183.14 1748.51 1183.14 1708.6 1185.1 1668.86 1186.58 1629.45 1196.28 1627.74 1206.1 1626.87 1215.94 1626.82 1284.85 1626.82 1332.28 1665.89 1332.28 1738.23 1332.92 1802.03 1301.93 1850.83 1233.51 1850.83ZM1024.58 1769.18C1065.26 1759.28 1094.13 1723.16 1094.83 1681.29 1094.83 1625.56 1045.32 1605.11 995.818 1605.11 964.482 1605.11 932.848 1605.11 901.017 1606.27 904.878 1616 906.763 1626.41 906.561 1636.87L906.561 1736.62C906.561 1810.5 903.096 1852.98 903.096 1867.05 903.096 1872.81 905.398 1873.63 910.348 1873.63L959.853 1873.63C956.907 1869.27 955.149 1864.22 954.754 1858.97 951.24 1832.18 949.528 1805.19 949.63 1778.17L982.551 1778.17C996.239 1799.78 1013.22 1825.01 1032.06 1850.56 1061.24 1888.81 1100.79 1933 1147.45 1933 1159.33 1932.19 1171.16 1930.76 1182.9 1928.72 1128.66 1909.93 1058.27 1818.07 1025.79 1769.28ZM976.288 1758.28 949.259 1758.28 949.259 1712.06C949.259 1684.18 949.259 1652.64 951.561 1625.41 959.655 1625.41 969.036 1623.78 977.947 1623.78 1017.33 1623.78 1048.99 1644.72 1048.99 1687.25 1050.1 1725.39 1020.1 1757.2 981.981 1758.33 980.422 1758.33 978.838 1758.33 977.278 1758.33ZM626.315 1460.13C647.495 1455.87 662.982 1437.63 663.74 1416.03 663.74 1383.85 635.548 1374.64 608.865 1374.64L554.781 1374.64C556.736 1377.66 557.926 1381.11 558.246 1384.69 559.41 1401.18 558.246 1426.78 558.246 1447.67L558.246 1513.8C557.772 1518.79 561.427 1523.22 566.414 1523.71 567.324 1523.78 568.241 1523.73 569.137 1523.56L588.939 1523.56C586.688 1504.18 585.745 1484.68 586.117 1465.18L602.602 1465.18C613.168 1483.67 624.839 1501.52 637.553 1518.61 647.047 1533.11 663.626 1541.36 680.919 1540.19L688.344 1540.19C664.877 1515.79 644.083 1488.95 626.315 1460.13ZM593.345 1452.03 584.954 1452.03 584.954 1387.66 598.147 1387.66C617.06 1385.56 634.093 1399.2 636.191 1418.11 636.191 1418.96 636.34 1419.8 636.389 1420.59 637.206 1445.17 614.632 1452.58 593.518 1452.08ZM461.489 1375.28 406.91 1375.28C409.604 1384.03 410.776 1393.17 410.376 1402.32L410.376 1512.14C409.373 1517.88 413.206 1523.34 418.94 1524.35 419.709 1524.47 420.488 1524.52 421.267 1524.5L439.881 1524.5C438.247 1506.35 437.901 1485.43 437.901 1466.12L451.762 1466.12C482.257 1466.12 515.548 1451.46 515.548 1416.6 514.732 1384.62 488.024 1375.7 461.316 1375.21ZM449.113 1453.76 437.083 1453.76 437.083 1388.8 452.083 1388.8C471.885 1388.8 486.861 1396.55 486.861 1418.51 487.456 1437.44 472.599 1453.27 453.674 1453.86 453.647 1453.86 453.62 1453.86 453.593 1453.86 452.04 1453.92 450.485 1453.86 448.94 1453.69ZM767.28 1829.79 686.835 1646.28C685.934 1639.68 680.306 1634.74 673.642 1634.72L668.691 1634.72 575.895 1832.58C574.318 1835.4 573.515 1838.59 573.568 1841.82 574.354 1845.14 577.657 1847.22 580.994 1846.5L581.216 1846.5 601.662 1846.5C601.439 1844.96 601.439 1843.4 601.662 1841.87 601.755 1837.92 602.533 1834.01 603.964 1830.33L623.766 1782.35 702.973 1782.35 724.557 1836.1C725.893 1842.18 731.351 1846.47 737.577 1846.32L776.983 1846.32C772.635 1841.54 769.331 1835.91 767.28 1829.79ZM631.612 1763.83 664.582 1685.67 696.166 1763.83Z" fill="#FFFFFF" fill-rule="evenodd"/><path d="M243 445 1892 445 1892 1218 243 1218Z" fill="#D73749" fill-rule="evenodd"/><path d="M1782.05 540.586 1622.74 540.586C1628.11 591.734 1629.98 643.189 1628.34 694.591 1628.34 747.527 1624.05 837.405 1624.05 853.226 1623.21 861.013 1628.84 868.006 1636.63 868.849 1637.94 868.994 1639.25 868.953 1640.54 868.726L1681.11 868.726C1678.5 861.523 1677.05 853.951 1676.83 846.294 1673.36 798.656 1672.22 750.325 1672.22 702.836L1696.61 701.35C1722.07 699.816 1747.6 702.834 1772 710.264 1774.52 705.093 1776.08 699.505 1776.6 693.774 1774.93 683.922 1765.61 677.277 1755.75 678.918L1754.51 679.165 1672.05 679.165C1672.05 640.417 1673.7 601.841 1675.19 563.761L1700.75 563.761C1723.68 563.761 1783.21 563.761 1801.34 574.952 1802.8 569.138 1803.3 563.125 1802.83 557.15 1802.02 547.172 1793.29 539.728 1783.31 540.511ZM1578.98 557.571 1440.5 557.571C1448.25 571.09 1447.75 667.058 1447.75 686.841 1447.75 728.239 1443.96 787.44 1443.96 811.011 1442.77 818.104 1447.56 824.821 1454.65 826.013 1454.65 826.014 1454.66 826.015 1454.66 826.015 1455.21 826.111 1455.76 826.169 1456.32 826.189L1497.38 826.189C1492.74 808.765 1490.53 790.785 1490.79 772.757L1490.79 694.269C1496.56 694.269 1507.29 693.105 1514.86 693.105 1536.25 691.76 1557.69 694.794 1577.87 702.019 1577.87 696.25 1579.35 690.481 1579.35 684.538 1578.96 676.992 1572.54 671.186 1564.99 671.565 1564.27 671.607 1563.56 671.698 1562.86 671.837L1490.3 671.837C1490.3 641.333 1491.78 611.176 1492.95 580.498L1519.64 580.498C1547.98 578.905 1576.36 582.711 1603.27 591.715L1603.27 590.229C1603.27 572.749 1598.32 557.571 1578.86 557.571ZM1384.88 696.077C1384.88 673.991 1384.88 651.88 1386.02 630.117 1386.02 618.579 1387.5 606.545 1387.5 594.834 1386.98 589.404 1382.16 585.419 1376.73 585.921L1338.74 585.921C1343.17 619.915 1344.88 654.209 1343.84 688.475 1343.84 709.744 1343.84 731.334 1342.68 753.123L1342.68 782.958C1342.24 789.495 1347.16 795.16 1353.7 795.635L1390.35 795.635C1385.66 762.647 1383.57 729.342 1384.08 696.027ZM1751.09 950.68 1731.28 950.68C1727.5 962.912 1721.94 974.524 1714.79 985.145 1706.72 998.664 1698.3 1012.18 1694.33 1017.33 1681.95 998.367 1670.76 978.559 1658.72 959.272 1655.51 953.296 1648.97 949.897 1642.23 950.705L1617.37 950.705C1638.64 979.228 1657.93 1008.74 1676.58 1038.92L1676.58 1055.41C1676.58 1069.75 1674.92 1084.11 1674.92 1092.18 1675.36 1096.98 1679.6 1100.52 1684.4 1100.1L1685.47 1099.93 1705.6 1099.93C1703.62 1078.66 1703.27 1057.39 1703.27 1035.78 1714.17 1017.16 1726.53 999.358 1738.91 982.026 1744.36 974.276 1749.78 966.873 1755.4 959.618 1756.09 958.35 1756.43 956.924 1756.39 955.483 1756.57 952.933 1754.65 950.718 1752.1 950.537 1752.07 950.535 1752.04 950.533 1752.01 950.531 1751.7 950.544 1751.39 950.594 1751.09 950.68ZM1604.98 950.68 1495.4 950.68C1487.37 949.659 1480.03 955.341 1479.01 963.372 1479.01 963.375 1479.01 963.378 1479.01 963.382 1479.01 963.654 1479.01 963.926 1479.01 964.199L1479.01 971.949C1495.43 969.835 1511.98 968.958 1528.53 969.324 1529.53 988.438 1529.53 1004.93 1529.53 1023.08 1529.53 1053.58 1528.04 1067.92 1528.04 1090.35 1527.7 1095.71 1531.78 1100.33 1537.14 1100.67 1538.14 1100.73 1539.13 1100.64 1540.1 1100.4L1558.72 1100.4C1556.57 1075.07 1555.8 1049.63 1556.42 1024.22L1556.42 970.141C1571.11 970.141 1585.44 972.122 1595.84 972.122 1601.96 971.17 1606.15 965.44 1605.21 959.321 1605.22 959.082 1605.22 958.842 1605.21 958.603L1605.21 951.002 1605.21 951.002ZM1454.39 1017.95C1454.39 988.117 1455.88 981.184 1455.88 962.713 1457.06 956.912 1453.32 951.248 1447.52 950.063 1447.51 950.062 1447.51 950.062 1447.51 950.061 1446.19 949.826 1444.84 949.826 1443.52 950.061L1425.86 950.061C1427.88 973.203 1428.65 996.436 1428.16 1019.66 1428.16 1056.8 1426.68 1065.34 1426.68 1087.75 1425.81 1093.72 1429.95 1099.26 1435.92 1100.12 1435.93 1100.13 1435.95 1100.13 1435.96 1100.13 1436.72 1100.2 1437.49 1100.2 1438.24 1100.13L1456.87 1100.13C1455.21 1083.29 1454.39 1058.24 1454.39 1018.42ZM1318.46 984.972C1319.12 972.708 1329.59 963.294 1341.86 963.926L1343.17 963.926C1356.56 963.899 1369.02 970.755 1376.16 982.075 1380.32 976.603 1383.1 970.207 1384.26 963.431 1384.26 950.755 1355.23 947.932 1346 947.932 1319.77 947.932 1294.21 961.97 1294.21 990.147 1294.21 1039.67 1364.62 1026.59 1364.62 1059.47 1365.12 1073.31 1354.31 1084.94 1340.47 1085.45 1339.51 1085.5 1338.54 1085.5 1337.58 1085.45 1320.56 1085.11 1304.69 1076.8 1294.71 1063.01 1292.86 1068.93 1291.58 1075.01 1290.89 1081.16 1290.42 1086.94 1293.67 1092.38 1298.99 1094.68 1308.83 1099.76 1319.74 1102.41 1330.81 1102.43 1360.66 1102.43 1389.21 1085.94 1389.21 1052.91 1388.37 1004.93 1318.46 1019.93 1318.46 985.145ZM1102.73 1077.97C1088.22 1082.97 1072.87 1085.1 1057.54 1084.23L1046.99 1084.23C1041.19 1084.23 1041.19 1081.11 1041.19 1076.16L1041.19 1029.49C1059.51 1028.86 1077.85 1030.42 1095.8 1034.12L1095.8 1022.09C1095.85 1017.08 1091.84 1012.98 1086.84 1012.93 1086.83 1012.93 1086.82 1012.93 1086.81 1012.93 1086.06 1012.91 1085.31 1012.99 1084.58 1013.17 1070.24 1013.17 1054.74 1014.66 1040.38 1014.66L1040.38 988.438C1040.19 980.835 1040.58 973.229 1041.54 965.684 1061.51 964.754 1081.51 966.587 1100.98 971.132 1100.98 962.218 1100.98 950.68 1088.1 950.68L1009.87 950.68C1011.5 953.286 1012.57 956.204 1013.01 959.247 1014.15 977.396 1014.15 995.693 1014.15 1013.84 1014.15 1039.07 1013.01 1063.36 1013.01 1089.36 1011.97 1093.78 1014.7 1098.21 1019.12 1099.25 1019.14 1099.25 1019.16 1099.26 1019.18 1099.26 1020.07 1099.48 1020.99 1099.54 1021.9 1099.44L1091.24 1099.44C1096.84 1100.17 1101.98 1096.22 1102.71 1090.62 1102.75 1090.1 1102.75 1089.58 1102.71 1089.06L1102.71 1077.99ZM979.183 950.358 958.257 950.358C958.683 958.635 956.915 966.878 953.131 974.251 941.417 1002.95 925.89 1038.63 914.052 1062.97 906.301 1046.48 894.414 1017.63 884.682 994.529 879.58 982.843 875.791 972.766 870.838 961.574 867.797 953.992 859.951 949.486 851.868 950.68L832.577 950.68C855.831 1000.2 878.911 1049.72 899.441 1101.22L919.055 1101.22C938.866 1053.23 961.278 1006.91 983.22 959.594 983.417 958.721 983.417 957.816 983.22 956.944 984.076 954.163 982.528 951.211 979.753 950.333L979.084 950.185ZM612.396 555.268C584.132 541.304 553.035 534.027 521.51 534 417.796 534 349 617.588 349 719.697 349 818.736 424.383 882.938 520.866 882.938 556.839 883.537 592.179 873.437 622.4 853.919L618.438 820.94C597.288 840.924 569.651 852.63 540.578 853.919 455.487 853.919 398.578 783.181 398.578 700.731 398.578 630.315 438.821 561.062 516.185 561.062 542.249 560.594 567.613 569.503 587.656 586.168 598.792 595.647 606.645 608.404 610.092 622.615 620.049 609.385 626.827 594.043 629.904 577.775 628.82 567.556 622.035 558.834 612.396 555.268ZM800.903 1018.27C800.903 988.562 802.389 981.506 802.389 963.035 803.648 957.347 800.057 951.716 794.368 950.458 794.367 950.458 794.366 950.457 794.365 950.457 793.041 950.197 791.678 950.197 790.354 950.457L772.201 950.457C774.252 973.588 775.029 996.815 774.529 1020.03 774.529 1057.17 772.87 1065.71 772.87 1088.15 771.987 1094.1 776.096 1099.64 782.049 1100.52 782.06 1100.52 782.071 1100.52 782.082 1100.53 783.019 1100.65 783.968 1100.65 784.905 1100.53L803.701 1100.53C801.72 1083.24 800.903 1058.19 800.903 1018.27ZM719.601 951.002 704.743 951.002C705.882 976.083 706.204 1000.52 706.204 1026.37L706.204 1052.24C669.923 1019.26 636.12 984.155 600.657 949.368L589.29 949.368 589.29 970.958C589.29 999.977 589.29 1039.39 588.126 1058.01 586.962 1076.63 585.476 1082.77 585.476 1093.64 585.07 1096.98 587.448 1100.02 590.787 1100.42 590.792 1100.43 590.797 1100.43 590.801 1100.43 591.631 1100.54 592.476 1100.47 593.277 1100.23L609.77 1100.23C607.732 1084.32 606.855 1068.28 607.146 1052.24L607.146 997.773C643.104 1032.91 678.715 1065.89 712.865 1102.98L724.579 1102.98C724.579 1077.75 723.415 1053.46 723.415 1027.95 723.415 1013.94 724.579 1001.24 724.901 988.538 725.223 975.836 726.882 965.784 726.882 959.197 727.627 955.54 725.266 951.97 721.607 951.225 720.954 951.049 720.277 950.974 719.601 951.002ZM534.387 951.002 520.296 951.002C522.4 964.591 523.394 978.328 523.268 992.078L523.268 1029.99C523.268 1060.49 514.031 1084.58 478.394 1084.58 437.335 1084.58 433.224 1059.82 433.224 1025.16 433.224 1002.72 435.527 975.638 435.527 957.538 435.681 953.809 432.793 950.656 429.064 950.482 428.521 950.421 427.972 950.421 427.429 950.482L405.017 950.482C406.157 966.972 406.503 978.04 406.503 1003.91L406.503 1040.68C406.503 1085.25 431.565 1103.03 474.11 1103.03 516.656 1103.03 540.108 1081.36 541.965 1040.06 543.823 998.763 545.432 971.949 545.432 958.752 545.903 954.236 542.622 950.195 538.106 949.724 538.072 949.721 538.037 949.718 538.003 949.714 536.753 949.595 535.493 949.756 534.313 950.185ZM1154.27 558.735 1052.51 559.725C1057.96 568.292 1060.26 583.791 1061.75 614.964 1063.23 637.867 1063.73 660.967 1063.73 684.291 1063.73 712.492 1063.73 740.347 1062.59 768.474 1062.59 783.973 1060.93 799.473 1060.93 814.799 1061.28 821.306 1066.8 826.321 1073.31 826.04L1150.08 826.04C1236.34 826.04 1300.65 778.402 1300.65 688.352 1300.65 598.301 1240.1 558.735 1154.27 558.735ZM1154.27 802.766 1121.18 802.766C1115.22 803.952 1109.42 800.102 1108.21 794.15 1108.07 793.432 1108 792.702 1108.01 791.971 1106.74 783.121 1106.08 774.195 1106.03 765.255 1106.03 747.775 1104.86 721.876 1104.86 700.286 1104.86 660.373 1106.35 620.634 1108.01 580.721 1117.58 579.3 1127.25 578.638 1136.93 578.74 1205.88 578.74 1252.39 617.811 1252.39 690.159 1253.87 753.791 1223.34 802.939 1154.74 802.939ZM1213.7 1036.1C1234.97 1032.21 1250.63 1014 1251.3 992.4 1251.3 960.213 1223.41 951.002 1196.37 951.002L1142.31 951.002C1144.43 953.946 1145.64 957.452 1145.77 961.079 1146.91 977.569 1145.77 1002.77 1145.77 1023.72L1145.77 1089.85C1145.19 1094.73 1148.67 1099.16 1153.55 1099.76 1154.58 1099.87 1155.63 1099.82 1156.65 1099.58L1176.46 1099.58C1174.28 1080.2 1173.41 1060.7 1173.83 1041.2L1190.33 1041.2C1201.87 1059.85 1213.08 1077.15 1226.61 1095.3 1236.11 1109.8 1252.69 1118.05 1269.99 1116.89L1278.09 1116.89C1254.27 1092.16 1233 1065.09 1214.59 1036.1ZM1180.72 1028.35 1173.11 1028.35 1173.11 1013.35C1173.11 1002.13 1173.11 975.093 1174.28 963.828L1187.13 963.828C1206.05 961.714 1223.1 975.335 1225.22 994.252 1225.22 994.254 1225.22 994.255 1225.22 994.257 1225.22 995.099 1225.37 995.941 1225.39 996.733 1225.24 1021.29 1202.81 1028.23 1181.53 1028.23ZM782.255 781.002 702.588 597.484C701.626 590.915 696.028 586.022 689.388 585.946L684.287 585.946 591.618 783.156C590.007 786.14 589.213 789.497 589.315 792.887 589.315 796.328 593.599 797.17 597.066 797.17L617.497 797.17C617.299 795.633 617.299 794.077 617.497 792.54 617.601 788.589 618.388 784.685 619.825 781.002L638.794 732.845 718.041 732.845 740.131 786.944C741.585 793.102 747.35 797.251 753.652 796.675L793.078 796.675C788.75 792.401 785.331 787.297 783.023 781.671ZM646.051 715.042 680.176 636.876 711.181 715.042 646.051 715.042ZM938.817 720.985C979.22 710.633 1007.65 674.463 1008.16 632.766 1008.16 577.032 958.629 556.581 909.099 556.581 877.772 556.581 846.098 556.581 814.276 557.744 818.061 567.46 819.903 577.823 819.699 588.248L819.699 688.005C819.699 761.888 816.257 804.375 816.257 818.439 816.257 824.208 818.56 825.025 823.687 825.025L873.216 825.025C870.912 820.599 869.722 815.678 869.749 810.689 866.213 783.905 864.468 756.915 864.523 729.898L897.51 729.898C911.204 751.489 928.168 776.719 947.039 802.271 976.211 840.524 1015.81 884.72 1062.49 884.72 1073.96 884.535 1085.4 883.767 1096.79 882.418 1042.53 862.461 972.1 770.455 939.609 721.802ZM890.477 710.091 863.409 710.091 863.409 664.434C863.409 636.554 863.409 604.887 865.712 577.775 874.627 576.958 883.864 576.141 892.78 576.141 932.18 576.141 964.027 597.063 964.027 639.624 965.264 677.756 935.348 709.67 897.209 710.906 897.194 710.906 897.178 710.907 897.163 710.908 895.207 710.908 893.225 710.908 891.269 710.908Z" fill="#FFFFFF" fill-rule="evenodd"/><path d="M243 1218 1892 1218 1892 1257 243 1257Z" fill="#FFFFFF" fill-rule="evenodd"/><path d="M3971.67 876.772C3967.55 876.3 3963.43 877.587 3960.3 880.318 3957.85 883.943 3956.75 888.319 3957.18 892.679L3957.18 977.312C3956.75 981.694 3957.85 986.089 3960.3 989.742 3962.35 992.152 3966.16 993.323 3971.67 993.323L3977.53 993.323C3996.47 993.323 4010.73 988.663 4020.31 979.344 4029.89 970.024 4034.69 954.645 4034.7 933.205 4034.7 918.847 4032.51 907.519 4028.09 899.29 4024 891.343 4017.21 885.145 4008.94 881.833 3998.8 878.161 3988.06 876.443 3977.29 876.772ZM3947.49 843.063 3986.57 843.063C4003.28 842.617 4019.92 845.495 4035.52 851.533 4048.89 857.09 4059.96 867.093 4066.86 879.87 4074.3 893.127 4078.01 910.733 4078 932.689 4078 965.33 4069.97 989.203 4053.92 1004.31 4037.86 1019.41 4015.41 1026.95 3986.57 1026.93L3947.49 1026.93C3940.72 1027.3 3933.96 1026.16 3927.69 1023.59 3923.34 1021.49 3920.02 1017.7 3918.51 1013.09 3916.62 1006.42 3915.79 999.494 3916.04 992.566L3916.04 877.426C3915.79 870.42 3916.61 863.417 3918.47 856.663 3919.91 852.067 3923.2 848.291 3927.55 846.265 3933.9 843.795 3940.69 842.703 3947.49 843.063Z" fill="#FFFFFF" fill-rule="evenodd"/><path d="M4282.64 853.996C4283.78 854.044 4284.87 854.496 4285.71 855.269 4291.61 859.648 4296.92 864.761 4301.52 870.484 4302.01 871.067 4302.38 871.748 4302.59 872.481 4302.76 873.388 4302.83 874.312 4302.79 875.234L4302.79 895.819 4325.53 895.819C4327.44 895.599 4329.36 896.171 4330.83 897.402 4331.98 898.972 4332.5 900.908 4332.31 902.841L4332.31 918.572C4332.51 920.505 4331.98 922.441 4330.83 924.011 4329.36 925.242 4327.44 925.814 4325.53 925.594L4302.79 925.594 4302.79 978.57C4302.42 983.934 4303.77 989.276 4306.65 993.819 4309.22 997.296 4313.36 999.25 4317.68 999.017 4320.27 999.04 4322.84 998.561 4325.25 997.605 4326.28 997.169 4327.35 996.869 4328.46 996.71 4329.02 996.688 4329.56 996.962 4329.87 997.433 4330.34 998.134 4330.73 998.884 4331.04 999.671L4338.48 1019.46C4338.74 1020.13 4338.91 1020.82 4339 1021.53 4338.93 1022.73 4338.1 1023.76 4336.93 1024.08 4333.06 1025.79 4329.05 1027.17 4324.94 1028.17 4318.47 1029.55 4311.86 1030.15 4305.24 1029.96 4276.65 1029.96 4262.36 1015.17 4262.36 985.592L4262.36 925.594 4247.85 925.594C4245.93 925.82 4244 925.247 4242.52 924.01 4241.37 922.441 4240.84 920.505 4241.03 918.572L4241.03 902.841C4240.84 900.908 4241.37 898.972 4242.52 897.402 4244 896.166 4245.93 895.594 4247.85 895.819L4262.36 895.819 4262.36 875.234C4262.33 874.29 4262.39 873.346 4262.53 872.412 4262.78 871.71 4263.15 871.058 4263.63 870.484 4268.26 864.795 4273.55 859.687 4279.41 855.269 4280.33 854.519 4281.46 854.074 4282.64 853.996Z" fill="#FFFFFF" fill-rule="evenodd"/><path d="M4179.38 967.415C4170.67 967.137 4161.97 968.019 4153.5 970.04 4148.79 971.008 4144.48 973.406 4141.17 976.911 4139.02 979.807 4137.89 983.345 4137.97 986.958 4137.97 995.763 4143.3 1000.17 4153.95 1000.18 4160.11 1000.5 4166.18 998.566 4171.03 994.727 4175.05 991.322 4177.96 986.773 4179.38 981.676ZM4161.61 892.005C4180.89 892.005 4195.26 896.677 4204.73 906.023 4214.25 915.346 4219 929.388 4218.99 948.148L4218.99 1020.87C4219.06 1022.42 4218.56 1023.94 4217.58 1025.15 4216.4 1026.32 4214.77 1026.91 4213.11 1026.77L4193.94 1026.77C4192.65 1026.81 4191.35 1026.61 4190.13 1026.18 4189 1025.71 4188.02 1024.94 4187.31 1023.94L4179.38 1013.65 4178.48 1013.65C4170.99 1024.53 4158.13 1029.97 4139.9 1029.98 4132.38 1030.17 4124.94 1028.54 4118.18 1025.22 4112.17 1022.19 4107.22 1017.4 4103.99 1011.47 4100.53 1004.92 4098.81 997.585 4099.01 990.17 4098.77 981.633 4101.19 973.233 4105.92 966.138 4110.52 959.439 4118.75 954.041 4130.59 949.944 4142.43 945.846 4158.78 943.487 4179.65 942.865 4179.65 935.269 4177.73 929.675 4173.88 926.188 4168.91 922.288 4162.67 920.403 4156.39 920.905 4151.13 920.762 4145.9 921.727 4141.03 923.737 4137.48 925.239 4134.1 927.139 4130.96 929.399 4130.39 929.925 4129.71 930.314 4128.97 930.539 4128.19 930.713 4127.38 930.713 4126.6 930.539 4124.45 930.259 4122.33 929.762 4120.28 929.054 4118.12 928.329 4114.99 927.258 4110.9 925.808 4109.46 925.187 4108.67 924.324 4108.6 923.219 4108.68 921.483 4108.93 919.759 4109.35 918.074 4109.76 915.85 4110.27 913.649 4110.9 911.479 4111.39 909.564 4112.03 907.694 4112.82 905.885 4113.19 905.1 4113.68 904.378 4114.27 903.745 4115.02 903.04 4115.81 902.383 4116.64 901.776 4119.01 900.138 4121.59 898.815 4124.3 897.84 4129.22 896.035 4134.29 894.683 4139.45 893.8 4146.77 892.517 4154.19 891.916 4161.61 892.005Z" fill="#FFFFFF" fill-rule="evenodd"/><path d="M4431.37 967.415C4422.68 967.136 4413.99 968.018 4405.52 970.04 4400.81 971.01 4396.49 973.407 4393.16 976.911 4391.02 979.808 4389.9 983.345 4389.98 986.959 4389.98 995.764 4395.31 1000.17 4405.97 1000.18 4412.12 1000.51 4418.18 998.572 4423.02 994.728 4427.06 991.335 4429.97 986.782 4431.37 981.676ZM4413.6 892.005C4432.88 892.005 4447.26 896.678 4456.75 906.024 4466.23 915.369 4470.98 929.411 4470.99 948.149L4470.99 1020.87C4471.06 1022.42 4470.56 1023.94 4469.59 1025.15 4468.4 1026.33 4466.76 1026.92 4465.1 1026.77L4445.96 1026.77C4444.66 1026.8 4443.36 1026.6 4442.13 1026.18 4440.99 1025.73 4440.02 1024.95 4439.32 1023.94L4431.37 1013.65 4430.48 1013.65C4422.99 1024.53 4410.12 1029.97 4391.9 1029.98 4384.39 1030.17 4376.94 1028.54 4370.19 1025.22 4364.19 1022.19 4359.24 1017.4 4356.01 1011.47 4352.55 1004.93 4350.83 997.588 4351.01 990.17 4350.77 981.627 4353.19 973.222 4357.93 966.138 4362.52 959.44 4370.74 954.042 4382.58 949.944 4394.43 945.847 4410.78 943.487 4431.65 942.866 4431.65 935.269 4429.73 929.676 4425.9 926.188 4420.91 922.289 4414.66 920.406 4408.37 920.906 4403.12 920.763 4397.91 921.727 4393.06 923.737 4389.49 925.225 4386.1 927.125 4382.96 929.399 4382.39 929.925 4381.71 930.314 4380.97 930.539 4380.2 930.713 4379.39 930.713 4378.61 930.539 4376.46 930.26 4374.33 929.762 4372.28 929.054 4370.12 928.329 4366.97 927.259 4362.89 925.808 4361.46 925.187 4360.67 924.324 4360.6 923.219 4360.68 921.483 4360.93 919.759 4361.35 918.074 4361.75 915.85 4362.27 913.649 4362.89 911.479 4363.4 909.569 4364.04 907.7 4364.81 905.885 4365.19 905.099 4365.69 904.376 4366.28 903.745 4367.02 903.031 4367.81 902.374 4368.65 901.776 4371.02 900.132 4373.6 898.809 4376.32 897.84 4381.23 896.037 4386.3 894.684 4391.45 893.8 4398.76 892.516 4406.18 891.914 4413.6 892.005Z" fill="#FFFFFF" fill-rule="evenodd"/><path d="M4259.27 1239.38C4253.72 1239.08 4248.21 1240.48 4243.49 1243.4 4239.51 1246.27 4236.41 1250.18 4234.53 1254.7L4234.53 1307.45C4240.89 1311.52 4248.38 1313.49 4255.93 1313.08 4264.64 1313.6 4273.08 1309.94 4278.63 1303.22 4283.84 1296.7 4286.46 1287.22 4286.46 1274.89 4286.46 1262.7 4284.16 1253.74 4279.56 1248 4274.58 1242.05 4267.03 1238.84 4259.27 1239.38ZM4214.27 1140C4215.45 1140.02 4216.59 1140.47 4217.47 1141.27 4223.37 1145.63 4228.66 1150.74 4233.22 1156.48 4233.72 1157.05 4234.1 1157.71 4234.32 1158.44 4234.49 1159.34 4234.56 1160.26 4234.53 1161.18L4234.53 1223.14 4235.04 1223.14C4239.1 1218.01 4244.32 1213.93 4250.28 1211.22 4257.97 1207.99 4266.29 1206.47 4274.64 1206.79 4285.15 1206.42 4295.53 1209.3 4304.34 1215.03 4312.44 1220.68 4318.64 1228.63 4322.15 1237.84 4326.24 1248.65 4328.22 1260.14 4327.98 1271.7 4327.98 1319.88 4303.41 1343.97 4254.27 1343.99 4245.31 1344.09 4236.35 1343.35 4227.53 1341.75 4221.09 1340.6 4214.8 1338.76 4208.75 1336.26 4203.65 1334.01 4198.72 1331.38 4194.01 1328.39L4194.01 1161.18C4193.97 1160.25 4194.04 1159.32 4194.21 1158.4 4194.43 1157.69 4194.79 1157.04 4195.28 1156.48 4199.9 1150.78 4205.2 1145.67 4211.06 1141.27 4211.97 1140.52 4213.09 1140.08 4214.27 1140Z" fill="#FFFFFF" fill-rule="evenodd"/><path d="M4483.07 1144.11C4487.75 1143.7 4492.47 1144.41 4496.83 1146.17 4501.87 1149.43 4506.49 1153.29 4510.59 1157.66 4511.43 1158.47 4511.93 1159.56 4512 1160.72 4511.79 1162.23 4511.02 1163.6 4509.84 1164.56 4506.02 1168.71 4501.69 1172.37 4496.97 1175.44 4496 1176.02 4494.95 1176.44 4493.85 1176.71 4492.43 1176.91 4491 1176.99 4489.57 1176.95 4481.25 1176.95 4477.08 1183.35 4477.07 1196.14L4477.07 1210.07 4500.15 1210.07C4502.05 1209.85 4503.96 1210.42 4505.42 1211.65 4506.56 1213.23 4507.08 1215.17 4506.9 1217.1L4506.9 1232.82C4507.08 1234.75 4506.56 1236.68 4505.42 1238.24 4503.96 1239.48 4502.05 1240.07 4500.15 1239.86L4477.07 1239.86 4477.07 1334.2C4477.29 1336.1 4476.72 1338.01 4475.5 1339.48 4473.94 1340.62 4472.01 1341.15 4470.09 1340.96L4443.83 1340.96C4441.91 1341.15 4439.98 1340.62 4438.42 1339.48 4437.18 1338.02 4436.6 1336.11 4436.81 1334.2L4436.81 1239.86 4421.78 1239.86C4419.88 1240.07 4417.97 1239.48 4416.51 1238.24 4415.37 1236.68 4414.85 1234.75 4415.03 1232.82L4415.03 1217.1C4414.85 1215.17 4415.37 1213.23 4416.51 1211.65 4417.97 1210.42 4419.88 1209.85 4421.78 1210.07L4436.81 1210.07 4436.81 1193.84C4436.6 1184.68 4438.71 1175.63 4442.94 1167.51 4446.75 1160.28 4452.51 1154.27 4459.58 1150.18 4466.73 1146.09 4474.84 1144 4483.07 1144.11Z" fill="#FFFFFF" fill-rule="evenodd"/><path d="M3936.67 1153C3937.89 1153.09 3939.03 1153.64 3939.86 1154.54 3945.9 1159.78 3951.29 1165.75 3955.9 1172.3 3956.42 1172.99 3956.78 1173.79 3956.96 1174.63 3957.13 1175.72 3957.2 1176.83 3957.17 1177.93L3957.17 1291.4C3956.74 1295.79 3957.84 1300.18 3960.28 1303.84 3963.41 1306.58 3967.54 1307.88 3971.67 1307.41L4010.74 1307.27C4011.66 1307.26 4012.57 1307.3 4013.48 1307.41 4014.15 1307.59 4014.77 1307.89 4015.33 1308.3 4020.63 1312.12 4025.46 1316.54 4029.73 1321.49 4030.42 1322.23 4030.86 1323.17 4031 1324.17 4030.9 1325.15 4030.45 1326.07 4029.73 1326.75 4025.45 1331.67 4020.62 1336.09 4015.33 1339.9 4014.75 1340.27 4014.11 1340.55 4013.45 1340.72 4012.56 1340.89 4011.65 1340.96 4010.74 1340.93L3947.49 1340.93C3940.72 1341.29 3933.96 1340.16 3927.68 1337.6 3923.33 1335.51 3920.03 1331.72 3918.54 1327.12 3916.62 1320.48 3915.78 1313.57 3916.04 1306.65L3916.04 1177.93C3916.01 1176.83 3916.08 1175.72 3916.25 1174.63 3916.46 1173.8 3916.82 1173.01 3917.31 1172.3 3921.95 1165.77 3927.34 1159.82 3933.36 1154.54 3933.87 1154.06 3934.45 1153.65 3935.07 1153.31 3935.57 1153.09 3936.12 1152.99 3936.67 1153Z" fill="#FFFFFF" fill-rule="evenodd"/><path d="M4709.01 1206C4710.31 1206.02 4711.58 1206.47 4712.61 1207.27 4718.2 1211.32 4723.23 1216.09 4727.55 1221.46 4728.32 1222.49 4728.72 1223.75 4728.69 1225.03L4728.69 1234.46 4729.21 1234.46C4735.65 1216.76 4747.23 1207.92 4763.95 1207.92 4766.68 1207.79 4769.41 1208.09 4772.04 1208.81 4772.62 1208.99 4773.13 1209.32 4773.53 1209.77 4773.89 1210.37 4774.05 1211.06 4773.98 1211.76L4773.98 1242.51C4773.98 1244.3 4773.22 1245.19 4771.66 1245.19 4770.86 1245.18 4770.07 1245.01 4769.34 1244.67 4765.33 1243.28 4761.1 1242.59 4756.85 1242.65 4748.8 1242.32 4741.1 1245.92 4736.24 1252.29 4730.83 1259.95 4728.18 1269.18 4728.69 1278.52L4728.69 1334.2C4728.91 1336.1 4728.34 1338.01 4727.1 1339.48 4725.52 1340.62 4723.58 1341.15 4721.64 1340.96L4695.14 1340.96C4693.18 1341.15 4691.22 1340.63 4689.63 1339.48 4688.4 1338.01 4687.82 1336.1 4688.04 1334.2L4688.04 1227.19C4688.01 1226.27 4688.08 1225.35 4688.25 1224.44 4688.46 1223.71 4688.83 1223.04 4689.32 1222.46 4693.92 1216.73 4699.25 1211.63 4705.17 1207.27 4706.26 1206.42 4707.62 1205.97 4709.01 1206Z" fill="#FFFFFF" fill-rule="evenodd"/><path d="M4120.37 1281.87C4111.68 1281.59 4102.99 1282.47 4094.52 1284.47 4089.81 1285.44 4085.49 1287.82 4082.16 1291.3 4080.02 1294.17 4078.9 1297.68 4078.98 1301.27 4078.98 1310.01 4084.31 1314.39 4094.97 1314.4 4101.12 1314.72 4107.18 1312.8 4112.02 1308.98 4116.06 1305.61 4118.97 1301.09 4120.37 1296.03ZM4102.6 1207C4121.88 1207 4136.26 1211.64 4145.75 1220.92 4155.23 1230.2 4159.98 1244.14 4159.99 1262.74L4159.99 1334.93C4160.06 1336.47 4159.56 1337.99 4158.59 1339.18 4157.4 1340.35 4155.76 1340.94 4154.1 1340.79L4134.96 1340.79C4133.66 1340.83 4132.36 1340.63 4131.13 1340.21 4129.99 1339.76 4129.02 1338.98 4128.32 1337.98L4120.37 1327.77 4119.48 1327.77C4111.99 1338.57 4099.12 1343.97 4080.9 1343.98 4073.39 1344.17 4065.94 1342.55 4059.19 1339.25 4053.19 1336.25 4048.24 1331.49 4045.01 1325.61 4041.55 1319.11 4039.83 1311.82 4040.01 1304.46 4039.77 1295.98 4042.19 1287.63 4046.93 1280.6 4051.52 1273.95 4059.74 1268.59 4071.58 1264.52 4083.43 1260.46 4099.78 1258.11 4120.65 1257.5 4120.65 1249.96 4118.73 1244.4 4114.9 1240.94 4109.91 1237.07 4103.66 1235.2 4097.37 1235.7 4092.12 1235.55 4086.91 1236.51 4082.06 1238.51 4078.49 1239.98 4075.1 1241.87 4071.96 1244.13 4071.39 1244.65 4070.71 1245.04 4069.97 1245.26 4069.2 1245.43 4068.39 1245.43 4067.61 1245.26 4065.46 1244.98 4063.33 1244.49 4061.28 1243.79 4059.12 1243.07 4055.97 1242 4051.89 1240.56 4050.46 1239.95 4049.67 1239.09 4049.6 1237.99 4049.68 1236.27 4049.93 1234.56 4050.35 1232.89 4050.75 1230.68 4051.27 1228.49 4051.89 1226.34 4052.4 1224.44 4053.04 1222.59 4053.81 1220.78 4054.19 1220 4054.69 1219.29 4055.28 1218.66 4056.02 1217.95 4056.81 1217.3 4057.65 1216.71 4060.02 1215.07 4062.6 1213.76 4065.32 1212.8 4070.23 1211.01 4075.3 1209.66 4080.45 1208.79 4087.76 1207.51 4095.18 1206.91 4102.6 1207Z" fill="#FFFFFF" fill-rule="evenodd"/><path d="M4591.86 1237.87C4572.24 1237.87 4562.44 1250.42 4562.45 1275.51 4562.45 1289.01 4564.86 1298.68 4569.74 1304.47 4574.61 1310.27 4582.07 1313.15 4592.13 1313.15 4601.75 1313.15 4608.88 1310.14 4613.53 1304.13 4618.2 1298.13 4620.5 1288.26 4620.5 1274.48 4620.5 1261.39 4618.17 1252.02 4613.5 1246.37 4608.83 1240.73 4601.61 1237.9 4591.86 1237.87ZM4592.65 1207.02C4605.29 1206.73 4617.84 1209.32 4629.33 1214.6 4639.52 1219.45 4647.94 1227.35 4653.44 1237.19 4659.42 1248.42 4662.35 1261.02 4661.96 1273.73 4662.35 1287.03 4659.43 1300.22 4653.44 1312.12 4647.99 1322.44 4639.42 1330.79 4628.95 1335.97 4604.96 1346.54 4577.65 1346.67 4553.56 1336.35 4543.32 1331.43 4534.88 1323.42 4529.45 1313.45 4518.07 1289.51 4518.19 1261.72 4529.76 1237.87 4535.41 1227.76 4544.09 1219.67 4554.59 1214.74 4566.53 1209.33 4579.54 1206.69 4592.65 1207.02Z" fill="#FFFFFF" fill-rule="evenodd"/><path d="M4594.33 1454C4595.52 1454.02 4596.65 1454.47 4597.54 1455.27 4603.43 1459.65 4608.74 1464.77 4613.34 1470.5 4613.82 1471.09 4614.18 1471.76 4614.41 1472.49 4614.57 1473.4 4614.64 1474.32 4614.61 1475.24L4614.61 1615.62C4614.56 1620.33 4615.01 1625.03 4615.96 1629.64 4616.65 1633.07 4617.79 1636.4 4619.34 1639.54 4619.79 1640.33 4620.02 1641.22 4620 1642.12 4620.01 1643.63 4619.09 1645 4617.68 1645.56L4590.84 1657.83C4589.65 1658.44 4588.35 1658.84 4587.01 1659 4586.12 1658.95 4585.27 1658.64 4584.56 1658.1 4581.1 1655.13 4578.58 1651.21 4577.32 1646.83 4574.86 1639.28 4573.75 1631.35 4574.04 1623.42L4574.04 1475.24C4574 1474.29 4574.07 1473.35 4574.25 1472.42 4574.47 1471.71 4574.83 1471.06 4575.32 1470.5 4579.95 1464.8 4585.25 1459.69 4591.12 1455.27 4592.03 1454.53 4593.15 1454.08 4594.33 1454Z" fill="#FFFFFF" fill-rule="evenodd"/><path d="M5291.79 1551.59C5282.81 1551.02 5274.1 1554.78 5268.33 1561.72 5262.93 1568.52 5260.23 1577.87 5260.23 1589.78 5260.23 1601.59 5262.38 1610.49 5266.66 1616.39 5270.69 1622.19 5277.37 1625.54 5284.41 1625.29 5290.53 1625.55 5296.6 1624.13 5301.99 1621.2 5306.36 1618.59 5309.79 1614.64 5311.77 1609.94L5311.77 1556.43C5305.69 1552.97 5298.77 1551.3 5291.79 1551.59ZM5331.88 1454C5333.06 1454.02 5334.19 1454.47 5335.06 1455.27 5340.92 1459.63 5346.19 1464.74 5350.72 1470.48 5351.22 1471.05 5351.58 1471.71 5351.79 1472.44 5351.95 1473.34 5352.02 1474.26 5351.99 1475.18L5351.99 1648.91C5352.01 1650.46 5351.42 1651.96 5350.35 1653.07 5349.24 1654.2 5347.72 1654.82 5346.14 1654.79L5327.16 1654.79C5325.87 1654.81 5324.58 1654.62 5323.36 1654.2 5322.24 1653.74 5321.27 1652.96 5320.56 1651.97L5312.66 1641.77 5311.77 1641.77C5308.33 1646.49 5303.82 1650.32 5298.6 1652.93 5292.55 1656.3 5283.7 1657.98 5272.06 1657.98 5261.9 1658.25 5251.91 1655.37 5243.43 1649.74 5235.27 1643.99 5228.95 1635.98 5225.24 1626.69 5220.91 1615.81 5218.79 1604.17 5219.01 1592.46 5219.01 1567.94 5225.37 1549.84 5238.1 1538.16 5250.82 1526.49 5268.77 1520.66 5291.93 1520.69 5295.93 1520.65 5299.93 1520.86 5303.9 1521.3 5306.56 1521.59 5309.2 1522.1 5311.77 1522.85L5311.77 1475.18C5311.73 1474.25 5311.8 1473.32 5311.97 1472.4 5312.2 1471.7 5312.56 1471.05 5313.03 1470.48 5317.62 1464.79 5322.88 1459.68 5328.7 1455.27 5329.6 1454.53 5330.71 1454.08 5331.88 1454Z" fill="#FFFFFF" fill-rule="evenodd"/><path d="M4371.5 1455C4372.15 1455.01 4372.79 1455.19 4373.36 1455.51 4374.38 1456.09 4375.36 1456.73 4376.29 1457.44 4382.65 1462.79 4388.61 1468.6 4394.13 1474.81 4394.48 1475.15 4395.03 1475.77 4395.79 1476.66 4396.44 1477.37 4397.01 1478.16 4397.48 1479 4397.81 1479.64 4397.99 1480.35 4398 1481.07 4397.99 1481.83 4397.79 1482.57 4397.41 1483.23 4396.94 1484.04 4396.37 1484.79 4395.72 1485.47 4394.99 1486.29 4394.41 1486.95 4393.99 1487.46 4388.52 1493.59 4382.61 1499.3 4376.29 1504.55 4374.99 1505.85 4373.31 1506.7 4371.5 1507 4370.82 1506.98 4370.16 1506.8 4369.56 1506.48 4368.52 1505.93 4367.53 1505.28 4366.6 1504.55 4360.06 1499.4 4354.08 1493.58 4348.76 1487.19 4348.48 1486.84 4347.96 1486.22 4347.14 1485.33 4346.46 1484.65 4345.89 1483.87 4345.45 1483.03 4345.14 1482.42 4344.99 1481.74 4345 1481.06 4344.98 1480.17 4345.23 1479.3 4345.72 1478.55 4346.66 1477.24 4347.67 1475.99 4348.76 1474.81 4354.36 1468.6 4360.41 1462.79 4366.84 1457.44 4367.71 1456.71 4368.65 1456.07 4369.63 1455.51 4370.2 1455.19 4370.84 1455.01 4371.5 1455Z" fill="#FFFFFF" fill-rule="evenodd"/><path d="M4804.31 1469.03C4821.73 1469.03 4834.91 1471.24 4843.82 1475.65 4851.3 1478.89 4857.77 1484.09 4862.55 1490.71 4863.05 1491.53 4863.47 1492.41 4863.81 1493.31 4864.13 1494.37 4864.3 1495.47 4864.33 1496.57 4864.5 1498.42 4864.57 1500.27 4864.57 1502.06 4864.58 1506.66 4864.25 1511.26 4863.57 1515.81 4863.48 1516.65 4863.26 1517.47 4862.92 1518.24 4862.68 1518.74 4862.33 1519.17 4861.9 1519.51 4860.23 1520.54 4858.27 1520.99 4856.32 1520.78 4853.58 1520.78 4850.43 1520.68 4846.8 1520.47 4843.17 1520.27 4840.53 1520.03 4838.85 1519.75 4837.35 1519.58 4835.89 1519.1 4834.57 1518.35 4833.42 1517.5 4832.42 1516.47 4831.6 1515.3 4830.04 1513.26 4828.31 1511.37 4826.43 1509.64 4824.07 1507.74 4821.37 1506.31 4818.48 1505.42 4813.9 1503.97 4809.11 1503.29 4804.31 1503.43 4786.62 1502.68 4770.53 1513.61 4764.69 1530.35 4760.88 1540.61 4759.07 1551.51 4759.35 1562.45 4759.35 1582.45 4763.47 1597.62 4771.71 1607.96 4779.95 1618.31 4791.89 1623.5 4807.53 1623.53 4812.85 1623.66 4818.16 1623.19 4823.38 1622.13 4826.31 1621.51 4829.15 1620.52 4831.83 1619.18L4831.84 1579.53C4831.8 1578.43 4831.87 1577.33 4832.04 1576.24 4832.25 1575.41 4832.61 1574.63 4833.1 1573.94 4837.74 1567.42 4843.13 1561.47 4849.16 1556.21 4849.68 1555.74 4850.25 1555.34 4850.87 1555.01 4851.38 1554.8 4851.93 1554.69 4852.48 1554.7 4853.7 1554.77 4854.84 1555.31 4855.67 1556.21 4861.72 1561.45 4867.11 1567.4 4871.72 1573.94 4872.24 1574.62 4872.6 1575.4 4872.78 1576.24 4872.95 1577.33 4873.02 1578.43 4872.99 1579.53L4872.99 1642.39C4865.65 1647.15 4857.61 1650.71 4849.16 1652.96 4835.08 1656.69 4820.54 1658.36 4805.99 1657.93 4776.78 1657.93 4754.48 1650.51 4739.08 1635.67 4723.69 1620.83 4716.01 1596.9 4716.04 1563.86 4715.55 1546.16 4719.12 1528.58 4726.48 1512.48 4733 1498.8 4743.6 1487.49 4756.82 1480.11 4771.44 1472.4 4787.79 1468.58 4804.31 1469.03Z" fill="#FFFFFF" fill-rule="evenodd"/><path d="M3976.47 1469.02C3984.69 1468.85 3992.88 1470 4000.75 1472.41 4006.5 1474.11 4011.94 1476.71 4016.87 1480.13 4020.06 1482.28 4022.82 1485 4025.02 1488.15 4025.55 1488.88 4025.99 1489.68 4026.32 1490.52 4026.54 1491.3 4026.72 1492.09 4026.84 1492.89 4026.97 1495.6 4027.08 1497.72 4027.08 1499.27 4027.05 1503.75 4026.75 1508.23 4026.19 1512.68 4026.07 1513.75 4025.57 1514.75 4024.78 1515.49 4023.93 1515.96 4022.95 1516.18 4021.97 1516.11 4015.58 1516.42 4009.17 1516 4002.87 1514.84 4001.69 1514.66 4000.54 1514.29 3999.48 1513.74 3998.54 1513.12 3997.7 1512.37 3996.98 1511.51 3994.73 1509 3992.11 1506.85 3989.21 1505.13 3985.25 1503.21 3980.86 1502.33 3976.47 1502.59 3968.15 1502.59 3961.97 1504.48 3957.91 1508.25 3953.98 1511.82 3951.77 1516.92 3951.85 1522.24 3951.76 1525.88 3953.02 1529.43 3955.38 1532.19 3958.34 1535.39 3961.95 1537.91 3965.96 1539.6 3970.68 1541.83 3977.46 1544.52 3986.3 1547.66 3995.57 1550.74 4004.51 1554.72 4013 1559.56 4019.42 1563.38 4024.75 1568.79 4028.48 1575.27 4032.41 1582.89 4034.3 1591.4 4033.96 1599.96 4034.33 1611.29 4031.27 1622.46 4025.16 1632 4019.2 1640.78 4010.74 1647.57 4000.88 1651.48 3989.59 1655.95 3977.52 1658.14 3965.38 1657.93 3953.57 1658.39 3941.8 1656.55 3930.69 1652.51 3923.28 1649.66 3916.71 1644.97 3911.59 1638.89 3910.66 1637.55 3909.95 1636.39 3909.43 1635.46 3908.9 1634.46 3908.5 1633.38 3908.27 1632.27 3907.46 1628.19 3907.04 1624.05 3907 1619.89 3906.98 1618.57 3907.03 1617.26 3907.14 1615.95 3907.14 1615.34 3907.19 1614.73 3907.31 1614.13 3907.45 1613.63 3907.7 1613.16 3908.03 1612.76 3908.82 1611.96 3909.84 1611.42 3910.94 1611.21 3913.22 1610.7 3916.37 1610.18 3920.39 1609.67 3923.26 1609.25 3926.15 1609 3929.05 1608.91 3930.52 1608.85 3931.97 1609.18 3933.26 1609.88 3934.77 1610.85 3936.14 1612.03 3937.34 1613.37 3944.53 1621.11 3954.85 1625.15 3965.38 1624.35 3972.05 1624.82 3978.68 1622.99 3984.17 1619.17 3988.54 1615.62 3990.93 1610.18 3990.61 1604.56 3990.62 1601.12 3989.53 1597.76 3987.5 1594.99 3984.45 1591.34 3980.67 1588.39 3976.4 1586.31 3969.25 1582.65 3961.8 1579.57 3954.15 1577.12 3944.77 1574.27 3935.86 1570.04 3927.72 1564.57 3921.48 1560.24 3916.48 1554.37 3913.2 1547.52 3909.88 1539.83 3908.29 1531.51 3908.54 1523.14 3908.23 1512.63 3911.21 1502.29 3917.07 1493.57 3923.04 1485.23 3931.32 1478.84 3940.9 1475.19 3952.25 1470.87 3964.33 1468.77 3976.47 1469.02Z" fill="#FFFFFF" fill-rule="evenodd"/><path d="M4288.74 1521.03C4295.56 1520.82 4302.39 1521.52 4309.03 1523.09 4312.68 1523.91 4316.16 1525.37 4319.31 1527.41 4321.13 1528.54 4322.62 1530.12 4323.65 1532 4324.54 1533.64 4325.24 1535.37 4325.73 1537.17 4326.45 1539.53 4326.98 1541.93 4327.31 1544.37 4327.53 1545.32 4327.66 1546.3 4327.68 1547.28 4327.73 1548.17 4327.49 1549.05 4327 1549.78 4326.22 1550.71 4325.3 1551.51 4324.27 1552.15 4322.18 1553.49 4320 1554.69 4317.74 1555.71 4315.79 1556.64 4313.77 1557.41 4311.69 1558.01 4311.04 1558.22 4310.36 1558.35 4309.68 1558.39 4309.1 1558.37 4308.54 1558.22 4308.04 1557.94 4307.33 1557.59 4306.65 1557.19 4305.99 1556.74 4303.9 1555.32 4301.67 1554.14 4299.33 1553.21 4296.37 1552.22 4293.26 1551.77 4290.14 1551.87 4284.56 1551.85 4279.06 1553.3 4274.22 1556.09 4269.12 1559.05 4264.97 1563.41 4262.26 1568.67 4259.12 1574.83 4257.56 1581.69 4257.76 1588.61 4257.57 1595.78 4259.05 1602.89 4262.09 1609.38 4264.74 1614.93 4269.01 1619.54 4274.32 1622.61 4280.06 1625.73 4286.52 1627.29 4293.04 1627.13 4300.82 1627.35 4308.52 1625.55 4315.38 1621.89 4316.28 1621.36 4317.29 1621.05 4318.32 1620.99 4319.65 1620.99 4320.68 1621.89 4321.36 1623.67L4330.62 1644.71C4330.86 1645.22 4330.99 1645.78 4331 1646.35 4331.02 1647.67 4330.27 1648.88 4329.08 1649.44 4323.64 1652.1 4317.89 1654.09 4311.97 1655.37 4303.76 1657.21 4295.37 1658.08 4286.96 1657.97 4274.14 1658.29 4261.42 1655.67 4249.76 1650.33 4239.5 1645.43 4231.03 1637.42 4225.54 1627.44 4219.55 1615.9 4216.62 1603.01 4217.04 1590.02 4216.69 1577.14 4219.71 1564.39 4225.78 1553.04 4231.52 1542.77 4240.21 1534.48 4250.72 1529.26 4262.56 1523.54 4275.6 1520.72 4288.74 1521.03Z" fill="#FFFFFF" fill-rule="evenodd"/><path d="M4500.38 1595.87C4491.67 1595.59 4482.97 1596.47 4474.5 1598.47 4469.79 1599.44 4465.48 1601.82 4462.17 1605.3 4460.02 1608.17 4458.89 1611.68 4458.97 1615.27 4458.97 1624.01 4464.3 1628.39 4474.95 1628.4 4481.11 1628.72 4487.18 1626.79 4492.03 1622.98 4496.05 1619.6 4498.96 1615.09 4500.37 1610.03ZM4482.61 1521C4501.89 1521 4516.26 1525.64 4525.73 1534.92 4535.25 1544.18 4540 1558.12 4539.99 1576.74L4539.99 1648.93C4540.06 1650.47 4539.56 1651.99 4538.58 1653.18 4537.4 1654.35 4535.77 1654.93 4534.11 1654.79L4514.94 1654.79C4513.65 1654.83 4512.35 1654.63 4511.13 1654.21 4510 1653.75 4509.02 1652.97 4508.31 1651.98L4500.38 1641.77 4499.48 1641.77C4491.99 1652.57 4479.13 1657.97 4460.9 1657.98 4453.38 1658.17 4445.94 1656.55 4439.18 1653.25 4433.17 1650.25 4428.22 1645.49 4424.99 1639.61 4421.53 1633.11 4419.81 1625.82 4420.01 1618.46 4419.77 1609.98 4422.19 1601.64 4426.92 1594.6 4431.52 1587.95 4439.75 1582.59 4451.59 1578.52 4463.43 1574.46 4479.78 1572.11 4500.65 1571.5 4500.65 1563.96 4498.73 1558.4 4494.88 1554.94 4489.91 1551.07 4483.67 1549.2 4477.39 1549.7 4472.13 1549.55 4466.9 1550.51 4462.03 1552.51 4458.48 1554 4455.1 1555.88 4451.97 1558.13 4451.39 1558.65 4450.71 1559.04 4449.97 1559.26 4449.19 1559.43 4448.38 1559.43 4447.6 1559.26 4445.45 1558.98 4443.33 1558.49 4441.28 1557.79 4439.12 1557.07 4435.99 1556 4431.9 1554.56 4430.46 1553.95 4429.67 1553.09 4429.6 1551.99 4429.68 1550.27 4429.93 1548.56 4430.35 1546.89 4430.76 1544.68 4431.27 1542.49 4431.9 1540.34 4432.39 1538.44 4433.03 1536.58 4433.82 1534.78 4434.19 1534.01 4434.68 1533.29 4435.27 1532.66 4436.02 1531.96 4436.81 1531.31 4437.64 1530.71 4440.01 1529.08 4442.59 1527.77 4445.3 1526.8 4450.22 1525.01 4455.29 1523.66 4460.45 1522.79 4467.77 1521.51 4475.19 1520.92 4482.61 1521Z" fill="#FFFFFF" fill-rule="evenodd"/><path d="M4968.86 1551.87C4949.24 1551.87 4939.44 1564.42 4939.45 1589.51 4939.45 1603.01 4941.86 1612.68 4946.74 1618.47 4951.61 1624.27 4959.07 1627.15 4969.13 1627.15 4978.75 1627.15 4985.88 1624.14 4990.53 1618.13 4995.2 1612.13 4997.5 1602.26 4997.5 1588.48 4997.5 1575.39 4995.17 1566.02 4990.5 1560.37 4985.83 1554.73 4978.61 1551.9 4968.86 1551.87ZM4969.65 1521.02C4982.29 1520.73 4994.84 1523.32 5006.33 1528.6 5016.52 1533.45 5024.94 1541.35 5030.44 1551.19 5036.42 1562.42 5039.35 1575.02 5038.96 1587.73 5039.35 1601.03 5036.43 1614.22 5030.44 1626.12 5024.99 1636.44 5016.42 1644.79 5005.95 1649.97 4981.96 1660.54 4954.65 1660.67 4930.56 1650.35 4920.32 1645.43 4911.88 1637.42 4906.45 1627.45 4895.07 1603.51 4895.19 1575.72 4906.76 1551.87 4912.41 1541.76 4921.09 1533.67 4931.59 1528.74 4943.53 1523.33 4956.54 1520.69 4969.65 1521.02Z" fill="#FFFFFF" fill-rule="evenodd"/><path d="M5128.86 1551.87C5109.24 1551.87 5099.44 1564.42 5099.45 1589.51 5099.45 1603.01 5101.86 1612.68 5106.74 1618.47 5111.61 1624.27 5119.07 1627.15 5129.13 1627.15 5138.75 1627.15 5145.88 1624.14 5150.53 1618.13 5155.2 1612.13 5157.5 1602.26 5157.5 1588.48 5157.5 1575.39 5155.17 1566.02 5150.5 1560.37 5145.83 1554.73 5138.61 1551.9 5128.86 1551.87ZM5129.65 1521.02C5142.29 1520.73 5154.84 1523.32 5166.33 1528.6 5176.52 1533.45 5184.94 1541.35 5190.44 1551.19 5196.42 1562.42 5199.35 1575.02 5198.96 1587.73 5199.35 1601.03 5196.43 1614.22 5190.44 1626.12 5184.99 1636.44 5176.42 1644.79 5165.95 1649.97 5141.96 1660.54 5114.65 1660.67 5090.56 1650.35 5080.32 1645.43 5071.88 1637.42 5066.45 1627.45 5055.07 1603.51 5055.19 1575.72 5066.76 1551.87 5072.41 1541.76 5081.09 1533.67 5091.59 1528.74 5103.53 1523.33 5116.54 1520.69 5129.65 1521.02Z" fill="#FFFFFF" fill-rule="evenodd"/><path d="M4358.18 1524.04 4384.82 1524.04C4386.78 1523.84 4388.73 1524.37 4390.32 1525.51 4391.58 1526.99 4392.17 1528.91 4391.95 1530.83L4391.95 1648.16C4392.17 1650.08 4391.58 1652.01 4390.32 1653.48 4388.73 1654.63 4386.78 1655.15 4384.82 1654.96L4358.18 1654.96C4356.22 1655.15 4354.27 1654.63 4352.68 1653.48 4351.4 1652.01 4350.81 1650.08 4351.05 1648.16L4351.05 1530.83C4350.81 1528.91 4351.4 1526.98 4352.68 1525.51 4354.27 1524.37 4356.22 1523.84 4358.18 1524.04Z" fill="#FFFFFF" fill-rule="evenodd"/><path d="M5172.01 1829 5192.95 1829 5192.95 1884.47C5192.77 1889.81 5193.5 1895.15 5195.1 1900.26 5196.14 1903.67 5198.35 1906.62 5201.35 1908.6 5204.32 1910.31 5207.7 1911.17 5211.13 1911.08 5214.62 1911.18 5218.07 1910.32 5221.09 1908.6 5224.11 1906.6 5226.37 1903.67 5227.52 1900.26 5229.22 1895.17 5229.99 1889.83 5229.8 1884.47L5229.8 1829 5249.98 1829 5249.98 1882.54C5250.12 1889.63 5249.27 1896.71 5247.46 1903.58 5246.09 1908.89 5243.53 1913.82 5239.96 1918.02 5236.63 1921.73 5232.43 1924.57 5227.72 1926.29 5222.41 1928.17 5216.78 1929.09 5211.13 1928.99 5205.46 1929.08 5199.82 1928.16 5194.48 1926.29 5189.74 1924.58 5185.52 1921.74 5182.17 1918.02 5178.59 1913.82 5176.01 1908.89 5174.6 1903.58 5172.75 1896.72 5171.88 1889.64 5172.01 1882.54Z" fill="#FFFFFF" fill-rule="evenodd"/><path d="M5271 1829 5291.77 1829 5291.77 1871 5292.39 1871 5323.79 1829 5346.7 1829 5316.49 1868.27 5352 1928 5329.24 1928 5304.23 1884.64 5291.77 1900.71 5291.77 1928 5271 1928 5271 1829Z" fill="#FFFFFF" fill-rule="evenodd"/><path d="M4606.5 1819.01C4609.56 1818.88 4612.55 1820 4614.78 1822.09 4619.07 1826.5 4619.07 1833.49 4614.78 1837.9 4612.55 1840 4609.56 1841.11 4606.5 1840.99 4603.45 1841.08 4600.5 1839.97 4598.28 1837.9 4593.9 1833.53 4593.9 1826.47 4598.28 1822.09 4600.5 1820.02 4603.45 1818.91 4606.5 1819.01Z" fill="#FFFFFF" fill-rule="evenodd"/><path d="M4926.5 1819.01C4929.56 1818.88 4932.55 1820 4934.78 1822.09 4939.07 1826.5 4939.07 1833.49 4934.78 1837.9 4932.55 1840 4929.56 1841.11 4926.5 1840.99 4923.45 1841.08 4920.5 1839.97 4918.28 1837.9 4913.9 1833.53 4913.9 1826.47 4918.28 1822.09 4920.5 1820.02 4923.45 1818.91 4926.5 1819.01Z" fill="#FFFFFF" fill-rule="evenodd"/><path d="M4413.01 1829 4433.96 1829 4433.96 1884.48C4433.77 1889.82 4434.49 1895.15 4436.08 1900.26 4437.13 1903.67 4439.36 1906.62 4442.37 1908.61 4445.33 1910.31 4448.71 1911.17 4452.14 1911.09 4455.62 1911.19 4459.06 1910.33 4462.07 1908.61 4465.11 1906.62 4467.38 1903.67 4468.5 1900.26 4470.21 1895.18 4470.99 1889.83 4470.79 1884.48L4470.79 1829 4490.98 1829 4490.98 1882.54C4491.12 1889.64 4490.26 1896.72 4488.45 1903.59 4487.09 1908.89 4484.54 1913.82 4480.98 1918.02 4477.65 1921.72 4473.45 1924.57 4468.74 1926.29 4457.96 1929.9 4446.27 1929.9 4435.49 1926.29 4430.75 1924.59 4426.52 1921.75 4423.19 1918.02 4419.6 1913.82 4417.02 1908.89 4415.62 1903.59 4413.76 1896.72 4412.88 1889.64 4413.01 1882.54Z" fill="#FFFFFF" fill-rule="evenodd"/><path d="M4963.99 1833 4981.16 1833 4981.16 1852.82 4999.55 1852.82 4999.55 1869.04 4981.16 1869.04 4981.16 1900.61C4980.87 1903.91 4981.83 1907.2 4983.84 1909.84 4985.74 1911.85 4988.43 1912.92 4991.2 1912.77 4992.53 1912.77 4993.86 1912.62 4995.15 1912.32 4996.35 1912.05 4997.52 1911.7 4998.66 1911.27L5002 1926.29C4999.97 1926.89 4997.59 1927.49 4994.84 1928.09 4991.85 1928.72 4988.79 1929.02 4985.73 1928.99 4976.62 1928.99 4970.13 1926.39 4966.26 1921.18 4962.17 1915.17 4960.15 1908.01 4960.49 1900.76L4960.49 1869.06 4950 1869.06 4950 1853.74 4961.55 1852.84Z" fill="#FFFFFF" fill-rule="evenodd"/><path d="M4553.55 1851.06C4560.49 1850.5 4567.22 1853.54 4571.36 1859.11 4575.42 1865.76 4577.37 1873.49 4576.94 1881.26L4576.94 1928 4556.01 1928 4556.01 1883.84C4556.38 1879.77 4555.55 1875.68 4553.62 1872.08 4551.77 1869.78 4548.88 1868.55 4545.93 1868.82 4543.18 1868.73 4540.47 1869.44 4538.13 1870.87 4535.52 1872.59 4533.06 1874.55 4530.79 1876.71L4530.79 1928 4510 1928 4510 1852.88 4526.97 1852.88 4528.5 1862.6 4529.09 1862.6C4532.34 1859.47 4535.96 1856.74 4539.86 1854.48 4544.04 1852.14 4548.76 1850.96 4553.55 1851.06Z" fill="#FFFFFF" fill-rule="evenodd"/><path d="M4746.64 1866.79C4743.84 1866.81 4741.1 1867.59 4738.72 1869.05 4735.94 1870.82 4733.76 1873.38 4732.48 1876.41L4730.69 1882.27 4760.18 1882.27C4760.38 1878.25 4759.23 1874.29 4756.91 1871 4754.37 1868.04 4750.54 1866.47 4746.64 1866.79ZM4746.19 1851.02C4752.38 1850.8 4758.5 1852.42 4763.76 1855.67 4768.48 1858.78 4772.19 1863.19 4774.41 1868.37 4776.87 1874.14 4778.09 1880.36 4777.99 1886.62 4777.99 1888.4 4777.89 1890.19 4777.68 1891.96 4777.47 1893.71 4777.27 1895.04 4777.06 1895.94L4730.65 1895.94 4730.83 1897.76C4731.28 1899.85 4732.07 1901.85 4733.17 1903.68 4735.04 1906.84 4737.82 1909.38 4741.16 1910.96 4744.4 1912.46 4747.93 1913.23 4751.5 1913.22 4754.42 1913.24 4757.32 1912.81 4760.11 1911.94 4762.95 1911.02 4765.68 1909.79 4768.24 1908.26L4775.1 1920.73C4771.22 1923.3 4767 1925.32 4762.56 1926.74 4758.11 1928.21 4753.46 1928.97 4748.78 1928.99 4742.06 1929.09 4735.43 1927.49 4729.52 1924.33 4723.81 1921.28 4719.12 1916.66 4715.98 1911.04 4712.5 1904.6 4710.79 1897.38 4711.02 1890.08 4710.83 1882.85 4712.56 1875.7 4716.05 1869.35 4719.15 1863.79 4723.66 1859.12 4729.14 1855.82 4734.27 1852.69 4740.17 1851.02 4746.19 1851.02Z" fill="#FFFFFF" fill-rule="evenodd"/><path d="M4833.21 1851C4834.94 1850.98 4836.66 1851.1 4838.36 1851.38 4839.62 1851.58 4840.85 1851.96 4842 1852.52L4838.5 1870.44C4837.19 1870.13 4835.96 1869.86 4834.79 1869.6 4833.41 1869.33 4832.01 1869.2 4830.6 1869.22 4827.32 1869.35 4824.16 1870.46 4821.51 1872.41 4817.83 1875.29 4815.09 1879.2 4813.62 1883.65L4813.62 1928 4793 1928 4793 1852.82 4809.84 1852.82 4811.35 1866.03 4811.97 1866.03C4814.27 1861.54 4817.63 1857.68 4821.75 1854.79 4825.11 1852.4 4829.1 1851.08 4833.21 1851Z" fill="#FFFFFF" fill-rule="evenodd"/><path d="M4876 1851.03C4881.09 1850.92 4886.16 1851.9 4890.85 1853.89 4894.78 1855.6 4898.49 1857.77 4901.91 1860.34L4892.67 1872.65C4890.15 1870.86 4887.45 1869.33 4884.62 1868.07 4882.09 1866.94 4879.35 1866.36 4876.58 1866.36 4874.1 1866.19 4871.62 1866.82 4869.54 1868.16 4868.02 1869.29 4867.15 1871.08 4867.2 1872.97 4867.18 1874.63 4867.98 1876.2 4869.33 1877.17 4871.04 1878.44 4872.93 1879.45 4874.93 1880.17 4877.27 1881.09 4879.74 1881.99 4882.36 1882.88 4885.65 1884.11 4888.85 1885.6 4891.91 1887.32 4895 1889.03 4897.69 1891.39 4899.78 1894.23 4902.03 1897.46 4903.15 1901.34 4902.98 1905.27 4903.02 1909.52 4901.81 1913.69 4899.51 1917.28 4896.98 1921.04 4893.43 1924.01 4889.26 1925.82 4884.03 1928.07 4878.36 1929.15 4872.66 1928.98 4867.44 1928.93 4862.27 1927.94 4857.4 1926.05 4852.57 1924.29 4848.04 1921.79 4844 1918.62L4853.38 1905.7C4856.5 1908.02 4859.87 1909.98 4863.42 1911.56 4866.51 1912.93 4869.86 1913.65 4873.25 1913.66 4876 1913.87 4878.75 1913.19 4881.08 1911.71 4882.71 1910.46 4883.63 1908.5 4883.56 1906.45 4883.54 1904.7 4882.7 1903.06 4881.29 1902.01 4879.52 1900.62 4877.55 1899.5 4875.45 1898.71 4873.08 1897.76 4870.63 1896.78 4868.09 1895.78 4864.85 1894.52 4861.71 1893.02 4858.71 1891.27 4855.65 1889.54 4852.99 1887.19 4850.91 1884.37 4848.75 1881.35 4847.65 1877.71 4847.78 1874 4847.6 1867.57 4850.46 1861.43 4855.51 1857.41 4861.36 1852.93 4868.62 1850.67 4876 1851.03Z" fill="#FFFFFF" fill-rule="evenodd"/><path d="M4597 1853 4617 1853 4617 1928 4597 1928Z" fill="#FFFFFF" fill-rule="evenodd"/><path d="M4629 1853 4649.83 1853 4660.24 1889.51C4661.15 1893.25 4662.11 1897.03 4663.12 1900.87 4664.15 1904.71 4665.14 1908.55 4666.13 1912.39L4666.75 1912.39C4667.74 1908.55 4668.77 1904.71 4669.76 1900.87 4670.76 1897.03 4671.79 1893.25 4672.78 1889.51L4683.23 1853 4703 1853 4678.23 1928 4654.52 1928Z" fill="#FFFFFF" fill-rule="evenodd"/><path d="M4916 1853 4937 1853 4937 1928 4916 1928Z" fill="#FFFFFF" fill-rule="evenodd"/><path d="M5006 1853 5026.89 1853 5038.23 1886.55C5039.33 1889.86 5040.39 1893.28 5041.42 1896.79 5042.41 1900.3 5043.44 1903.91 5044.44 1907.62L5045.05 1907.62C5045.94 1904.11 5046.83 1900.58 5047.69 1897.01 5048.55 1893.45 5049.44 1889.97 5050.33 1886.56L5060.16 1853 5080 1853 5053.65 1929.14C5051.66 1934.43 5049.14 1939.5 5046.11 1944.27 5043.62 1948.2 5040.18 1951.46 5036.11 1953.74 5031.67 1956.02 5026.72 1957.14 5021.72 1956.98 5019.8 1957.01 5017.89 1956.85 5016 1956.53 5014.36 1956.23 5012.81 1955.88 5011.31 1955.48L5015.08 1939.83C5015.92 1939.95 5016.75 1940.13 5017.58 1940.35 5018.44 1940.59 5019.32 1940.72 5020.21 1940.73 5023.45 1940.9 5026.63 1939.82 5029.09 1937.72 5031.31 1935.61 5032.95 1932.97 5033.85 1930.04L5035.05 1925.83Z" fill="#FFFFFF" fill-rule="evenodd"/><path d="M4227.5 1819.01C4230.56 1818.88 4233.55 1820 4235.78 1822.09 4240.07 1826.5 4240.07 1833.49 4235.78 1837.9 4233.55 1840 4230.56 1841.11 4227.5 1840.99 4224.45 1841.08 4221.5 1839.97 4219.28 1837.9 4214.9 1833.53 4214.9 1826.47 4219.28 1822.09 4221.5 1820.02 4224.45 1818.91 4227.5 1819.01Z" fill="#FFFFFF" fill-rule="evenodd"/><path d="M4288.5 1819.03C4291.3 1819.01 4294.09 1819.29 4296.83 1819.87 4298.94 1820.3 4301 1820.94 4303 1821.77L4299.23 1837.17C4297.97 1836.57 4296.65 1836.13 4295.29 1835.87 4294 1835.62 4292.69 1835.49 4291.38 1835.49 4288.93 1835.34 4286.54 1836.32 4284.9 1838.16 4283.16 1840.73 4282.36 1843.82 4282.64 1846.92L4282.64 1852.56 4296.35 1852.56 4296.35 1869.02 4282.64 1869.02 4282.64 1928 4261.97 1928 4261.97 1869.02 4252 1869.02 4252 1853.48 4261.97 1852.66 4261.97 1847.38C4261.89 1842.47 4262.79 1837.6 4264.61 1833.05 4266.3 1828.85 4269.25 1825.28 4273.04 1822.84 4277.72 1820.09 4283.09 1818.77 4288.5 1819.03Z" fill="#FFFFFF" fill-rule="evenodd"/><path d="M4337.5 1819.03C4340.3 1819 4343.09 1819.28 4345.83 1819.86 4347.94 1820.29 4350 1820.93 4352 1821.76L4348.23 1837.16C4346.97 1836.56 4345.65 1836.12 4344.28 1835.86 4343 1835.61 4341.69 1835.48 4340.38 1835.48 4337.93 1835.33 4335.54 1836.31 4333.9 1838.15 4332.16 1840.72 4331.36 1843.81 4331.64 1846.91L4331.64 1852.55 4345.35 1852.55 4345.35 1869.01 4331.64 1869.01 4331.64 1928 4310.97 1928 4310.97 1869.02 4301 1869.02 4301 1853.48 4310.97 1852.66 4310.97 1847.38C4310.89 1842.47 4311.79 1837.6 4313.61 1833.05 4315.3 1828.85 4318.25 1825.28 4322.04 1822.84 4326.72 1820.09 4332.09 1818.77 4337.5 1819.03Z" fill="#FFFFFF" fill-rule="evenodd"/><path d="M4162.9 1867.51C4160.27 1867.51 4157.73 1868.39 4155.66 1870 4153.23 1871.94 4151.37 1874.5 4150.27 1877.41 4148.79 1881.28 4148.09 1885.41 4148.21 1889.56 4147.81 1895.46 4149.16 1901.35 4152.09 1906.48 4154.47 1910.1 4158.57 1912.22 4162.9 1912.06 4165.38 1912.1 4167.83 1911.53 4170.03 1910.4 4172.48 1909.01 4174.6 1907.1 4176.24 1904.81L4176.24 1872.8C4174.38 1870.95 4172.13 1869.53 4169.66 1868.64 4167.48 1867.9 4165.2 1867.52 4162.9 1867.51ZM4176.24 1821 4197 1821 4197 1927.17 4180.02 1927.17 4178.51 1919.47 4178.06 1919.47C4175.29 1922.23 4172.09 1924.52 4168.59 1926.26 4165.2 1928.03 4161.44 1928.96 4157.61 1928.98 4148.95 1929.28 4140.68 1925.4 4135.35 1918.56 4129.79 1911.61 4127.01 1902.05 4127.01 1889.86 4126.81 1882.61 4128.34 1875.41 4131.47 1868.87 4134.11 1863.44 4138.1 1858.79 4143.07 1855.36 4147.53 1852.27 4152.81 1850.61 4158.23 1850.6 4161.88 1850.48 4165.51 1851.2 4168.83 1852.71 4171.84 1854.25 4174.59 1856.24 4177 1858.6L4176.24 1846.97Z" fill="#FFFFFF" fill-rule="evenodd"/><path d="M3953.05 1827C3958.94 1826.9 3964.77 1828.21 3970.04 1830.84 3974.59 1833.09 3978.74 1836.06 3982.33 1839.65L3971.3 1852.91C3968.9 1850.66 3966.22 1848.74 3963.32 1847.19 3960.28 1845.63 3956.91 1844.85 3953.5 1844.93 3948.91 1844.89 3944.43 1846.29 3940.67 1848.92 3936.68 1851.79 3933.56 1855.7 3931.63 1860.23 3929.28 1865.77 3928.15 1871.76 3928.32 1877.78 3928.16 1883.91 3929.18 1890.03 3931.32 1895.78 3933.03 1900.35 3936.06 1904.31 3940.02 1907.15 3947.31 1911.9 3956.58 1912.36 3964.31 1908.36 3967.54 1906.57 3970.47 1904.29 3972.98 1901.58L3984 1914.53C3980.16 1919.11 3975.37 1922.78 3969.97 1925.3 3964.46 1927.8 3958.48 1929.06 3952.44 1928.99 3944.49 1929.09 3936.65 1927.12 3929.68 1923.27 3922.68 1919.3 3916.95 1913.39 3913.2 1906.25 3908.84 1897.68 3906.71 1888.14 3907.03 1878.53 3906.9 1871.11 3908.12 1863.74 3910.64 1856.76 3912.85 1850.73 3916.26 1845.22 3920.67 1840.57 3924.86 1836.22 3929.91 1832.78 3935.48 1830.48 3941.05 1828.17 3947.02 1826.99 3953.05 1827Z" fill="#FFFFFF" fill-rule="evenodd"/><path d="M4035.39 1891.88C4030.78 1892.41 4026.25 1893.45 4021.86 1894.95 4019.16 1895.81 4016.73 1897.36 4014.81 1899.46 4013.46 1901.02 4012.71 1903.02 4012.7 1905.09 4012.52 1907.39 4013.47 1909.64 4015.25 1911.1 4017.18 1912.47 4019.5 1913.16 4021.86 1913.05 4024.36 1913.11 4026.83 1912.46 4028.98 1911.18 4031.29 1909.74 4033.44 1908.05 4035.39 1906.15ZM4026.97 1851.01C4032.52 1850.83 4038.01 1852.13 4042.89 1854.78 4047.24 1857.32 4050.66 1861.18 4052.67 1865.82 4055.06 1871.65 4056.19 1877.92 4055.97 1884.22L4055.97 1927.19 4039.14 1927.19 4037.64 1919.37 4037.2 1919.37C4034.08 1922.12 4030.62 1924.44 4026.91 1926.28 4023.23 1928.09 4019.18 1929.02 4015.08 1928.99 4010.98 1929.09 4006.93 1928.08 4003.36 1926.06 4000.12 1924.17 3997.46 1921.41 3995.69 1918.1 3993.86 1914.6 3992.94 1910.7 3993 1906.75 3992.81 1899.27 3996.66 1892.27 4003.05 1888.43 4009.8 1884.02 4020.58 1881.01 4035.39 1879.41 4035.33 1877.29 4034.87 1875.2 4034.03 1873.26 4033.22 1871.44 4031.84 1869.94 4030.11 1868.98 4027.94 1867.84 4025.5 1867.29 4023.06 1867.4 4019.68 1867.41 4016.34 1868.08 4013.21 1869.35 4009.72 1870.77 4006.32 1872.43 4003.05 1874.31L3995.69 1860.79C3998.78 1858.95 4001.96 1857.3 4005.24 1855.83 4008.6 1854.33 4012.11 1853.14 4015.7 1852.3 4019.39 1851.43 4023.18 1851 4026.97 1851.01Z" fill="#FFFFFF" fill-rule="evenodd"/><path d="M4114.21 1851C4115.94 1850.98 4117.66 1851.1 4119.36 1851.38 4120.62 1851.58 4121.84 1851.96 4123 1852.52L4119.5 1870.44C4118.19 1870.13 4116.96 1869.86 4115.79 1869.6 4114.41 1869.33 4113.01 1869.2 4111.6 1869.22 4108.32 1869.35 4105.16 1870.46 4102.51 1872.41 4098.83 1875.29 4096.09 1879.2 4094.62 1883.65L4094.62 1928 4074 1928 4074 1852.82 4090.84 1852.82 4092.35 1866.03 4092.97 1866.03C4095.27 1861.54 4098.63 1857.68 4102.75 1854.79 4106.11 1852.4 4110.1 1851.08 4114.21 1851Z" fill="#FFFFFF" fill-rule="evenodd"/><path d="M4217 1853 4238 1853 4238 1928 4217 1928Z" fill="#FFFFFF" fill-rule="evenodd"/><path d="M5097.42 1903.01C5101.68 1902.79 5105.75 1904.81 5108.19 1908.35 5110.94 1912.82 5112.25 1918.04 5111.95 1923.3 5112.12 1930.82 5109.77 1938.18 5105.29 1944.19 5100.41 1950.38 5093.73 1954.86 5086.2 1957L5082 1945.86C5086.66 1944.26 5090.84 1941.47 5094.14 1937.78L5098.14 1927.07 5096.98 1927.26C5093.79 1927.3 5090.68 1926.19 5088.22 1924.14 5085.61 1921.95 5084.19 1918.64 5084.39 1915.22 5084.28 1911.82 5085.71 1908.56 5088.29 1906.37 5090.82 1904.16 5094.07 1902.96 5097.42 1903.01Z" fill="#FFFFFF" fill-rule="evenodd"/><path d="M3409.76 582.996C3394.25 582.952 3379.35 589.031 3368.3 599.912L3356.37 617.309 3354.41 624.633 3351.21 640.277 3351.11 639.83 3354.34 623.773 3341.62 672.011C3280.43 859.681 3149.68 1016.78 2976.23 1111.03L2913.69 1141.19 2917.44 1165.77C2920.09 1191.93 2921.42 1218.21 2921.43 1244.51 2921.68 1445.55 2843.06 1638.67 2702.44 1782.37L2692.33 1791.65 2710.45 1779.44 2710.7 1779.39 2693.02 1791.35 2692.78 1791.58 2680.51 1809.8C2671.43 1831.44 2676.3 1856.42 2692.85 1873.06L2699.49 1877.53 2706.16 1881.72 2714.37 1886.07 2733.15 1889.87 2732.8 1889.94 2713.69 1886.08 2753.09 1906.87C2853.36 1955.15 2963.24 1980.15 3074.53 1980 3484.03 1980 3816 1647.97 3816 1238.41 3816.14 983.888 3685.66 747.097 3470.42 611.258L3451.37 600.084 3451.26 599.912 3447.65 597.505 3442.02 594.274 3430.98 586.847 3427.54 586.125 3427.95 586.331 3428.68 586.744ZM3356.27 616.484 3355.61 617.447 3354.34 623.773ZM2692.33 1791.66 2692.16 1791.78 2692.09 1791.89ZM2698.8 1877.58 2710.45 1885.43 2713.69 1886.09 2705.47 1881.76Z" fill="#E1053F" fill-rule="evenodd"/><path d="M3069.7 496.997C3126.03 496.965 3182.19 503.324 3237.08 515.951L3288.79 529.926 3291.4 530.475 3300.03 533.634 3315.74 544.21C3326.8 555.251 3333.01 570.238 3333 585.86L3328.7 607.218 3328.22 609.003 3327.53 610.033 3313.5 663.187C3254.6 843.72 3128.7 994.863 2961.69 1085.56L2904.69 1113 2901.01 1088.79C2865.59 916.765 2772.28 762.038 2636.59 650.344L2628 643.923 2655.33 623.493C2777.65 540.832 2922.01 496.764 3069.7 496.997Z" fill="#820425" fill-rule="evenodd"/><path d="M3329 606 3328.33 607.751 3328 608.001 3329 606Z" fill="#4472C4" fill-rule="evenodd"/><path d="M2333.55 1151 2382.84 1169.03C2456.97 1192.04 2534.15 1203.7 2611.78 1203.62 2689.4 1203.7 2766.58 1192.04 2840.71 1169.03L2882.84 1153.61 2884.18 1162.26C2886.72 1187.45 2887.99 1212.75 2888 1238.07 2888.26 1431.58 2812.52 1617.48 2677.05 1755.83L2661.92 1769.77 2655.76 1778.56 2645 1788.09 2632.48 1796.23C2616.77 1802.59 2599.2 1802.59 2583.49 1796.23L2575.68 1791.16 2558.16 1775.62 2554.07 1769.78 2538.94 1755.83C2403.47 1617.48 2327.73 1431.58 2328 1238.07 2327.99 1212.75 2329.27 1187.45 2331.82 1162.26Z" fill="#820425" fill-rule="evenodd"/><path d="M2606.83 672.996C2615.12 672.991 2623.33 674.542 2631.04 677.568L2637.48 681.658 2655.91 697.195 2661.34 704.758 2664.09 707.233C2754.44 795.346 2820.8 905.074 2856.87 1026.02L2865.64 1060.94 2855.19 1045.44 2854.95 1045.27 2865.5 1061.05 2872 1087.07 2867.43 1109.82C2864.49 1116.82 2860.21 1123.19 2854.85 1128.56L2838.73 1139.49 2831.54 1142.13 2813.39 1145.81 2812.98 1145.74 2775.04 1156.02C2720.12 1168.66 2663.94 1175.03 2607.59 1175 2532.84 1175.06 2458.51 1163.82 2387.12 1141.65L2386.56 1141.45 2384.95 1141.14 2374.64 1137.46 2359.15 1127.32C2353.7 1122.06 2349.33 1115.77 2346.29 1108.83L2342 1088.24 2349.63 1058.64 2350.41 1057.51 2358.3 1026.02C2385.34 935.286 2429.54 850.59 2488.52 776.531L2549.46 709.054 2549.55 708.642 2556.12 699.499 2580.52 678.908 2582.62 677.568C2590.34 674.541 2598.55 672.99 2606.83 672.996Z" fill="#434242" fill-rule="evenodd"/><path d="M2866 1061 2867.76 1063.87C2870.57 1071.14 2872.01 1078.92 2872 1086.78L2871.96 1087Z" fill="#4472C4" fill-rule="evenodd"/><path d="M2374 1137 2384 1141 2377.48 1139.56 2374 1137Z" fill="#4472C4" fill-rule="evenodd"/><path d="M2840 1138 2837.56 1139.92 2833 1141 2840 1138Z" fill="#4472C4" fill-rule="evenodd"/><path d="M3864 1754 5559 1754" stroke="#FFFFFF" stroke-width="7.73428" stroke-miterlimit="8" fill="none" fill-rule="evenodd"/><path d="M4126.86 1551.87C4107.24 1551.87 4097.44 1564.42 4097.45 1589.51 4097.45 1603.01 4099.86 1612.68 4104.74 1618.47 4109.61 1624.27 4117.07 1627.15 4127.13 1627.15 4136.75 1627.15 4143.88 1624.14 4148.53 1618.13 4153.2 1612.13 4155.5 1602.26 4155.5 1588.48 4155.5 1575.39 4153.17 1566.02 4148.5 1560.37 4143.83 1554.73 4136.61 1551.9 4126.86 1551.87ZM4127.65 1521.02C4140.29 1520.73 4152.84 1523.32 4164.33 1528.6 4174.52 1533.45 4182.94 1541.35 4188.44 1551.19 4194.42 1562.42 4197.35 1575.02 4196.96 1587.73 4197.35 1601.03 4194.43 1614.22 4188.44 1626.12 4182.99 1636.44 4174.42 1644.79 4163.95 1649.97 4139.96 1660.54 4112.65 1660.67 4088.56 1650.35 4078.32 1645.43 4069.88 1637.42 4064.45 1627.45 4053.07 1603.51 4053.19 1575.72 4064.76 1551.87 4070.41 1541.76 4079.09 1533.67 4089.59 1528.74 4101.53 1523.33 4114.54 1520.69 4127.65 1521.02Z" fill="#FFFFFF" fill-rule="evenodd"/></g></svg>