<svg width="3542" height="2438" xmlns="http://www.w3.org/2000/svg" xmlns:xlink="http://www.w3.org/1999/xlink" xml:space="preserve" overflow="hidden"><defs><clipPath id="clip0"><rect x="10" y="16" width="3542" height="2438"/></clipPath></defs><g clip-path="url(#clip0)" transform="translate(-10 -16)"><path d="M459.621 1940.82C462.625 1968.88 475.939 1991.51 494.991 2011.4 537.893 2056.16 590.442 2081.33 652.035 2085.12 735.367 2090.25 796.35 2128.19 833.82 2203.12 843.869 2223.22 860.163 2234.29 881.927 2238.87 933.012 2249.61 980.523 2232.25 1028.77 2220.76 1034.36 2219.43 1035.28 2214.85 1029.94 2207.86 1008.76 2177.2 979.727 2163.89 942.572 2167.35 931.884 2168.34 921.017 2167.31 910.228 2167.23 852.682 2166.79 809.072 2144.5 786.561 2088.71 783.696 2081.6 779.509 2075.04 776.058 2068.17 757.149 2030.45 725.249 2008.86 685.965 1997.82 661.588 1990.96 636.263 1988.22 610.881 1986.95 562.544 1984.53 516.546 1974.46 475.787 1946.42 471.461 1943.45 467.509 1936.46 459.621 1940.82ZM489.771 1765.52C479.344 1764.17 468.627 1763.92 457.442 1767.38 458.969 1794.91 466.113 1820.63 473.533 1849.96 488.343 1887.18 516.551 1909.1 554.141 1919.9 581.567 1927.78 609.697 1931.23 638.178 1933 724.319 1938.36 795.776 1967.74 831.863 2053.75 834.538 2060.12 838.118 2066.11 841.352 2072.25 854.487 2097.14 875.094 2109.27 903.264 2108.79 914.822 2108.59 926.457 2109.75 937.931 2108.78 1001.43 2103.46 1050.27 2126.9 1084.9 2180.88 1100.03 2204.46 1123.55 2214.86 1150.78 2210 1202.66 2200.73 1249.9 2179.53 1295.96 2148.29 1244.58 2125.16 1192.4 2120.99 1140.79 2117.14 1078.96 2112.54 1035.7 2082.04 1027.37 2019.63 1019.89 1963.58 988.702 1930.5 943.205 1906.86 809.998 1837.65 671.16 1784.73 520.363 1770.29 510.336 1769.33 500.197 1766.87 489.771 1765.52ZM670.776 1620.37C691.582 1690.53 726.327 1746.27 793.653 1775.83 820.394 1787.57 848.565 1796.16 874.945 1808.61 951.32 1844.66 1030.98 1876.58 1076.76 1955.13 1079.28 1959.45 1084.43 1962.8 1089.08 1965.22 1126.34 1984.56 1165.74 1979.05 1207.79 1978.45 1195.71 1951.08 1189.98 1926.52 1186.25 1901.45 1182.2 1874.17 1180.68 1846.41 1169.18 1817.1 1143.73 1774.28 1108.7 1744.34 1059.32 1731.81 1013.02 1720.06 965.699 1715.14 918.694 1707.93 857.558 1698.56 804.456 1667.74 748.854 1643.54 724.555 1632.97 699.924 1622.84 670.776 1620.37ZM237.553 1456.5C252.501 1477.35 270.766 1489.67 282.883 1507.8 312.419 1551.97 343.103 1595.38 372.763 1639.48 394.365 1671.6 423.044 1692.39 460.866 1702.09 524.795 1718.5 591.441 1715.4 661.524 1735.21 632.178 1689.85 614.717 1646.4 596.053 1603.52 589.229 1587.84 580.373 1573.51 566.434 1558.59 550.843 1544.15 532.401 1534.52 512.206 1528.84L267.903 1461.14C259.025 1458.71 249.596 1458.28 237.553 1456.5ZM877.346 1270.74C775.424 1279.92 675.973 1303.56 575.757 1322.73 506.562 1335.96 438.589 1359.05 366.841 1352.78 324.475 1349.08 297.795 1374.73 263.507 1399.76 306.766 1408.04 344.434 1415.66 379.615 1431.09 424.761 1450.9 468.981 1449.47 516.37 1427.27 528.024 1421.31 540.243 1416.25 551.241 1409.26 610.497 1371.62 676.634 1358.3 745.005 1359.67 821.634 1361.21 875.523 1320.11 929.515 1272.67 911.009 1268.23 894.132 1269.22 877.346 1270.74ZM1250.19 1260.95C1190.98 1268.32 1131.69 1264.35 1072.44 1264.43 1054.73 1264.46 1040.03 1268.24 1025.69 1279.57 991.862 1306.28 956.701 1331.3 922.108 1357.04 885.04 1384.61 844.438 1402.79 798.061 1409.16 747.197 1416.14 695.204 1416.05 645.659 1431.75 613.592 1441.9 583.492 1455.9 554.572 1477.51 571.519 1490.16 587.346 1498.53 601.66 1514.03 624.95 1536.52 652.825 1549.99 683.898 1558.68 715.705 1567.57 749.136 1574.63 776.484 1593.47 820.265 1623.62 856.81 1623.59 898.379 1586.18 939.208 1549.43 991.058 1541.09 1045.9 1552.6 1089.34 1561.72 1133 1572.62 1177.32 1553.56 1208.58 1540.12 1241.51 1531.62 1276.11 1534.98 1295.47 1536.87 1308.06 1528.69 1318 1512.71 1342.98 1472.51 1373.39 1437.35 1411.16 1408.04 1431.99 1391.87 1451.23 1372.63 1463.08 1347.11 1459.27 1344.45 1457 1341.62 1454.35 1341.21 1413.21 1334.79 1380.36 1311.5 1347.93 1288.08 1318.37 1266.74 1285.93 1256.5 1250.19 1260.95ZM1098.68 1050.74C1067.46 1053.37 1036.82 1060.97 1007.19 1077.16 997.216 1082.62 985.894 1086.52 974.721 1088.71 925.133 1098.43 875.107 1094.53 825.261 1091.33 786.079 1088.81 746.097 1083.22 708.103 1092.65 623.008 1113.79 593.999 1187.62 559.573 1254.03 564.959 1262.08 569.779 1261.8 574.285 1261.06L667.265 1245.34C768.572 1227.58 869.297 1205.93 973.315 1210.31 1004.78 1211.63 1035.64 1203.43 1064.72 1189.68 1115.6 1165.6 1165.39 1139.6 1212.2 1108.23 1230.36 1096.07 1249.93 1085.61 1267.21 1067.77 1257.42 1065.25 1250.15 1063.39 1239.19 1061.38 1224.04 1058.95 1208.95 1055.98 1193.72 1054.2 1161.73 1050.48 1129.91 1048.12 1098.68 1050.74ZM1243.2 774.501C1213.39 788.126 1190.4 805.86 1167.99 824.766 1129.74 857.037 1087.57 881.19 1036.36 886.022 1005.8 888.906 975.276 892.201 944.838 896.107 880.848 904.326 835.569 942.169 795.142 993.184 787.051 1004.5 774.123 1012.51 768.493 1030.33 818.502 1027.33 864.55 1039.17 911.213 1038.98 956.775 1038.8 995.808 1018.13 1030.35 989.408 1100.31 931.201 1164.61 867.019 1227.16 801.056 1233.66 794.206 1240.38 787.153 1243.2 774.501ZM1765 391 1765 461.204 1698.83 489.736C1672.33 498.169 1645.01 504.12 1616.92 508.023 1585.4 512.406 1551.93 514.489 1527.93 546.014 1502.99 583.965 1466.82 613.311 1440.95 654.431 1479.12 656.532 1513.09 658.124 1545.33 645.522 1584.4 630.25 1622.76 613.439 1660.5 595.34L1765 541.078 1765 611.252 1692.78 646.781C1614.77 683.236 1537.07 719.191 1447.73 720.043 1399.32 720.505 1357.67 741.128 1324.4 778.837 1275.11 834.711 1230.66 895.171 1171.82 942.266 1153.51 956.914 1136.95 973.733 1117.09 991.842 1166.01 990.759 1210.85 995.568 1259.63 1002.74 1323.14 1017.34 1374.02 998.576 1414.69 947.312 1434.22 922.681 1458.21 901.638 1479.19 878.089 1512.57 840.626 1555.51 826.663 1603.89 821.55 1645.68 817.133 1688.28 815.195 1728.08 799.2L1765 777.037 1765 849.738 1728.54 863.96C1695.29 873.975 1660.93 878.899 1626.6 880.464 1550.09 883.949 1503.28 932.154 1459.86 986.543 1459.28 987.26 1460.41 989.347 1461.06 992.133 1479.1 996.304 1497.61 1000.99 1516.29 1004.83 1595.05 1021.02 1673.15 1041.57 1754.58 1039.75L1765 1038.08 1765 1098.9 1752.18 1098.32C1729.9 1098.13 1707.67 1098.73 1685.34 1096.09 1611.29 1087.35 1539.66 1065.92 1466.13 1054.97 1440.72 1051.18 1413.84 1036.84 1388.6 1056.54 1334.51 1098.77 1275.36 1133.41 1218.25 1171.13 1199.82 1183.31 1178.83 1192.12 1158.34 1212.36 1199.12 1204.35 1234.54 1205.01 1269.71 1204.14 1320.22 1202.89 1362.83 1225.4 1402.93 1254.7 1467.25 1301.69 1496.39 1295.91 1540.36 1230.5 1580.67 1170.53 1621.49 1152.38 1691.42 1185.36 1698.16 1188.54 1704.78 1193.09 1713.17 1189.31 1726.16 1183.46 1739.27 1177.82 1751.56 1170.24L1765 1157.87 1765 1321.92 1723.11 1273.23C1713.3 1264.06 1703.16 1263.96 1691.43 1269.68 1669.3 1280.46 1646.77 1290.43 1621.15 1302.03 1566.84 1319.12 1520.91 1346.43 1499.53 1403.73 1508.61 1409.16 1520.1 1409.77 1531.5 1409.65 1571.56 1409.23 1611.18 1413.78 1650.88 1418.5 1687.47 1422.86 1724.35 1424.74 1761.02 1428.49L1765 1427.73 1765 1486.31 1578.62 1468.44C1560.2 1467.09 1541.78 1464.71 1523.35 1464.6 1455.39 1464.22 1397.06 1482.93 1362.78 1547.99 1359.24 1554.7 1353.66 1560.39 1348.72 1566.3 1333.11 1585 1314.52 1596.4 1288.65 1593.85 1251.21 1590.15 1215.13 1595.7 1180.7 1611.9 1163.83 1619.85 1145.57 1621.59 1126.73 1621.79 1091.6 1622.16 1058.29 1611.77 1024.52 1605.35 980.403 1596.98 950.266 1618.56 915.612 1644.2 944.787 1654.95 971.019 1655.84 996.549 1659.64 1077.44 1671.69 1152.07 1693.54 1205.49 1763.27 1233.66 1800.04 1281.8 1804.48 1322.92 1781.8 1355.64 1763.76 1382.9 1738.83 1409.44 1712.93 1450.82 1672.55 1500.01 1646.03 1557.06 1637.09 1615.58 1627.92 1673.48 1616.78 1730.1 1599.2 1744.47 1594.74 1755.25 1591.4 1763.34 1587.98L1765 1586.84 1765 1651.62 1662.03 1676.63C1624.16 1684.44 1586.06 1691.21 1547.87 1697.71 1487.62 1707.97 1450.77 1751.09 1413.53 1796.5 1433.08 1803.07 1449.93 1803.32 1470.88 1803.77 1492.49 1808.97 1514.68 1812.51 1535.6 1819.73 1575.59 1833.52 1608.09 1825.79 1638.15 1795.3 1675.92 1756.97 1715.47 1719.75 1764.99 1696.63 1764.99 1696.63 1765 1696.62 1765 1696.62L1765 1764.96 1764.36 1765.4C1729.39 1788.31 1698.9 1816.58 1669.47 1846.01 1643.26 1872.24 1613.22 1888.82 1570.5 1885.06 1557.77 1882.32 1544.87 1880.17 1532.33 1876.7 1502.69 1868.5 1473.17 1859.09 1442.29 1857.79 1375.67 1855 1308.81 1862.11 1240.31 1852.17 1242.93 1878.15 1244.54 1903.39 1253.25 1927.07 1262.15 1951.29 1287.73 1963.9 1313.18 1959.02 1323.71 1957 1334.3 1955.15 1344.77 1952.84 1422.47 1935.71 1498.69 1938.93 1573.83 1966.88 1635.76 1989.92 1697.18 2014.65 1762.28 2028.27L1765 2028.09 1765 2084.47 1671.26 2064.22C1640.33 2055.24 1610.05 2044.18 1580.45 2031.23 1502.4 1997.09 1423.31 1992.56 1341.45 2012.92 1270.4 2030.59 1198.93 2044.97 1124.9 2033.71 1116.76 2032.47 1107.49 2028.36 1097.65 2032.97 1107.22 2057.72 1127.48 2060.63 1148.59 2062.44 1212.04 2067.9 1276.41 2069.56 1335.88 2095.77 1374.02 2112.58 1411.55 2111.84 1450.68 2101.42 1514.59 2084.41 1579.13 2077.92 1648.24 2094.89 1671.63 2100.29 1694.43 2107.74 1717.19 2115.53L1765 2131.23 1765 2198.65 1653.23 2155.26C1619.65 2144.31 1584.58 2136.61 1548.79 2140.48 1505.19 2145.2 1462.56 2155.74 1420 2166.01 1346.14 2183.83 1284.4 2230.22 1211.2 2252.89 1219.31 2261.1 1227.48 2263.37 1235.31 2266.29 1292.28 2287.5 1348.77 2284.79 1403.92 2260.74 1505.32 2216.53 1609.21 2185.86 1725.93 2196.83 1735.51 2196.9 1744.88 2198.51 1754.23 2200.38L1765 2202.31 1765 2266.57 1759.54 2263.76C1670.83 2238.43 1586.01 2251.85 1502.44 2285.14 1470.99 2297.67 1438.94 2308.71 1407.6 2321.5 1346.67 2346.36 1285.93 2343.03 1224.95 2322.21 1208.2 2316.49 1190.64 2312.51 1174.75 2304.98 1111.9 2275.2 1047.53 2275.06 980.916 2289.43 943.339 2297.54 904.533 2299.66 866.248 2291.77 835.796 2285.49 810.21 2270.52 791.801 2244.84 785.075 2235.46 778.704 2225.77 772.875 2215.8 746.661 2171 707.418 2148.11 655.995 2144.21 576.959 2138.21 509.408 2107.82 452.695 2051.37 416.424 2015.27 400.879 1972.76 399.43 1922.9 398.199 1880.65 404.418 1838.16 395.433 1796.12 390.529 1773.19 381.979 1751.81 368.007 1733.02 329.819 1681.68 292.848 1629.47 259.057 1575.17 210.159 1496.59 137.504 1457.89 48.1842 1445.71 40.6008 1444.68 33.0875 1442.87 25.662 1440.95L19.9999 1426.57 30.0316 1393.12C34.4238 1394.66 42.1614 1390.62 46.5536 1392.17 95.4599 1396.43 133.967 1386.28 166.619 1377.53 199.271 1368.77 221.6 1358.89 242.466 1339.63 282.481 1302.69 330.801 1292.64 381.313 1295.32 443.804 1298.62 483.634 1270.15 510.999 1217.73 515.279 1209.54 520.738 1201.88 524.342 1193.42 553.064 1125.97 601.962 1076.12 659.724 1032.81 702.205 1000.96 742.608 966.563 777.215 925.439 827.167 866.085 892.73 837.562 970.058 835.984 1028.46 834.79 1080.16 815.324 1124.92 778.221 1173.95 737.578 1227.94 708.926 1292.12 700.48 1321.52 696.611 1344.8 680.898 1361.3 655.028 1392.48 606.119 1431.78 563.514 1469.18 519.478 1509.09 472.485 1562.47 454.222 1621.63 447.147 1672.85 441.014 1719.9 423.265 1762.57 393.512L1765 391Z" fill="#AEAEAE" fill-rule="evenodd"/><path d="M1723 217.501C1723 194.028 1742.03 175 1765.5 175L1765.5 175C1788.97 175 1808 194.028 1808 217.501L1808 2410.5C1808 2433.97 1788.97 2453 1765.5 2453L1765.5 2453C1742.03 2453 1723 2433.97 1723 2410.5Z" fill="#AEAEAE" fill-rule="evenodd"/><path d="M635.35 1375.04C682.809 1364.94 709.069 1366.25 741.798 1370.19 770.85 1381.2 800.687 1390.93 831.72 1398.7 902.888 1416.52 971.598 1421.73 1039.87 1405.36 1099.39 1391.09 1171.25 1386.7 1225.53 1382.59 1279.8 1378.48 1337.17 1380.11 1365.5 1380.73L1503.92 1389.45C1537.28 1390.25 1559.54 1390.6 1595.91 1390.57L1722.14 1389.26 1728.12 1390.4 1805.34 1379.25 1814.71 1438.46C1777.41 1435.55 1676.56 1442.67 1639.27 1439.75 1590.71 1440.15 1537.93 1441.11 1492.84 1440.39 1447.75 1439.68 1406.4 1439.53 1368.73 1435.45 1299.29 1432.44 1310.63 1427.48 1256.52 1430.98 1202.41 1434.48 1102.06 1435.46 1044.06 1456.43 988.888 1461.9 965.376 1469.45 912.177 1462.38L724.873 1413.98C669.434 1412.42 629.478 1433.4 582.342 1450.76 545.473 1464.87 523.242 1475.01 489.661 1479.23 456.081 1483.46 429.11 1481.12 380.86 1476.11L203.57 1433.57C163.311 1429.53 69.1688 1446.77 37.3942 1441.92 5.61951 1437.08 10.0611 1414.77 12.9183 1404.51 15.7755 1394.26 11.7917 1380.58 54.5365 1380.39 97.2812 1380.2 202.209 1382.16 269.389 1403.38 330.547 1422.71 393.298 1431.47 457.045 1430.81 503.637 1430.32 610.274 1398.29 635.35 1375.04Z" fill="#3A3A3A" fill-rule="evenodd"/><path d="M2181.01 1722.25C2185.39 1754.18 2181.78 1782.59 2183.61 1810.79 2189.36 1899.56 2225.53 1940.83 2299.89 1956.25 2327.62 1962.01 2355.66 1964.06 2384.02 1965.42 2428.82 1967.58 2474.68 1966.97 2518.14 1992.25 2540.38 2003.29 2557.82 2019.7 2573.02 2039.19 2601.53 2075.76 2619.08 2118.51 2641.09 2158.68 2672.34 2215.73 2719.98 2243.25 2784.04 2244.5 2847.11 2245.73 2900.08 2266.33 2935.02 2322.35 2948.26 2343.57 2968.16 2357.4 2992.32 2360.47 3028.84 2365.11 3065.7 2365.01 3103.66 2350.21 3073.82 2323.04 3054.48 2290.32 3033.87 2258.88 2994.67 2199.09 2938.28 2171.94 2869.4 2166.19 2818.24 2161.92 2769.14 2152.51 2730.06 2115.28 2704.48 2090.89 2683.32 2062.72 2664.58 2033.15 2618 1959.69 2557.78 1903.12 2475.25 1872.3 2427.65 1854.53 2386.8 1826.73 2351.73 1789.86 2334.98 1772.26 2316.84 1755.51 2292.54 1748.71 2256.04 1738.49 2217.43 1738.41 2181.01 1722.25ZM2213.85 1449.42C2195.39 1447.34 2175.67 1448.26 2154.49 1452.67 2125.48 1458.71 2095.8 1455.44 2062.72 1457.65 2091.98 1489.23 2116.66 1519.39 2135.07 1557.61 2142.78 1575.58 2152.46 1592.97 2157.84 1611.62 2173.32 1665.25 2211.01 1688.39 2263.57 1693.25 2310.05 1697.54 2350.46 1713.93 2383.67 1748.53 2413.18 1779.27 2446.1 1805.93 2487.48 1820.61 2564.85 1848.06 2626.37 1896.92 2675.42 1962.34 2701.74 1997.44 2725.73 2034.26 2754.33 2067.67 2767.37 2082.91 2782.27 2090.99 2802.34 2084.78 2845.81 2071.32 2871.57 2036.32 2902.53 2005.11 2897.89 2002.04 2895.9 2000.11 2893.53 1999.25 2821.57 1973.28 2777.61 1922.67 2761.12 1848.21 2752.41 1808.89 2728.72 1783.34 2690.62 1772.11 2633.31 1755.22 2593.14 1718.44 2565.91 1666.66 2544.43 1625.8 2511.56 1601.96 2465.81 1597.3 2418.92 1592.53 2381.32 1571.9 2351.6 1535.62 2313.33 1488.88 2269.24 1455.67 2213.85 1449.42ZM2420.79 1371.6C2373.47 1378.5 2329.28 1393.85 2285.8 1419.5 2330.57 1437.71 2363.16 1466.39 2391.57 1500.65 2412.83 1526.28 2438.14 1545.01 2473.12 1547.88 2535.47 1552.98 2580.1 1584.84 2608.59 1640.12 2610.74 1644.3 2613.78 1648.02 2616.12 1652.12 2636.28 1687.62 2664.74 1712.72 2704.47 1724.56 2763.06 1742.03 2799.64 1779.01 2812.23 1840.7 2824.75 1902.02 2865.55 1938.37 2924.39 1956.67 2938.6 1961.09 2947.74 1959 2958.09 1948.05 2985.43 1919.12 3013.76 1891.09 3042.51 1863.55 3060.67 1846.16 3080.29 1830.31 3101.13 1812.13 3090.98 1809.14 3083.96 1807.04 3076.93 1805 3047.86 1796.58 3017.91 1791.33 2989.6 1780.14 2952.25 1765.38 2925.42 1742.01 2916.58 1700.46 2909.96 1669.33 2898.13 1639.89 2878.22 1614.27 2872.65 1607.1 2866.58 1601.25 2857.64 1598.88 2762.04 1573.62 2685.51 1518.77 2616.63 1449.34 2564.72 1397 2502.23 1363.64 2420.79 1371.6ZM2343.92 924.313C2296.09 933.027 2251.23 940.629 2207.4 953.819 2156.72 969.076 2124.01 1001.86 2109.37 1052.43 2104.72 1068.51 2101.99 1085.13 2098.31 1105.11 2090.94 1173.13 2091.36 1242.89 2051.64 1304.01 2082.44 1293.39 2108.73 1278.91 2133.11 1260.34 2178.41 1225.81 2209.76 1179.08 2244.53 1135.36 2274.82 1097.28 2302.55 1057.3 2320.09 1011.46 2330.52 984.204 2340.69 956.653 2343.92 924.313ZM2583.78 555.34C2575.73 556.297 2568.9 558.555 2562.35 561.45 2535.63 573.241 2516.71 595.099 2497.47 615.446 2465.25 649.517 2426.18 667.122 2380.81 674.031 2359.58 677.263 2338.59 682.092 2317.54 686.435 2288.17 692.496 2266.36 708.123 2251.67 735.009 2222.7 788.032 2218.04 848.711 2193.1 905.982 2244.07 893.628 2291.05 882.238 2341.19 870.204 2354.58 868.218 2364.98 862.662 2371.12 849.444 2388.78 811.484 2415.65 780.969 2447.18 753.604 2509.52 699.491 2542.59 624.869 2583.78 555.34ZM2752.49 539.836C2734.97 539.818 2717.42 540.561 2699.91 540.435 2671.54 540.232 2649.21 552.262 2634.42 577.077 2619.91 601.412 2605.34 625.708 2590.86 650.057 2556.22 708.298 2518.14 763.522 2464.17 806.36 2448.8 818.556 2435.54 834.243 2426.37 854.991 2440.38 854.821 2452.03 853.941 2463.79 851.333 2513.22 840.402 2545.47 807.819 2574.27 768.611 2623.81 701.173 2687.47 660.326 2775.53 667.005 2824.78 670.739 2873.41 665.914 2921.25 651.261 2975.87 634.531 3022.62 606.838 3061.77 562.569 3029.86 564.799 3000.53 565.447 2970.9 562.31 2916.79 556.585 2863.16 546.456 2804.93 543.8 2787.51 540.634 2770.01 539.855 2752.49 539.836ZM3412.76 16.0169C3421.05 16.3094 3428.74 20.4355 3434.67 28.2383 3445.81 42.888 3440.13 60.047 3419.89 76.3954 3377.36 110.746 3335.14 145.467 3292.84 180.105 3284.64 186.82 3276.71 193.855 3266.97 202.183 3277.55 206.517 3286.33 205.062 3294.72 204.794 3308.9 204.344 3318.93 205.216 3319.02 224.593 3319.11 243.646 3310.7 248.183 3294.63 247.028 3293.96 246.979 3293.26 247.141 3292.6 247.023 3242.88 238.111 3206.08 258.093 3175.28 296.194 3124.62 358.888 3056.68 381.018 2977.75 378.694 2937.45 377.506 2896.79 374.348 2856.54 381.959 2845.73 384.002 2835.51 387.189 2826.43 393.133 2789.26 417.445 2762.04 451.601 2731.88 487.246 2773.07 490.668 2811.08 493.336 2848.97 497.102 2889.11 501.088 2929.19 505.763 2969.21 510.77 3036.72 519.213 3101.02 517.351 3154.67 466.012 3175.1 446.46 3199.99 430.577 3227.34 422.781 3291.85 404.393 3336.44 360.128 3378.69 312.08 3391.18 297.885 3403.02 283.114 3415.8 269.198 3426.08 258.011 3438.64 253.742 3451.56 264.604 3464.09 275.138 3464.03 289.658 3454.87 301.016 3404.91 363.011 3356.74 427.086 3278.05 456.994 3250.71 467.386 3223.18 478.698 3200.99 501.121 3211.49 512.778 3224.95 509.932 3235.98 512.425 3306.27 528.315 3373.81 554.212 3444.53 568.615 3464.92 572.767 3472.43 586.179 3467.35 602.475 3461.7 620.559 3448.56 621.556 3431.69 618.097 3366.22 604.669 3303.09 583.272 3239.28 564.077 3209.86 555.226 3179.36 556.086 3148.99 556.475 3138.35 556.613 3131.35 561.876 3125.41 569.848 3058.2 660.103 2964.16 702.284 2856.22 717.68 2829.72 721.459 2802.07 720.591 2775.28 718.174 2710.22 712.307 2663.74 744.348 2625.35 790.733 2602.14 818.779 2581.25 848.569 2550.64 869.527 2556.68 879.011 2565.65 877.892 2573.11 879.493 2652.81 896.567 2732.85 912.612 2814.82 910.268 2907.53 907.616 2996.47 887.675 3079.34 844.534 3101.73 832.873 3120.21 816.103 3138.03 798.352 3165.74 770.727 3192.91 742.349 3228.16 721.191 3245.63 710.535 3262.86 702.787 3280.57 696.097 3297.86 689.565 3316.03 694.422 3320.49 707.779 3326.47 725.704 3316.4 736.562 3300.99 742.21 3238.13 765.245 3195.58 813.694 3151.53 860.364 3149.7 862.301 3148.28 864.665 3146.91 866.976 3146.26 868.063 3146.18 869.494 3145.25 873.034 3170.08 887.607 3198.16 893.335 3226.36 898.169 3240.92 900.659 3255.8 901.218 3270.52 902.828 3290.34 904.988 3302.13 915.775 3300.3 931.734 3298.11 950.823 3284.33 954.687 3267.77 953.912 3216.09 951.504 3166.77 937.617 3118.22 921.398 3089.35 911.756 3062.19 911.399 3033.41 921.56 2951.9 950.324 2867.46 963.57 2781.23 960.432 2705.1 957.667 2630.21 943.46 2555.85 927.289 2510.24 917.376 2464.45 910.852 2417.56 913.127 2405.46 913.715 2399.24 917.157 2396.86 929.629 2371.22 1064.07 2289.24 1165.91 2202.27 1264.81 2199.25 1268.25 2194.86 1270.86 2195.11 1276.58 2199.83 1281.86 2204.75 1278.18 2209.7 1276.87 2293.93 1254.52 2368.9 1214.39 2436 1159.12 2445.38 1151.39 2455.64 1144.52 2464.1 1135.89 2526.67 1072.06 2602.97 1060.12 2687.99 1071.23 2740.18 1078.06 2793.12 1074.01 2844.25 1058.75 2905.71 1040.4 2967.54 1042.81 3030.37 1050.88 3087.77 1058.26 3145.74 1063.29 3202.68 1044.71 3233.43 1034.67 3259.19 1016.29 3285.43 998.518 3325.41 971.445 3367.27 948.95 3415.8 941.096 3435.47 937.917 3454.61 938.302 3473.92 943.022 3485.29 945.803 3491.76 952.376 3492.37 963.903 3492.98 975.398 3487.51 983.41 3476.31 986.686 3470.55 988.373 3464.39 990.567 3458.62 990.088 3406.06 985.737 3362.62 1008.15 3321.88 1037.13 3272.86 1072.02 3221.14 1099.09 3160.03 1105.77 3116.05 1110.58 3072.37 1108.41 3029.03 1102.31 2971.13 1094.16 2913.77 1090.44 2856.92 1107.75 2786.34 1129.25 2714.28 1126.79 2642.39 1119.24 2589.86 1113.72 2547.42 1131.4 2509.63 1165.98 2442.23 1227.68 2367.29 1277.36 2280.26 1307.29 2213.21 1330.35 2144.02 1344.91 2074.8 1359.45 2038.87 1367 2002.7 1374 1965.46 1391.29 1992.57 1400.55 2017.17 1402.23 2041.54 1405.33 2135.55 1417.29 2221.69 1390.55 2305.96 1352.98 2353.29 1331.87 2403.56 1322.08 2455.23 1321.33 2492.14 1320.79 2528.44 1328.57 2560.33 1346.64 2607.6 1373.43 2655.55 1369.51 2705.35 1358.86 2749.39 1349.45 2790.43 1333.01 2829.43 1310.98 2909.89 1265.55 2996.07 1251.53 3087.23 1262.7 3119.93 1266.7 3152.84 1269.45 3185.74 1271.21 3243.31 1274.29 3295.95 1255.5 3347.2 1231.98 3393.3 1210.82 3440.98 1198.46 3492.23 1202.48 3506.46 1203.59 3520.24 1205.9 3533.81 1210.05 3546.46 1213.92 3553.72 1222.3 3551.65 1235.53 3549.6 1248.63 3540.55 1253.9 3527.12 1254.82 3500.87 1256.61 3475.43 1248.04 3448.6 1252.32 3422.16 1256.53 3397.68 1264.65 3373.58 1275.2 3330.94 1293.87 3288.22 1311.83 3241.83 1319.9 3201.13 1326.97 3161.17 1320.45 3121.04 1316.62 3046.41 1309.51 2971.72 1299.92 2899.95 1332.24 2893.4 1335.18 2885.48 1336.1 2879.76 1345.68 2928.24 1361.15 2974.67 1380.15 3024.37 1389.12 3044.44 1392.74 3064.22 1394.3 3084.58 1390.47 3103.29 1386.96 3117.95 1397.37 3119.01 1412.82 3120.11 1428.93 3108.42 1438.74 3088.52 1440.58 3019.32 1446.99 2954.9 1426.39 2891.22 1404.4 2841.67 1387.29 2793.97 1380.71 2743.74 1402.1 2719.27 1412.52 2691.76 1414.9 2664.84 1417.58 2662.97 1427.84 2671.33 1430.97 2676.04 1435.74 2754.84 1515.6 2852.55 1553.63 2962.11 1568.18 3033.48 1577.67 3100.01 1563.14 3165.42 1537.62 3233.47 1511.07 3299.89 1481.46 3358.97 1437.3 3380.24 1421.4 3405.15 1412.23 3431.52 1407.88 3437.43 1406.9 3443.57 1406.27 3449.51 1406.68 3462.12 1407.56 3472.51 1413.42 3474.14 1426.56 3475.75 1439.53 3467.63 1448.14 3455.5 1452.14 3442.71 1456.36 3429.62 1459.63 3416.84 1463.87 3396.54 1470.61 3381.13 1485.38 3364 1497.24 3335.58 1516.91 3306.23 1534.57 3273.18 1545.51 3265.23 1548.15 3257.79 1552.32 3246.68 1557.34 3311.02 1567.55 3369.59 1587.72 3431.71 1583.82 3442.46 1583.15 3453.28 1584.26 3463.9 1581.21 3469.84 1579.51 3477.01 1579.18 3481.58 1582.99 3494.98 1594.14 3508.43 1604.5 3528.32 1604.33 3514.46 1625.91 3493.41 1627.42 3473.58 1630.84 3412.48 1641.39 3352.5 1631.4 3293.43 1617.49 3228.2 1602.14 3163.4 1596.71 3097.32 1610.73 3049.51 1620.87 3001.18 1622.6 2952.67 1615.21 2950.19 1614.84 2947.52 1615.77 2941.98 1616.46 2954.61 1644.61 2957.93 1674.56 2970.27 1700.93 2983.76 1729.77 3013.77 1737.6 3042.04 1745.06 3077.18 1754.34 3112.64 1762.39 3147.84 1771.46 3162.64 1775.27 3177.13 1775.54 3191.69 1771.17 3286.73 1742.64 3372.62 1766.17 3453.65 1817.22 3459.34 1820.81 3464.59 1825.11 3470 1829.14 3483.25 1839 3484.08 1852.53 3477.07 1865.17 3469.81 1878.27 3456.08 1876.35 3444.61 1871.5 3434.18 1867.08 3424.8 1860.05 3415.16 1853.84 3311.62 1787.06 3212.05 1800.33 3116.94 1866.27 3077.27 1893.77 3045.63 1929.83 3011.53 1965.03 3023.93 1978.17 3039.46 1972.64 3052.47 1974.39 3125.07 1984.14 3197.26 1998.54 3271.02 1997.17 3294.6 1996.73 3317.85 1991.62 3341.62 1992.95 3367.17 1994.38 3392.7 1992.9 3418.37 1996.45 3448.74 2000.67 3478.68 1996.82 3506.95 1982.31 3525.93 1972.56 3539.48 1976.92 3546.69 1991.74 3553.98 2006.74 3548.51 2018.93 3529.43 2028.69 3494.14 2046.73 3457.13 2053.82 3417.75 2045.92 3411.95 2044.75 3405.83 2045.22 3396.73 2044.78 3419.23 2076.91 3441.32 2104.7 3478.52 2115.58 3491.45 2119.37 3504.54 2123.03 3516.88 2128.32 3532.51 2135.03 3536.79 2148.38 3531.28 2163.63 3525.89 2178.54 3512.81 2181.59 3499.49 2176.9 3452.92 2160.51 3406.44 2144.01 3374.89 2101.96 3346.86 2064.61 3307.53 2049.71 3261.94 2048.67 3193.14 2047.1 3125.46 2034.83 3057.33 2026.89 3031.98 2023.93 3006.75 2019.87 2981.43 2016.55 2972.43 2015.37 2964.15 2016.88 2957.18 2023.77 2927.55 2053.06 2899.65 2084.1 2865 2112.19 2898.05 2119.49 2928.03 2126.08 2957.98 2132.76 2999.08 2141.91 3032.3 2164.64 3052.49 2200.44 3086.19 2260.21 3139.27 2261.15 3196.51 2255.32 3237.98 2251.1 3278.45 2240.02 3320.63 2240.13 3373.26 2240.26 3422.75 2256.46 3473.52 2266.19 3486.06 2268.59 3498.66 2270.68 3511.21 2273.09 3525.89 2275.93 3534.03 2284.66 3532.97 2299.91 3531.83 2316.19 3521.66 2323.94 3506.08 2324.19 3479.45 2324.61 3454.44 2315.6 3428.95 2309.63 3385.68 2299.5 3342.86 2286.18 3297.53 2291.91 3245.53 2298.49 3193.83 2308.11 3139.1 2303.51 3141.98 2316.94 3150.24 2323.47 3157.75 2329.15 3197.74 2359.36 3238.21 2389.14 3292.25 2386.4 3317.45 2385.12 3340.43 2374.15 3364.83 2369.13 3414.71 2358.86 3459.53 2374.13 3502.9 2395.88 3513.71 2401.3 3519.52 2411.72 3515.02 2424.97 3510.67 2437.76 3501.3 2442.22 3488.35 2441.99 3475.62 2441.77 3464.85 2436.05 3454.04 2430.75 3421.47 2414.8 3387.63 2411.39 3353.94 2424.19 3296.47 2446.02 3241.56 2441.08 3188.02 2412.79 3148.05 2391.67 3107.77 2404.38 3067.39 2410.65 2992.72 2422.24 2927.93 2407.67 2882.2 2341.14 2856.16 2303.26 2815.3 2294.12 2773.64 2292.54 2696.05 2289.59 2638.31 2255.85 2599.99 2188.79 2585.26 2163.01 2570.96 2136.92 2557.92 2110.26 2525.79 2044.6 2471.68 2016.33 2400.8 2016.39 2359.54 2016.43 2318.65 2013.5 2278.4 2004.2 2200.28 1986.15 2147.89 1928.01 2135.81 1848.92 2130.66 1815.21 2134.22 1781.48 2131.84 1747.9 2125.18 1653.56 2101.42 1565.35 2032.1 1496.11 1990.62 1454.68 1937.83 1437.19 1880.49 1432.61 1863.03 1431.21 1845.38 1432.34 1827.81 1432.37L1805 1438.08 1805 1377.77 1818.6 1381.01C1917.98 1379.98 2029.63 1311.55 2039.68 1183.94 2044.46 1123.17 2047.73 1061.42 2073.69 1004.22 2080.73 988.725 2087.74 973.439 2099.5 961 2142.2 915.864 2154.94 857.135 2172.47 800.594 2176.86 786.443 2180.99 772.178 2184.41 757.768 2201.01 687.821 2248.5 651.079 2315.48 635.18 2329.89 631.757 2344.31 628.287 2358.87 625.647 2402.58 617.729 2440.65 600.123 2471.01 566.32 2507.35 525.854 2552.27 500.46 2606.98 493.218 2652.25 487.23 2686.87 462.448 2715.82 428.546 2723.72 419.298 2732.48 410.653 2739.37 400.711 2776.81 346.728 2831.05 328.076 2893.47 326.876 2927.24 326.227 2961.03 326.839 2994.81 326.669 3051.13 326.385 3096.47 306.149 3134.93 262.561 3161.62 232.322 3173.56 202.657 3170.38 163.019 3167.36 125.416 3169.61 87.3833 3169.8 49.541 3169.83 42.2959 3168.1 34.6684 3172.32 27.9626 3212.36 22.8779 3212.36 22.8779 3212.37 61.4012 3212.37 95.7483 3212.37 130.099 3212.37 164.56 3224 166.311 3229.03 158.912 3235.04 154.277 3287.48 113.84 3338 71.1037 3387.21 26.7943 3395.57 19.2654 3404.47 15.7244 3412.76 16.0169Z" fill="#00674F" fill-rule="evenodd"/></g></svg>