<svg id="Layer_1" data-name="Layer 1" xmlns="http://www.w3.org/2000/svg" viewBox="0 0 939.96 431.4"><defs><style>.cls-1,.cls-2{fill:#434242;}.cls-1,.cls-3,.cls-4,.cls-5{fill-rule:evenodd;}.cls-3{fill:#e1053f;}.cls-4{fill:#820425;}.cls-5{fill:#4472c4;}.cls-6{fill:none;stroke:#404040;stroke-miterlimit:10;stroke-width:2.25px;}</style></defs><path class="cls-1" d="M488.08,121.63a4.318,4.318,0,0,0-3.32,1.03,5.422,5.422,0,0,0-.91,3.59v24.58a5.5,5.5,0,0,0,.91,3.61c.6.7,1.71,1.04,3.32,1.04h1.71q8.295,0,12.49-4.06t4.2-13.4c0-4.17-.64-7.46-1.93-9.85a10.788,10.788,0,0,0-5.59-5.07,25.024,25.024,0,0,0-9.24-1.47Zm-7.06-9.79h11.41a37.036,37.036,0,0,1,14.29,2.46,18.429,18.429,0,0,1,9.15,8.23q3.255,5.775,3.25,15.34,0,14.22-7.03,20.8t-19.66,6.57H481.02a13.389,13.389,0,0,1-5.78-.97,5.186,5.186,0,0,1-2.68-3.05,19.138,19.138,0,0,1-.72-5.96V121.82a19.782,19.782,0,0,1,.71-6.03,4.967,4.967,0,0,1,2.65-3.02A14.068,14.068,0,0,1,481.02,111.84Z" transform="translate(-9.96 -11.04)"/><path class="cls-1" d="M578.48,114.96a1.4,1.4,0,0,1,.89.37,25.059,25.059,0,0,1,4.59,4.42,1.577,1.577,0,0,1,.31.58,3.726,3.726,0,0,1,.06.8v5.98h6.6a2.039,2.039,0,0,1,1.54.46,2.3,2.3,0,0,1,.43,1.58v4.57a2.3,2.3,0,0,1-.43,1.58,2.039,2.039,0,0,1-1.54.46h-6.6v15.39a7.329,7.329,0,0,0,1.12,4.43,3.725,3.725,0,0,0,3.2,1.51,5.822,5.822,0,0,0,2.2-.41,3.722,3.722,0,0,1,.93-.26.469.469,0,0,1,.41.21,3.349,3.349,0,0,1,.34.65l2.16,5.75a2.455,2.455,0,0,1,.15.6.816.816,0,0,1-.6.74,20.672,20.672,0,0,1-3.48,1.19,24.151,24.151,0,0,1-5.72.52q-12.45,0-12.45-12.89V135.76h-4.21a2.05,2.05,0,0,1-1.55-.46,2.3,2.3,0,0,1-.43-1.58v-4.57a2.3,2.3,0,0,1,.43-1.58,2.05,2.05,0,0,1,1.55-.46h4.21v-5.98a4.736,4.736,0,0,1,.05-.82,1.863,1.863,0,0,1,.32-.56,26.4,26.4,0,0,1,4.58-4.42A1.661,1.661,0,0,1,578.48,114.96Z" transform="translate(-9.96 -11.04)"/><path class="cls-1" d="M548.39,147.96a28.654,28.654,0,0,0-7.53.76,6.842,6.842,0,0,0-3.59,1.99,4.688,4.688,0,0,0-.93,2.91q0,3.825,4.65,3.83a7.408,7.408,0,0,0,4.97-1.58,7.6,7.6,0,0,0,2.43-3.78Zm-5.17-21.84q8.415,0,12.55,4.06,4.155,4.05,4.15,12.2v21.06a1.818,1.818,0,0,1-.41,1.24,1.65,1.65,0,0,1-1.3.47h-5.58a3.159,3.159,0,0,1-1.11-.17,1.9,1.9,0,0,1-.82-.65l-2.31-2.98h-.26q-3.27,4.725-11.23,4.73a13.606,13.606,0,0,1-6.32-1.38,9.618,9.618,0,0,1-4.13-3.98,12.428,12.428,0,0,1-1.45-6.17,11.9,11.9,0,0,1,2.01-6.96q2.01-2.91,7.18-4.69t14.28-2.05c0-2.2-.56-3.82-1.68-4.83a7.323,7.323,0,0,0-5.09-1.53,10.981,10.981,0,0,0-4.47.82,14.986,14.986,0,0,0-2.93,1.64,1.5,1.5,0,0,1-.58.33,1.591,1.591,0,0,1-.69,0,9.371,9.371,0,0,1-1.84-.43c-.63-.21-1.54-.52-2.73-.94-.42-.18-.65-.43-.67-.75a7.532,7.532,0,0,1,.22-1.49,18.96,18.96,0,0,1,.45-1.91,10.424,10.424,0,0,1,.56-1.62,2.407,2.407,0,0,1,.42-.62,7.216,7.216,0,0,1,.69-.57,9.727,9.727,0,0,1,2.23-1.14,25.192,25.192,0,0,1,4.41-1.17A35.072,35.072,0,0,1,543.22,126.12Z" transform="translate(-9.96 -11.04)"/><path class="cls-1" d="M621.79,147.96a28.771,28.771,0,0,0-7.55.76,6.916,6.916,0,0,0-3.61,1.99,4.688,4.688,0,0,0-.93,2.91q0,3.825,4.67,3.83a7.417,7.417,0,0,0,4.98-1.58,7.549,7.549,0,0,0,2.44-3.78Zm-5.19-21.84q8.445,0,12.6,4.06t4.16,12.2v21.06a1.818,1.818,0,0,1-.41,1.24,1.659,1.659,0,0,1-1.31.47h-5.59a3.259,3.259,0,0,1-1.12-.17,1.84,1.84,0,0,1-.82-.65l-2.32-2.98h-.26q-3.285,4.725-11.27,4.73a13.691,13.691,0,0,1-6.34-1.38,9.642,9.642,0,0,1-4.14-3.98,12.43,12.43,0,0,1-1.46-6.17,11.832,11.832,0,0,1,2.02-6.96q2.01-2.91,7.2-4.69t14.33-2.05c0-2.2-.56-3.82-1.68-4.83a7.408,7.408,0,0,0-5.12-1.53,10.981,10.981,0,0,0-4.47.82,14.639,14.639,0,0,0-2.95,1.64,1.5,1.5,0,0,1-.58.33,1.594,1.594,0,0,1-.69,0,9.462,9.462,0,0,1-1.85-.43c-.63-.21-1.55-.52-2.74-.94-.42-.18-.65-.43-.67-.75a7.532,7.532,0,0,1,.22-1.49,18.96,18.96,0,0,1,.45-1.91,11.606,11.606,0,0,1,.56-1.62,2.429,2.429,0,0,1,.43-.62,6.138,6.138,0,0,1,.69-.57,9.634,9.634,0,0,1,2.24-1.14,25.337,25.337,0,0,1,4.42-1.17A35.225,35.225,0,0,1,616.6,126.12Z" transform="translate(-9.96 -11.04)"/><path class="cls-1" d="M571.78,227.06a7.882,7.882,0,0,0-4.58,1.17,7.7,7.7,0,0,0-2.6,3.29v15.36a10.428,10.428,0,0,0,6.21,1.64,7.92,7.92,0,0,0,6.59-2.87c1.51-1.9,2.27-4.66,2.27-8.25q0-5.325-2-7.83A7.036,7.036,0,0,0,571.78,227.06Zm-13.06-28.94a1.434,1.434,0,0,1,.93.37,24.27,24.27,0,0,1,4.57,4.43,1.525,1.525,0,0,1,.32.57,3.791,3.791,0,0,1,.06.8v18.04h.15a11.943,11.943,0,0,1,4.42-3.47,16.575,16.575,0,0,1,7.07-1.29,14.817,14.817,0,0,1,8.62,2.4,14.305,14.305,0,0,1,5.17,6.64,26.447,26.447,0,0,1,1.69,9.86q0,21.045-21.39,21.05a40.761,40.761,0,0,1-7.76-.65,26.357,26.357,0,0,1-5.45-1.6,32.307,32.307,0,0,1-4.28-2.29V204.29a3.585,3.585,0,0,1,.06-.81,1.524,1.524,0,0,1,.31-.56,26.052,26.052,0,0,1,4.58-4.43A1.661,1.661,0,0,1,558.72,198.12Z" transform="translate(-9.96 -11.04)"/><path class="cls-1" d="M636.91,199.32a8.723,8.723,0,0,1,4.02.6,21.581,21.581,0,0,1,4.02,3.35,1.342,1.342,0,0,1,.41.89,1.748,1.748,0,0,1-.63,1.12,19.673,19.673,0,0,1-3.76,3.17,3.34,3.34,0,0,1-.91.37,7.52,7.52,0,0,1-1.25.07q-3.645,0-3.65,5.59v4.06h6.74a2.039,2.039,0,0,1,1.54.46,2.328,2.328,0,0,1,.43,1.59v4.58a2.3,2.3,0,0,1-.43,1.58,2.038,2.038,0,0,1-1.54.47h-6.74v27.49a2.039,2.039,0,0,1-.46,1.54,2.3,2.3,0,0,1-1.58.43h-7.67a2.3,2.3,0,0,1-1.58-.43,2.038,2.038,0,0,1-.47-1.54V227.22h-4.39a2.038,2.038,0,0,1-1.54-.47,2.3,2.3,0,0,1-.43-1.58v-4.58a2.328,2.328,0,0,1,.43-1.59,2.039,2.039,0,0,1,1.54-.46h4.39v-4.73a15.776,15.776,0,0,1,1.79-7.67,12.65,12.65,0,0,1,4.86-5.05A13.459,13.459,0,0,1,636.91,199.32Z" transform="translate(-9.96 -11.04)"/><path class="cls-1" d="M477.87,201.96a1.4,1.4,0,0,1,.93.45,28.754,28.754,0,0,1,4.69,5.17,1.747,1.747,0,0,1,.31.68,5.36,5.36,0,0,1,.06.96v33.04a5.536,5.536,0,0,0,.91,3.62,4.319,4.319,0,0,0,3.33,1.04l11.42-.04a6,6,0,0,1,.8.04,1.606,1.606,0,0,1,.54.26,24.3,24.3,0,0,1,4.21,3.84,1.409,1.409,0,0,1,.37.78,1.193,1.193,0,0,1-.37.75,24.611,24.611,0,0,1-4.21,3.83,1.983,1.983,0,0,1-.55.24,3.5,3.5,0,0,1-.79.06H481.03a13.47,13.47,0,0,1-5.79-.97,5.138,5.138,0,0,1-2.67-3.05,18.794,18.794,0,0,1-.73-5.96V209.22a4.99,4.99,0,0,1,.06-.96,2.135,2.135,0,0,1,.31-.68,30.091,30.091,0,0,1,4.69-5.17,2.569,2.569,0,0,1,.5-.36A1.159,1.159,0,0,1,477.87,201.96Z" transform="translate(-9.96 -11.04)"/><path class="cls-1" d="M702.66,217.32a1.741,1.741,0,0,1,1.04.37,22.574,22.574,0,0,1,4.32,4.14,1.678,1.678,0,0,1,.33,1.04v2.75h.15q2.79-7.74,10.04-7.74a7.548,7.548,0,0,1,2.34.26.946.946,0,0,1,.43.28.935.935,0,0,1,.13.58v8.97c0,.52-.22.78-.67.78a1.628,1.628,0,0,1-.67-.15,10.432,10.432,0,0,0-3.61-.59,7.113,7.113,0,0,0-5.96,2.81,12.183,12.183,0,0,0-2.18,7.65v16.24a2.039,2.039,0,0,1-.46,1.54,2.3,2.3,0,0,1-1.58.43h-7.66a2.31,2.31,0,0,1-1.59-.43,2.039,2.039,0,0,1-.46-1.54V223.5a3.726,3.726,0,0,1,.06-.8,1.577,1.577,0,0,1,.31-.58,24.671,24.671,0,0,1,4.58-4.43A1.748,1.748,0,0,1,702.66,217.32Z" transform="translate(-9.96 -11.04)"/><path class="cls-1" d="M531.31,239.4a28.771,28.771,0,0,0-7.55.76,6.916,6.916,0,0,0-3.61,1.99,4.688,4.688,0,0,0-.93,2.91q0,3.825,4.67,3.83a7.417,7.417,0,0,0,4.98-1.58,7.549,7.549,0,0,0,2.44-3.78Zm-5.19-21.84q8.445,0,12.6,4.06t4.16,12.2v21.06a1.818,1.818,0,0,1-.41,1.24,1.659,1.659,0,0,1-1.31.47h-5.59a3.259,3.259,0,0,1-1.12-.17,1.84,1.84,0,0,1-.82-.65l-2.32-2.98h-.26q-3.285,4.725-11.27,4.73a13.691,13.691,0,0,1-6.34-1.38,9.642,9.642,0,0,1-4.14-3.98,12.43,12.43,0,0,1-1.46-6.17,11.832,11.832,0,0,1,2.02-6.96q2.01-2.91,7.2-4.69t14.33-2.05c0-2.2-.56-3.82-1.68-4.83a7.408,7.408,0,0,0-5.12-1.53,10.981,10.981,0,0,0-4.47.82,14.639,14.639,0,0,0-2.95,1.64,1.5,1.5,0,0,1-.58.33,1.594,1.594,0,0,1-.69,0,9.462,9.462,0,0,1-1.85-.43c-.63-.21-1.55-.52-2.74-.94-.42-.18-.65-.43-.67-.75a7.532,7.532,0,0,1,.22-1.49,18.96,18.96,0,0,1,.45-1.91,11.606,11.606,0,0,1,.56-1.62,2.429,2.429,0,0,1,.43-.62,6.138,6.138,0,0,1,.69-.57,9.634,9.634,0,0,1,2.24-1.14,25.337,25.337,0,0,1,4.42-1.17A35.225,35.225,0,0,1,526.12,217.56Z" transform="translate(-9.96 -11.04)"/><path class="cls-1" d="M668.51,226.56q-8.565,0-8.56,10.98c0,3.94.7,6.76,2.12,8.45s3.59,2.53,6.52,2.53q4.2,0,6.23-2.63c1.36-1.75,2.03-4.63,2.03-8.65q0-5.73-2.04-8.2T668.51,226.56Zm.23-9a24.217,24.217,0,0,1,10.68,2.21,15.869,15.869,0,0,1,7.02,6.59,21.33,21.33,0,0,1,2.48,10.66,23.43,23.43,0,0,1-2.48,11.2,16.2,16.2,0,0,1-7.13,6.96,27.5,27.5,0,0,1-21.95.11,15.8,15.8,0,0,1-7.02-6.68,25.516,25.516,0,0,1,.09-22.05,16.176,16.176,0,0,1,7.23-6.75A25.265,25.265,0,0,1,668.74,217.56Z" transform="translate(-9.96 -11.04)"/><path class="cls-1" d="M669.12,289.56a1.434,1.434,0,0,1,.93.37,24.989,24.989,0,0,1,4.58,4.43,1.747,1.747,0,0,1,.31.58,3.726,3.726,0,0,1,.06.8v40.84a19.09,19.09,0,0,0,.39,4.08,11.747,11.747,0,0,0,.98,2.88,1.443,1.443,0,0,1,.19.75,1.065,1.065,0,0,1-.67,1l-7.78,3.57a3.251,3.251,0,0,1-1.11.34,1.269,1.269,0,0,1-.71-.26,6.8,6.8,0,0,1-2.1-3.28,19.741,19.741,0,0,1-.95-6.81V295.74a3.692,3.692,0,0,1,.06-.82,1.6,1.6,0,0,1,.31-.56,26.413,26.413,0,0,1,4.58-4.43A1.661,1.661,0,0,1,669.12,289.56Z" transform="translate(-9.96 -11.04)"/><path class="cls-1" d="M872.08,317.98a8.252,8.252,0,0,0-6.86,2.95q-2.37,2.97-2.37,8.17c0,3.44.63,6.03,1.88,7.75a6.068,6.068,0,0,0,5.19,2.59,9.9,9.9,0,0,0,5.14-1.19,6.959,6.959,0,0,0,2.86-3.28V319.39A10.909,10.909,0,0,0,872.08,317.98Zm11.72-28.42a1.434,1.434,0,0,1,.93.37,24.357,24.357,0,0,1,4.58,4.43,1.478,1.478,0,0,1,.31.57,3.791,3.791,0,0,1,.06.8v50.59a1.7,1.7,0,0,1-.48,1.21,1.674,1.674,0,0,1-1.23.5h-5.55a3.238,3.238,0,0,1-1.11-.17,1.9,1.9,0,0,1-.82-.65l-2.31-2.97h-.26a10.651,10.651,0,0,1-3.85,3.25q-2.655,1.47-7.76,1.47a14.466,14.466,0,0,1-8.37-2.4,15.036,15.036,0,0,1-5.32-6.71,25.553,25.553,0,0,1-1.82-9.97q0-10.71,5.58-15.81t15.74-5.09a29.692,29.692,0,0,1,3.5.18,13.282,13.282,0,0,1,2.3.45V295.73a3.585,3.585,0,0,1,.06-.81,1.69,1.69,0,0,1,.31-.56,26.409,26.409,0,0,1,4.58-4.43A1.661,1.661,0,0,1,883.8,289.56Z" transform="translate(-9.96 -11.04)"/><path class="cls-1" d="M604.44,289.92a1.133,1.133,0,0,1,.54.15,7.281,7.281,0,0,1,.85.56,49.986,49.986,0,0,1,5.17,5.05q.15.15.48.54a3.589,3.589,0,0,1,.49.68,1.331,1.331,0,0,1,.15.6,1.3,1.3,0,0,1-.17.63,3.448,3.448,0,0,1-.49.65c-.21.24-.38.43-.5.58a48.478,48.478,0,0,1-5.13,4.97,2.546,2.546,0,0,1-1.39.71,1.272,1.272,0,0,1-.56-.15,5.87,5.87,0,0,1-.86-.56,34.527,34.527,0,0,1-5.17-5.05c-.08-.1-.23-.28-.47-.54a2.846,2.846,0,0,1-.49-.67,1.253,1.253,0,0,1-.13-.57,1.3,1.3,0,0,1,.21-.73,11.394,11.394,0,0,1,.88-1.09,51.085,51.085,0,0,1,5.24-5.05,5.5,5.5,0,0,1,.81-.56A1.133,1.133,0,0,1,604.44,289.92Z" transform="translate(-9.96 -11.04)"/><path class="cls-1" d="M730.3,293.88q7.635,0,11.54,1.93a13.215,13.215,0,0,1,5.47,4.39,4.667,4.667,0,0,1,.37.76,3.679,3.679,0,0,1,.15.95c.05.54.07,1.08.07,1.6a26.524,26.524,0,0,1-.29,4.01,2.421,2.421,0,0,1-.19.71,1.067,1.067,0,0,1-.3.37,2.6,2.6,0,0,1-1.63.37c-.8,0-1.72-.03-2.78-.09s-1.83-.13-2.32-.21a3.3,3.3,0,0,1-1.25-.41,3.872,3.872,0,0,1-.87-.89,12.549,12.549,0,0,0-1.51-1.65,7.007,7.007,0,0,0-2.32-1.23,12.56,12.56,0,0,0-4.14-.58,11.727,11.727,0,0,0-11.57,7.85,25.008,25.008,0,0,0-1.56,9.36q0,8.745,3.61,13.27t10.46,4.54a20.823,20.823,0,0,0,4.63-.41,10.156,10.156,0,0,0,2.47-.86V326.1a4.99,4.99,0,0,1,.06-.96,2.011,2.011,0,0,1,.31-.67,29.727,29.727,0,0,1,4.69-5.17,2.44,2.44,0,0,1,.5-.35,1.193,1.193,0,0,1,.47-.09,1.379,1.379,0,0,1,.93.44,28.754,28.754,0,0,1,4.69,5.17,1.714,1.714,0,0,1,.31.67,5.36,5.36,0,0,1,.06.96v18.33a24.343,24.343,0,0,1-6.96,3.08,44.2,44.2,0,0,1-12.61,1.45q-12.795,0-19.54-6.49t-6.73-20.94a33.739,33.739,0,0,1,3.05-14.98,21.329,21.329,0,0,1,8.86-9.44A28.132,28.132,0,0,1,730.3,293.88Z" transform="translate(-9.96 -11.04)"/><path class="cls-1" d="M489.49,293.88a22.681,22.681,0,0,1,7.09.99,16.422,16.422,0,0,1,4.71,2.25,9.086,9.086,0,0,1,2.38,2.34,3.14,3.14,0,0,1,.38.69,5.476,5.476,0,0,1,.15.69c.04.79.07,1.41.07,1.86a32.316,32.316,0,0,1-.26,3.91,1.324,1.324,0,0,1-.41.82,1.465,1.465,0,0,1-.82.18,24.271,24.271,0,0,1-5.58-.37,3.23,3.23,0,0,1-.99-.32,3.4,3.4,0,0,1-.73-.65,9.634,9.634,0,0,0-2.27-1.86,7.516,7.516,0,0,0-3.72-.74q-3.645,0-5.42,1.65a5.385,5.385,0,0,0-1.77,4.08,4.3,4.3,0,0,0,1.03,2.9,8.922,8.922,0,0,0,3.09,2.16q2.07.975,5.94,2.35a43.348,43.348,0,0,1,7.8,3.47,12.708,12.708,0,0,1,4.52,4.58,14.427,14.427,0,0,1,1.6,7.2,16.292,16.292,0,0,1-2.57,9.34,15.456,15.456,0,0,1-7.09,5.68,26.9,26.9,0,0,1-10.37,1.88,26.6,26.6,0,0,1-10.13-1.58,13.723,13.723,0,0,1-5.58-3.97c-.27-.39-.48-.73-.63-1a3.519,3.519,0,0,1-.34-.93,19.477,19.477,0,0,1-.37-3.61,11.371,11.371,0,0,1,.04-1.15,2.728,2.728,0,0,1,.05-.53,1.1,1.1,0,0,1,.21-.4,1.627,1.627,0,0,1,.85-.45q1-.225,2.76-.45a22.225,22.225,0,0,1,2.53-.22,2.383,2.383,0,0,1,1.23.28,5.836,5.836,0,0,1,1.19,1.02,10.136,10.136,0,0,0,8.19,3.2,8.573,8.573,0,0,0,5.49-1.51,5.117,5.117,0,0,0,1.88-4.26,4.678,4.678,0,0,0-.91-2.79,9.8,9.8,0,0,0-3.24-2.53,43.161,43.161,0,0,0-6.5-2.68,28.985,28.985,0,0,1-7.72-3.66,12.76,12.76,0,0,1-4.24-4.97,16.67,16.67,0,0,1-1.36-7.11,14.66,14.66,0,0,1,2.49-8.62,15.229,15.229,0,0,1,6.96-5.36A27.672,27.672,0,0,1,489.49,293.88Z" transform="translate(-9.96 -11.04)"/><path class="cls-1" d="M580.31,309a22.843,22.843,0,0,1,5.94.6,9.344,9.344,0,0,1,3.01,1.26,3.621,3.621,0,0,1,1.27,1.34,7.2,7.2,0,0,1,.61,1.51,13.3,13.3,0,0,1,.46,2.1,4.247,4.247,0,0,1,.11.85,1.189,1.189,0,0,1-.2.73,3.321,3.321,0,0,1-.8.69,14.868,14.868,0,0,1-1.91,1.04,11.555,11.555,0,0,1-1.77.67,2.268,2.268,0,0,1-.59.11,1.021,1.021,0,0,1-.48-.13,5.059,5.059,0,0,1-.6-.35,10.12,10.12,0,0,0-1.95-1.03,7.693,7.693,0,0,0-2.69-.39,9.279,9.279,0,0,0-4.66,1.23,9,9,0,0,0-3.5,3.67,12.028,12.028,0,0,0-1.32,5.82,13.423,13.423,0,0,0,1.27,6.06,8.876,8.876,0,0,0,3.58,3.86,10.924,10.924,0,0,0,5.48,1.32,13.124,13.124,0,0,0,6.54-1.53,1.9,1.9,0,0,1,.86-.26c.39,0,.69.26.89.78l2.71,6.14a1.125,1.125,0,0,1,.11.48.971.971,0,0,1-.56.9,21.908,21.908,0,0,1-5.01,1.73,31.6,31.6,0,0,1-7.32.76,24.73,24.73,0,0,1-10.89-2.23,15.911,15.911,0,0,1-7.09-6.68,22.1,22.1,0,0,1-2.49-10.92,21.586,21.586,0,0,1,2.56-10.79,17.051,17.051,0,0,1,7.3-6.94A24.343,24.343,0,0,1,580.31,309Z" transform="translate(-9.96 -11.04)"/><path class="cls-1" d="M641.75,330.84a28.654,28.654,0,0,0-7.53.76,6.842,6.842,0,0,0-3.59,1.99,4.688,4.688,0,0,0-.93,2.91q0,3.825,4.65,3.83a7.408,7.408,0,0,0,4.97-1.58,7.6,7.6,0,0,0,2.43-3.78ZM636.58,309q8.415,0,12.55,4.06,4.155,4.05,4.15,12.2v21.06a1.818,1.818,0,0,1-.41,1.24,1.65,1.65,0,0,1-1.3.47h-5.58a3.159,3.159,0,0,1-1.11-.17,1.9,1.9,0,0,1-.82-.65l-2.31-2.98h-.26q-3.27,4.725-11.23,4.73a13.606,13.606,0,0,1-6.32-1.38,9.618,9.618,0,0,1-4.13-3.98,12.428,12.428,0,0,1-1.45-6.17,11.9,11.9,0,0,1,2.01-6.96q2.01-2.91,7.18-4.69t14.28-2.05c0-2.2-.56-3.82-1.68-4.83a7.323,7.323,0,0,0-5.09-1.53,10.981,10.981,0,0,0-4.47.82,14.986,14.986,0,0,0-2.93,1.64,1.5,1.5,0,0,1-.58.33,1.591,1.591,0,0,1-.69,0,9.371,9.371,0,0,1-1.84-.43c-.63-.21-1.54-.52-2.73-.94-.42-.18-.65-.43-.67-.75a7.532,7.532,0,0,1,.22-1.49,18.96,18.96,0,0,1,.45-1.91,10.424,10.424,0,0,1,.56-1.62,2.407,2.407,0,0,1,.42-.62,7.216,7.216,0,0,1,.69-.57,9.727,9.727,0,0,1,2.23-1.14,25.192,25.192,0,0,1,4.41-1.17A35.072,35.072,0,0,1,636.58,309Z" transform="translate(-9.96 -11.04)"/><path class="cls-1" d="M778.07,318q-8.565,0-8.56,10.98c0,3.94.7,6.76,2.12,8.45s3.59,2.53,6.52,2.53q4.2,0,6.23-2.63c1.36-1.75,2.03-4.63,2.03-8.65q0-5.73-2.04-8.2T778.07,318Zm.23-9a24.217,24.217,0,0,1,10.68,2.21A15.869,15.869,0,0,1,796,317.8a21.33,21.33,0,0,1,2.48,10.66,23.43,23.43,0,0,1-2.48,11.2,16.2,16.2,0,0,1-7.13,6.96,27.5,27.5,0,0,1-21.95.11,15.8,15.8,0,0,1-7.02-6.68,25.516,25.516,0,0,1,.09-22.05,16.176,16.176,0,0,1,7.23-6.75A25.265,25.265,0,0,1,778.3,309Z" transform="translate(-9.96 -11.04)"/><path class="cls-1" d="M824.75,318q-8.565,0-8.56,10.98c0,3.94.7,6.76,2.12,8.45s3.59,2.53,6.52,2.53q4.2,0,6.23-2.63c1.36-1.75,2.03-4.63,2.03-8.65q0-5.73-2.04-8.2T824.75,318Zm.23-9a24.217,24.217,0,0,1,10.68,2.21,15.869,15.869,0,0,1,7.02,6.59,21.33,21.33,0,0,1,2.48,10.66,23.43,23.43,0,0,1-2.48,11.2,16.2,16.2,0,0,1-7.13,6.96,27.5,27.5,0,0,1-21.95.11,15.8,15.8,0,0,1-7.02-6.68,25.516,25.516,0,0,1,.09-22.05,16.176,16.176,0,0,1,7.23-6.75A25.265,25.265,0,0,1,824.98,309Z" transform="translate(-9.96 -11.04)"/><path class="cls-1" d="M600.61,309.96h7.66a2.281,2.281,0,0,1,1.58.43,2.049,2.049,0,0,1,.47,1.55v34.2a2.049,2.049,0,0,1-.47,1.55,2.281,2.281,0,0,1-1.58.43h-7.66a2.281,2.281,0,0,1-1.58-.43,2.009,2.009,0,0,1-.47-1.55v-34.2a2.009,2.009,0,0,1,.47-1.55A2.281,2.281,0,0,1,600.61,309.96Z" transform="translate(-9.96 -11.04)"/><path class="cls-1" d="M837.36,398.52h6.06v16.247a14.078,14.078,0,0,0,.62,4.623,4.52,4.52,0,0,0,1.81,2.444,5.353,5.353,0,0,0,2.83.726,5.461,5.461,0,0,0,2.88-.726,4.733,4.733,0,0,0,1.86-2.444,13.2,13.2,0,0,0,.66-4.623V398.52h5.84V414.2a22.826,22.826,0,0,1-.73,6.164,10.653,10.653,0,0,1-2.17,4.227,8.792,8.792,0,0,1-3.54,2.422,13.541,13.541,0,0,1-4.8.792,13.773,13.773,0,0,1-4.82-.792,8.792,8.792,0,0,1-3.56-2.422,10.8,10.8,0,0,1-2.19-4.227,22.38,22.38,0,0,1-.75-6.164Z" transform="translate(-9.96 -11.04)"/><polygon class="cls-1" points="856.2 387.48 862.23 387.48 862.23 399.697 862.41 399.697 871.53 387.48 878.18 387.48 869.41 398.903 879.72 416.28 873.11 416.28 865.85 403.666 862.23 408.341 862.23 416.28 856.2 416.28 856.2 387.48"/><path class="cls-1" d="M672.84,395.64a3.317,3.317,0,0,1,2.42.91,3.358,3.358,0,0,1,0,4.66,3.317,3.317,0,0,1-2.42.91,3.351,3.351,0,0,1-2.4-.91,3.308,3.308,0,0,1,0-4.66A3.351,3.351,0,0,1,672.84,395.64Z" transform="translate(-9.96 -11.04)"/><path class="cls-1" d="M765.84,395.64a3.317,3.317,0,0,1,2.42.91,3.358,3.358,0,0,1,0,4.66,3.317,3.317,0,0,1-2.42.91,3.351,3.351,0,0,1-2.4-.91,3.308,3.308,0,0,1,0-4.66A3.351,3.351,0,0,1,765.84,395.64Z" transform="translate(-9.96 -11.04)"/><path class="cls-1" d="M616.56,398.52h6.03v16.247a14.111,14.111,0,0,0,.61,4.623,4.52,4.52,0,0,0,1.81,2.444,5.281,5.281,0,0,0,2.81.726,5.364,5.364,0,0,0,2.86-.726,4.669,4.669,0,0,0,1.85-2.444,13.2,13.2,0,0,0,.66-4.623V398.52H639V414.2a22.826,22.826,0,0,1-.73,6.164,10.632,10.632,0,0,1-2.15,4.227,8.793,8.793,0,0,1-3.52,2.422,14.851,14.851,0,0,1-9.57,0,8.658,8.658,0,0,1-3.54-2.422,10.794,10.794,0,0,1-2.18-4.227,22.38,22.38,0,0,1-.75-6.164Z" transform="translate(-9.96 -11.04)"/><path class="cls-1" d="M776.63,399.72h4.99v5.8h5.35v4.745h-5.35V419.5a3.93,3.93,0,0,0,.78,2.7,2.731,2.731,0,0,0,2.14.857,5.125,5.125,0,0,0,1.15-.132,7.434,7.434,0,0,0,1.02-.307l.97,4.394c-.59.176-1.28.352-2.08.527a12.261,12.261,0,0,1-2.65.264q-3.975,0-5.66-2.285a9.847,9.847,0,0,1-1.68-5.976v-9.273h-3.05v-4.482l3.36-.263Z" transform="translate(-9.96 -11.04)"/><path class="cls-1" d="M657.33,405a5.8,5.8,0,0,1,5.14,2.333,11.206,11.206,0,0,1,1.61,6.428V427.32h-6.04V414.509a6.1,6.1,0,0,0-.69-3.412,2.549,2.549,0,0,0-2.22-.946,4.047,4.047,0,0,0-2.25.594,15.449,15.449,0,0,0-2.12,1.695v14.88h-6V405.528h4.9l.44,2.818h.17a16.26,16.26,0,0,1,3.11-2.356A7.723,7.723,0,0,1,657.33,405Z" transform="translate(-9.96 -11.04)"/><path class="cls-1" d="M713.42,409.613a4.422,4.422,0,0,0-2.3.659,4.749,4.749,0,0,0-1.81,2.152l-.52,1.714h8.56a5.272,5.272,0,0,0-.95-3.295A3.528,3.528,0,0,0,713.42,409.613ZM713.29,405a9.035,9.035,0,0,1,5.1,1.362,8.411,8.411,0,0,1,3.09,3.712,13.118,13.118,0,0,1,1.04,5.337,13.393,13.393,0,0,1-.09,1.56q-.09.769-.18,1.164H708.78l.05.533a5.715,5.715,0,0,0,.68,1.73,5.369,5.369,0,0,0,2.32,2.13,6.989,6.989,0,0,0,3,.659,8.159,8.159,0,0,0,2.5-.373,11.52,11.52,0,0,0,2.36-1.076l1.99,3.646a14.682,14.682,0,0,1-3.64,1.757,12.819,12.819,0,0,1-4,.659,11.473,11.473,0,0,1-5.59-1.362,9.827,9.827,0,0,1-3.93-3.888,12.192,12.192,0,0,1-1.44-6.128,12.024,12.024,0,0,1,1.46-6.062,10.69,10.69,0,0,1,3.8-3.954A9.463,9.463,0,0,1,713.29,405Z" transform="translate(-9.96 -11.04)"/><path class="cls-1" d="M738.8,405a8.721,8.721,0,0,1,1.5.11,3.869,3.869,0,0,1,1.06.33l-1.02,5.195q-.57-.132-1.08-.242a5.776,5.776,0,0,0-1.22-.11,4.781,4.781,0,0,0-2.65.924,6.878,6.878,0,0,0-2.3,3.258V427.32h-6.01V405.528h4.91l.44,3.83h.18a8.973,8.973,0,0,1,2.85-3.258A5.988,5.988,0,0,1,738.8,405Z" transform="translate(-9.96 -11.04)"/><path class="cls-1" d="M751.03,405a10.422,10.422,0,0,1,4.32.835,15.841,15.841,0,0,1,3.22,1.889l-2.69,3.6a13.475,13.475,0,0,0-2.34-1.34,5.717,5.717,0,0,0-2.34-.5,3.341,3.341,0,0,0-2.05.527,1.7,1.7,0,0,0-.68,1.406,1.5,1.5,0,0,0,.62,1.23,6.337,6.337,0,0,0,1.63.878q1.02.4,2.16.791a19.915,19.915,0,0,1,2.78,1.3,7.151,7.151,0,0,1,2.29,2.021,5.276,5.276,0,0,1,.93,3.229,6.419,6.419,0,0,1-1.01,3.514,6.934,6.934,0,0,1-2.98,2.5,11.324,11.324,0,0,1-4.83.923,12.563,12.563,0,0,1-4.44-.857,14.13,14.13,0,0,1-3.9-2.174l2.73-3.778a15.455,15.455,0,0,0,2.92,1.713,7.081,7.081,0,0,0,2.86.615,3.705,3.705,0,0,0,2.28-.571,1.861,1.861,0,0,0,.72-1.538,1.644,1.644,0,0,0-.66-1.3,6.381,6.381,0,0,0-1.7-.966c-.69-.278-1.4-.564-2.14-.857a19.241,19.241,0,0,1-2.73-1.318,7.322,7.322,0,0,1-2.27-2.02,4.936,4.936,0,0,1-.91-3.032,6.011,6.011,0,0,1,2.25-4.854A9.038,9.038,0,0,1,751.03,405Z" transform="translate(-9.96 -11.04)"/><rect class="cls-2" x="659.88" y="394.44" width="6" height="21.84"/><path class="cls-1" d="M679.32,405.48h6.08l3.04,10.633q.4,1.632.84,3.309c.3,1.118.59,2.236.88,3.353h.18c.29-1.117.59-2.235.88-3.353s.59-2.221.88-3.309l3.05-10.633h5.77l-7.23,21.84h-6.92Z" transform="translate(-9.96 -11.04)"/><rect class="cls-2" x="752.88" y="394.44" width="6" height="21.84"/><path class="cls-1" d="M789,405.48h6.1l3.31,9.837q.48,1.455.93,3c.29,1.029.59,2.088.88,3.176h.18c.26-1.029.52-2.066.77-3.11s.51-2.066.77-3.065l2.87-9.837h5.79l-7.69,22.32a24.269,24.269,0,0,1-2.2,4.433,8.234,8.234,0,0,1-2.92,2.778,8.6,8.6,0,0,1-4.2.949,9.221,9.221,0,0,1-1.67-.132c-.48-.089-.93-.192-1.37-.309l1.1-4.588a6.479,6.479,0,0,1,.73.155,3.1,3.1,0,0,0,.77.11,3.674,3.674,0,0,0,2.59-.882,5.25,5.25,0,0,0,1.39-2.25l.35-1.235Z" transform="translate(-9.96 -11.04)"/><path class="cls-1" d="M562.56,395.64a3.317,3.317,0,0,1,2.42.91,3.358,3.358,0,0,1,0,4.66,3.317,3.317,0,0,1-2.42.91,3.351,3.351,0,0,1-2.4-.91,3.308,3.308,0,0,1,0-4.66A3.351,3.351,0,0,1,562.56,395.64Z" transform="translate(-9.96 -11.04)"/><path class="cls-1" d="M580.29,395.76a11.368,11.368,0,0,1,2.43.243,9.923,9.923,0,0,1,1.8.552l-1.1,4.458a4.849,4.849,0,0,0-1.15-.376,6.031,6.031,0,0,0-1.14-.11,2.35,2.35,0,0,0-1.89.773,3.9,3.9,0,0,0-.66,2.538v1.633h4v4.767h-4V427.32h-6.03V410.238h-2.91v-4.5l2.91-.237V403.97a10.6,10.6,0,0,1,.77-4.149,6.337,6.337,0,0,1,2.46-2.957A8.174,8.174,0,0,1,580.29,395.76Z" transform="translate(-9.96 -11.04)"/><path class="cls-1" d="M594.57,395.76A11.368,11.368,0,0,1,597,396a9.923,9.923,0,0,1,1.8.552l-1.1,4.458a4.849,4.849,0,0,0-1.15-.376,6.031,6.031,0,0,0-1.14-.11,2.35,2.35,0,0,0-1.89.773,3.9,3.9,0,0,0-.66,2.538v1.633h4v4.767h-4V427.32h-6.03V410.238h-2.91v-4.5l2.91-.237V403.97a10.6,10.6,0,0,1,.77-4.149,6.337,6.337,0,0,1,2.46-2.957A8.174,8.174,0,0,1,594.57,395.76Z" transform="translate(-9.96 -11.04)"/><path class="cls-1" d="M543.74,409.9a3.434,3.434,0,0,0-2.11.726,5.024,5.024,0,0,0-1.57,2.155,9.161,9.161,0,0,0-.6,3.539,8.71,8.71,0,0,0,1.13,4.925,3.613,3.613,0,0,0,3.15,1.627,4.424,4.424,0,0,0,2.08-.484,5.7,5.7,0,0,0,1.81-1.627v-9.322a5.232,5.232,0,0,0-1.92-1.209A6.215,6.215,0,0,0,543.74,409.9Zm3.89-13.543h6.05v30.912h-4.95l-.44-2.242h-.13a10.593,10.593,0,0,1-2.76,1.979,7.013,7.013,0,0,1-3.2.791,7.886,7.886,0,0,1-6.49-3.034q-2.43-3.035-2.43-8.355a13.275,13.275,0,0,1,1.3-6.112,10.2,10.2,0,0,1,3.38-3.935,7.818,7.818,0,0,1,4.42-1.385,6.943,6.943,0,0,1,3.09.615,9.724,9.724,0,0,1,2.38,1.715l-.22-3.386Z" transform="translate(-9.96 -11.04)"/><path class="cls-1" d="M482.69,398.04a10.778,10.778,0,0,1,4.98,1.121,13.612,13.612,0,0,1,3.6,2.571l-3.23,3.869a11.133,11.133,0,0,0-2.34-1.671,6.042,6.042,0,0,0-2.88-.659,6.481,6.481,0,0,0-3.76,1.165,7.876,7.876,0,0,0-2.65,3.3,12.245,12.245,0,0,0-.97,5.121,13.943,13.943,0,0,0,.88,5.253,7.162,7.162,0,0,0,2.55,3.319,7.1,7.1,0,0,0,7.12.352,10.146,10.146,0,0,0,2.54-1.978l3.23,3.78a11.969,11.969,0,0,1-4.11,3.143,12.2,12.2,0,0,1-5.14,1.077,13.5,13.5,0,0,1-6.67-1.67,12.282,12.282,0,0,1-4.83-4.968,16.572,16.572,0,0,1-1.81-8.088,17.727,17.727,0,0,1,1.06-6.352A13.718,13.718,0,0,1,473.2,402a12.831,12.831,0,0,1,4.34-2.945A13.394,13.394,0,0,1,482.69,398.04Z" transform="translate(-9.96 -11.04)"/><path class="cls-1" d="M506.6,416.949a19.091,19.091,0,0,0-3.97.9,4.739,4.739,0,0,0-2.07,1.318,2.539,2.539,0,0,0-.62,1.647,2.067,2.067,0,0,0,.75,1.757,3.1,3.1,0,0,0,1.94.571,3.941,3.941,0,0,0,2.09-.549,11.073,11.073,0,0,0,1.88-1.471ZM504.13,405a9.174,9.174,0,0,1,4.67,1.1,6.929,6.929,0,0,1,2.87,3.229,12.964,12.964,0,0,1,.97,5.382v12.564H507.7l-.44-2.285h-.13a14,14,0,0,1-3.02,2.021,7.788,7.788,0,0,1-3.47.791,6.658,6.658,0,0,1-3.44-.857,5.923,5.923,0,0,1-2.25-2.328,6.863,6.863,0,0,1-.79-3.317,6.067,6.067,0,0,1,2.95-5.359q2.97-1.934,9.49-2.636a4.827,4.827,0,0,0-.4-1.8,2.674,2.674,0,0,0-1.15-1.252,4.089,4.089,0,0,0-2.07-.462,7.769,7.769,0,0,0-2.89.572,24.5,24.5,0,0,0-2.98,1.449l-2.16-3.954a27.741,27.741,0,0,1,2.8-1.449,17.237,17.237,0,0,1,3.07-1.033A14.408,14.408,0,0,1,504.13,405Z" transform="translate(-9.96 -11.04)"/><path class="cls-1" d="M529.52,405a8.721,8.721,0,0,1,1.5.11,3.869,3.869,0,0,1,1.06.33l-1.02,5.195q-.57-.132-1.08-.242a5.776,5.776,0,0,0-1.22-.11,4.781,4.781,0,0,0-2.65.924,6.878,6.878,0,0,0-2.3,3.258V427.32H517.8V405.528h4.91l.44,3.83h.18a8.973,8.973,0,0,1,2.85-3.258A5.988,5.988,0,0,1,529.52,405Z" transform="translate(-9.96 -11.04)"/><rect class="cls-2" x="549.6" y="394.44" width="6" height="21.84"/><path class="cls-1" d="M815.59,420.12a3.615,3.615,0,0,1,3.15,1.542,7.37,7.37,0,0,1,1.1,4.319,9.667,9.667,0,0,1-1.95,6.037,10.9,10.9,0,0,1-5.58,3.7l-1.23-3.217a8.451,8.451,0,0,0,3.55-2.336l1.17-3.095-.34.055a3.948,3.948,0,0,1-2.56-.9,3.111,3.111,0,0,1-1.12-2.578,3.193,3.193,0,0,1,1.14-2.556A4,4,0,0,1,815.59,420.12Z" transform="translate(-9.96 -11.04)"/><path class="cls-3" d="M324.53,36.12a17.121,17.121,0,0,0-12.06,4.92L309,46.1l-.57,2.13-.93,4.55-.03-.13.94-4.67-3.7,14.03A224.547,224.547,0,0,1,198.44,189.7l-18.19,8.77,1.09,7.15a227.991,227.991,0,0,1,1.16,22.9,223.264,223.264,0,0,1-63.69,156.437l-2.94,2.7,5.27-3.551.07-.014-5.14,3.477-.07.066-3.57,5.3a16.853,16.853,0,0,0,3.59,18.4l1.93,1.3,1.94,1.218,2.39,1.265,5.46,1.107-.1.02-5.56-1.123,11.46,6.046a214.77,214.77,0,0,0,93.49,21.269c119.1,0,215.65-96.57,215.65-215.69A215.549,215.549,0,0,0,342.17,44.34l-5.54-3.25-.03-.05-1.05-.7-1.64-.94-3.21-2.16-1-.21.12.06.21.12Zm-15.56,9.74-.19.28-.37,1.84Zm-193.1,341.8-.05.034-.02.033Zm1.88,24.99,3.39,2.284.94.192-2.39-1.261Z" transform="translate(-9.96 -11.04)"/><path class="cls-4" d="M225.57,11.04a216.424,216.424,0,0,1,48.69,5.52l15.04,4.07.76.16,2.51.92,4.57,3.08a17.12,17.12,0,0,1,5.02,12.13l-1.25,6.22-.14.52-.2.3-4.08,15.48A216.31,216.31,0,0,1,194.15,182.45l-16.58,7.99-1.07-7.05A223.905,223.905,0,0,0,99.584,55.7l-2.5-1.87,7.95-5.95A214.5,214.5,0,0,1,225.57,11.04Z" transform="translate(-9.96 -11.04)"/><polygon class="cls-5" points="291 31.8 290.92 32.22 290.88 32.28 291 31.8"/><path class="cls-4" d="M11.574,201.36l14.335,5.25a223.5,223.5,0,0,0,66.57,10.07,223.514,223.514,0,0,0,66.571-10.07l12.25-4.49.39,2.52a220.505,220.505,0,0,1,1.11,22.07,215.17,215.17,0,0,1-61.34,150.741l-4.4,4.057-1.79,2.56-3.13,2.775L98.5,389.212a18.974,18.974,0,0,1-14.247,0l-2.27-1.477-5.094-4.522-1.19-1.7L71.3,377.451A215.17,215.17,0,0,1,9.96,226.71a218.73,218.73,0,0,1,1.113-22.07Z" transform="translate(-9.96 -11.04)"/><path class="cls-1" d="M91.093,62.4a19.238,19.238,0,0,1,7.041,1.33l1.876,1.19,5.36,4.52,1.58,2.2.8.72a215.624,215.624,0,0,1,56.09,92.74l2.55,10.16-3.04-4.51-.07-.05,3.07,4.59,1.89,7.57-1.33,6.62a17.029,17.029,0,0,1-3.66,5.45l-4.69,3.18-2.09.77-5.28,1.07-.12-.02-11.04,2.99a216.616,216.616,0,0,1-48.717,5.52,215.736,215.736,0,0,1-64.146-9.7l-.162-.06-.468-.09-3-1.07-4.506-2.95a16.867,16.867,0,0,1-3.742-5.38L14.04,183.2l2.221-8.61.228-.33,2.294-9.16A215.134,215.134,0,0,1,56.67,92.52L74.4,72.89l.025-.12,1.912-2.66,7.1-5.99.612-.39A19.242,19.242,0,0,1,91.093,62.4Z" transform="translate(-9.96 -11.04)"/><path class="cls-5" d="M166.44,175.32l.53.81a16.822,16.822,0,0,1,1.27,6.45l-.01.06Z" transform="translate(-9.96 -11.04)"/><polygon class="cls-5" points="13.44 186.36 16.32 187.44 14.441 187.05 13.44 186.36"/><polygon class="cls-5" points="148.8 186.6 148.09 187.06 146.76 187.32 148.8 186.6"/><line class="cls-6" x1="446.82" y1="365.82" x2="939.96" y2="365.82"/><path class="cls-1" d="M533.27,318q-8.565,0-8.56,10.98c0,3.94.7,6.76,2.12,8.45s3.59,2.53,6.52,2.53q4.2,0,6.23-2.63c1.36-1.75,2.03-4.63,2.03-8.65q0-5.73-2.04-8.2T533.27,318Zm.23-9a24.217,24.217,0,0,1,10.68,2.21,15.869,15.869,0,0,1,7.02,6.59,21.33,21.33,0,0,1,2.48,10.66,23.43,23.43,0,0,1-2.48,11.2,16.2,16.2,0,0,1-7.13,6.96,27.5,27.5,0,0,1-21.95.11,15.8,15.8,0,0,1-7.02-6.68,25.516,25.516,0,0,1,.09-22.05,16.176,16.176,0,0,1,7.23-6.75A25.265,25.265,0,0,1,533.5,309Z" transform="translate(-9.96 -11.04)"/></svg>