<svg width="1649" height="1585" xmlns="http://www.w3.org/2000/svg" xmlns:xlink="http://www.w3.org/1999/xlink" xml:space="preserve" overflow="hidden"><defs><clipPath id="clip0"><rect x="1056" y="445" width="1649" height="1585"/></clipPath></defs><g clip-path="url(#clip0)" transform="translate(-1056 -445)"><path d="M1056 1257 2705 1257 2705 2030 1056 2030Z" fill="#D73749" fill-rule="evenodd"/><path d="M2559.46 1501.67C2550.55 1507.12 2516.09 1507.44 2495.32 1507.44L2495.32 1428.96C2495.32 1414.94 2495.32 1400.11 2496.49 1385.43 2496.49 1378.01 2494.51 1374.22 2481.31 1374.22L2465.5 1374.22C2466.64 1393.18 2467.45 1411.35 2467.45 1429.45L2467.45 1470.01C2467.45 1484.37 2467.45 1498.7 2466.31 1513.38 2466.31 1519.15 2466.31 1524.6 2480.32 1524.6L2549.63 1524.6C2555.11 1523.76 2559.28 1519.23 2559.68 1513.7 2559.68 1513.7 2559.46 1509.92 2559.46 1501.67ZM2202.23 1450.55 2185.75 1450.55C2187.54 1461.44 2188.21 1472.49 2187.73 1483.52L2187.73 1505.63C2177.46 1509.25 2166.63 1510.98 2155.75 1510.73 2125.2 1512.3 2099.16 1488.82 2097.58 1458.27 2097.44 1455.7 2097.49 1453.11 2097.73 1450.55 2097.73 1416.11 2117.53 1389.05 2153.77 1389.05 2172.14 1390.3 2189.57 1397.67 2203.27 1409.99L2207.88 1396.8C2210.08 1391.75 2207.8 1385.87 2202.78 1383.63 2187.26 1376.54 2170.32 1373.1 2153.27 1373.55 2103.77 1373.55 2066.24 1397.14 2066.24 1450.55 2066.24 1503.95 2103.82 1527.3 2152.11 1527.3 2173.32 1526.4 2194.33 1522.77 2214.61 1516.5L2214.61 1461.61C2214.66 1455.52 2209.76 1450.53 2203.67 1450.47 2203.66 1450.47 2203.65 1450.47 2203.64 1450.47 2203.17 1450.47 2202.7 1450.5 2202.23 1450.55ZM2349.26 1634.4 2324.51 1634.4C2324.78 1638.62 2324.11 1642.84 2322.55 1646.78 2317.43 1657.15 2311.34 1668.04 2306.07 1678.42 2300.8 1688.79 2287.43 1710.08 2281.32 1719.81 2266.32 1695.4 2253.44 1670.3 2239.93 1645.12 2236.27 1637.98 2228.63 1633.81 2220.65 1634.57L2189.85 1634.57C2215.75 1671.71 2235.85 1705.3 2257.45 1742.07 2257.45 1763.34 2257.45 1791.58 2255.97 1813.3 2255.64 1818.84 2259.86 1823.6 2265.4 1823.94 2266.38 1824 2267.37 1823.91 2268.32 1823.67L2295.87 1823.67C2292.55 1796.81 2292.55 1765.64 2292.55 1739.77 2310.37 1707.58 2330.79 1677.87 2352.9 1645.44 2354.4 1643.59 2355.11 1641.22 2354.88 1638.85 2354.81 1635.96 2352.41 1633.66 2349.51 1633.73 2349.49 1633.73 2349.48 1633.73 2349.46 1633.73L2349.11 1633.73ZM1954.71 1408.85C1955.37 1396.4 1966.01 1386.85 1978.45 1387.51 1978.46 1387.51 1978.47 1387.51 1978.47 1387.51L1979.26 1387.51C1992.75 1387.62 2005.24 1394.65 2012.33 1406.13 2016.49 1400.66 2019.26 1394.27 2020.4 1387.49 2020.4 1374.81 1991.39 1371 1981.66 1371 1955.8 1371 1930.23 1385.36 1930.23 1413.56 1930.23 1463.07 2000.62 1449.83 2000.62 1482.88 2001.13 1496.53 1990.48 1508.01 1976.84 1508.53 1975.76 1508.59 1974.67 1508.59 1973.59 1508.53 1956.44 1508.74 1940.22 1500.73 1929.96 1486.99 1928.05 1492.9 1926.72 1498.97 1926 1505.14 1925.52 1510.9 1928.76 1516.34 1934.06 1518.65 1943.9 1523.54 1954.75 1526.02 1965.72 1525.91 1995.57 1525.91 2024.09 1509.42 2024.09 1476.39 2024.86 1429.28 1954.71 1443.64 1954.71 1408.85ZM1894.04 1373.72 1874.02 1373.72C1870.37 1386.01 1864.81 1397.64 1857.53 1408.19 1848.97 1421.7 1841.05 1435.22 1836.59 1441.16 1824.56 1421.88 1813.03 1402.07 1801.49 1382.78 1798.24 1376.87 1791.7 1373.54 1785.01 1374.39L1760.25 1374.39C1781.19 1403.06 1800.48 1432.42 1819.11 1462.6L1819.11 1479.09C1819.11 1492.93 1817.95 1508.11 1817.95 1516.23 1818.23 1520.86 1822.21 1524.39 1826.84 1524.13 1827.23 1524.1 1827.62 1524.05 1828 1523.98L1848.45 1523.98C1846.52 1502.38 1845.75 1480.69 1846.14 1459.01 1857.04 1440.47 1868.92 1422.53 1881.74 1405.26 1886.86 1397.52 1892.63 1390.09 1898.22 1382.83 1899.29 1381.32 1899.97 1379.57 1900.2 1377.73 1899.99 1375.21 1897.78 1373.34 1895.26 1373.55 1895.26 1373.55 1895.26 1373.55 1895.25 1373.55 1894.88 1373.56 1894.5 1373.61 1894.14 1373.72ZM1722.26 1374.54 1637.14 1374.54C1637.39 1382.43 1638.05 1390.31 1639.12 1398.13L1639.12 1453.52C1639.12 1479.41 1637.95 1493.25 1637.95 1513.38 1637.33 1518.81 1641.22 1523.72 1646.64 1524.35 1647.59 1524.49 1648.56 1524.49 1649.51 1524.35L1668.13 1524.35C1667.8 1507.02 1666.15 1490.06 1666.15 1472.58L1666.15 1452.77C1686.03 1452.32 1705.91 1453.64 1725.55 1456.74 1725.55 1449.8 1727.53 1436.61 1716.99 1436.61 1706.44 1436.61 1686.49 1438.94 1665.9 1438.94L1665.9 1390.04C1687.31 1388.95 1708.77 1390.78 1729.68 1395.49 1731.17 1387.74 1733.47 1374.71 1722.26 1374.71ZM1564.83 1441.81C1564.83 1412.1 1566.32 1405.04 1566.32 1386.57 1567.5 1380.79 1563.77 1375.13 1557.99 1373.95 1557.99 1373.95 1557.98 1373.95 1557.98 1373.95 1556.65 1373.69 1555.29 1373.69 1553.97 1373.95L1536.15 1373.95C1538.2 1397.08 1538.97 1420.3 1538.47 1443.52 1538.47 1480.65 1536.99 1488.87 1536.99 1511.62 1536.11 1517.58 1540.22 1523.11 1546.17 1523.99 1546.2 1524 1546.22 1524 1546.25 1524 1547 1524.08 1547.76 1524.08 1548.52 1524L1567.14 1524C1565.65 1507.02 1564.83 1481.91 1564.83 1442.05ZM1682.53 1752.94C1663.89 1759.77 1643.97 1762.42 1624.19 1760.69 1618.42 1760.69 1617.58 1757.25 1617.26 1750.31L1617.26 1696.22C1636.4 1695.37 1655.56 1697.2 1674.19 1701.66L1674.19 1689.63C1674.19 1681.56 1669.88 1678.42 1658.69 1678.42 1647.51 1678.42 1631.99 1680.4 1616.15 1680.4L1616.15 1622.86C1661.32 1622.86 1672.7 1626.65 1679.12 1629.45L1679.12 1620.71C1679.33 1613.05 1673.69 1606.5 1666.1 1605.55L1580.6 1605.55C1583.99 1613.51 1585.46 1622.15 1584.88 1630.78L1584.88 1713.13C1584.88 1729.42 1584.5 1745.92 1583.72 1762.64 1583.72 1771.23 1585.21 1776.16 1594.12 1776.16L1667.58 1776.16C1674.14 1777.73 1680.72 1773.68 1682.29 1767.13 1682.43 1766.52 1682.53 1765.91 1682.58 1765.29ZM1424.81 1603.72C1396.36 1589.77 1365.11 1582.5 1333.42 1582.46 1229.74 1582.46 1161 1666.06 1161 1768.14 1161 1867.17 1236.32 1931.37 1332.76 1931.37 1368.51 1931.86 1403.61 1921.77 1433.65 1902.35L1429.69 1869.37C1408.6 1889.12 1381.23 1900.8 1352.39 1902.35 1266.99 1902.35 1210.11 1831.62 1210.11 1749.17 1210.11 1678.79 1250.33 1609.19 1327.66 1609.19 1353.73 1608.7 1379.12 1617.59 1399.19 1634.25 1410.3 1643.75 1418.14 1656.49 1421.62 1670.69 1431.64 1657.61 1438.42 1642.34 1441.42 1626.13 1440.42 1616.18 1434.04 1607.57 1424.81 1603.72ZM2340.65 1372.91C2291.14 1372.91 2258.22 1399.27 2258.22 1449.9 2258.22 1497.54 2295.35 1526.4 2340.65 1526.4 2385.94 1526.4 2424.38 1497.88 2424.38 1450.55 2424.38 1403.21 2386.96 1372.91 2340.47 1372.91ZM2340.65 1510.91C2305.87 1510.91 2288.39 1481.54 2288.39 1449.73 2288.39 1417.92 2305.87 1388.23 2340.65 1388.23 2375.42 1388.23 2393.07 1417.57 2393.07 1450.55 2393.07 1485.5 2380.37 1511.08 2340.47 1511.08ZM2489.01 1605.88 2405.2 1605.88C2408.87 1611.79 2410.96 1618.54 2411.29 1625.48 2413.27 1651.06 2414.43 1675.79 2414.43 1701.66L2333.99 1701.66C2337.58 1707.69 2339.72 1714.47 2340.25 1721.47 2342.55 1749.03 2343.39 1774.9 2343.39 1802.28 2343.39 1837.39 2343.39 1873.01 2341.07 1908.29 2341.24 1913.59 2345.67 1917.74 2350.97 1917.58L2351.69 1917.58 2414.31 1917.58C2481.91 1917.58 2532.18 1881.13 2535.6 1813.2 2580.31 1799.06 2609.67 1756.3 2606.81 1709.49 2607.3 1635.46 2559.33 1606.12 2490.47 1606.12ZM2535 1790.37C2529.56 1737.79 2496.76 1711.89 2449.11 1704.46 2449.11 1675.45 2450.27 1650.22 2451.41 1623.68 2458.93 1622.44 2466.54 1621.78 2474.16 1621.7 2529.88 1621.7 2568.47 1654.67 2568.47 1712.21 2571.12 1742.13 2558.85 1771.44 2535.67 1790.54ZM2488.19 1803.57 2461.86 1803.57C2456.8 1804.21 2452.18 1800.63 2451.54 1795.57L2451.54 1794.65C2450.08 1771.41 2448.74 1748.33 2448.74 1727.39 2478.91 1740.52 2498.37 1770.34 2498.24 1803.24ZM2417.58 1899.85 2391.46 1899.85C2386.36 1900.69 2381.55 1897.25 2380.7 1892.15 2380.7 1892.13 2380.7 1892.12 2380.7 1892.1 2380.7 1891.83 2380.7 1891.56 2380.7 1891.28 2379.21 1865.73 2378.39 1841.77 2378.39 1816.59 2378.39 1784.6 2378.39 1750.63 2381.02 1720.03 2388.54 1718.89 2396.15 1718.33 2403.76 1718.38 2407.5 1718.18 2411.24 1718.18 2414.98 1718.38 2414.98 1749.74 2414.21 1781.09 2412.68 1812.45 2412.91 1817.63 2417.3 1821.64 2422.48 1821.4 2422.51 1821.4 2422.54 1821.39 2422.58 1821.39L2497.8 1821.39C2494.19 1866.9 2469.46 1900.2 2418.34 1900.2ZM2045.3 1606.87 1943.59 1606.87C1949.36 1614.94 1951.66 1630.44 1953.32 1661.78 1954.46 1684.53 1955.3 1707.78 1955.3 1731.1 1955.3 1759.36 1954.91 1787.61 1954.14 1815.85 1954.14 1831.34 1952.16 1846.35 1952.16 1861.85 1952.31 1868.21 1957.58 1873.26 1963.94 1873.14L1965.01 1873.14 2042.33 1873.14C2128.22 1873.14 2192.33 1825.48 2192.33 1735.46 2192.33 1645.44 2131.51 1606.87 2045.3 1606.87ZM2045.3 1850.88 2012.33 1850.88C2006.16 1851.92 2000.31 1847.75 1999.28 1841.57 1999.27 1841.55 1999.27 1841.52 1999.26 1841.5 1999.26 1841.17 1999.26 1840.83 1999.26 1840.51 1998.1 1832.76 1997.6 1821.54 1997.28 1813.47 1997.28 1795.99 1996.14 1770.09 1996.14 1748.51 1996.14 1708.6 1998.1 1668.86 1999.58 1629.45 2009.28 1627.74 2019.1 1626.87 2028.94 1626.82 2097.85 1626.82 2145.28 1665.89 2145.28 1738.23 2145.92 1802.03 2114.93 1850.83 2046.51 1850.83ZM1837.58 1769.18C1878.26 1759.28 1907.13 1723.16 1907.83 1681.29 1907.83 1625.56 1858.32 1605.11 1808.82 1605.11 1777.48 1605.11 1745.85 1605.11 1714.02 1606.27 1717.88 1616 1719.76 1626.41 1719.56 1636.87L1719.56 1736.62C1719.56 1810.5 1716.1 1852.98 1716.1 1867.05 1716.1 1872.81 1718.4 1873.63 1723.35 1873.63L1772.85 1873.63C1769.91 1869.27 1768.15 1864.22 1767.75 1858.97 1764.24 1832.18 1762.53 1805.19 1762.63 1778.17L1795.55 1778.17C1809.24 1799.78 1826.22 1825.01 1845.06 1850.56 1874.24 1888.81 1913.79 1933 1960.45 1933 1972.33 1932.19 1984.16 1930.76 1995.9 1928.72 1941.66 1909.93 1871.27 1818.07 1838.79 1769.28ZM1789.29 1758.28 1762.26 1758.28 1762.26 1712.06C1762.26 1684.18 1762.26 1652.64 1764.56 1625.41 1772.65 1625.41 1782.04 1623.78 1790.95 1623.78 1830.33 1623.78 1861.99 1644.72 1861.99 1687.25 1863.1 1725.39 1833.1 1757.2 1794.98 1758.33 1793.42 1758.33 1791.84 1758.33 1790.28 1758.33ZM1439.32 1460.13C1460.5 1455.87 1475.98 1437.63 1476.74 1416.03 1476.74 1383.85 1448.55 1374.64 1421.86 1374.64L1367.78 1374.64C1369.74 1377.66 1370.93 1381.11 1371.25 1384.69 1372.41 1401.18 1371.25 1426.78 1371.25 1447.67L1371.25 1513.8C1370.77 1518.79 1374.43 1523.22 1379.41 1523.71 1380.32 1523.78 1381.24 1523.73 1382.14 1523.56L1401.94 1523.56C1399.69 1504.18 1398.74 1484.68 1399.12 1465.18L1415.6 1465.18C1426.17 1483.67 1437.84 1501.52 1450.55 1518.61 1460.05 1533.11 1476.63 1541.36 1493.92 1540.19L1501.34 1540.19C1477.88 1515.79 1457.08 1488.95 1439.32 1460.13ZM1406.34 1452.03 1397.95 1452.03 1397.95 1387.66 1411.15 1387.66C1430.06 1385.56 1447.09 1399.2 1449.19 1418.11 1449.19 1418.96 1449.34 1419.8 1449.39 1420.59 1450.21 1445.17 1427.63 1452.58 1406.52 1452.08ZM1274.49 1375.28 1219.91 1375.28C1222.6 1384.03 1223.78 1393.17 1223.38 1402.32L1223.38 1512.14C1222.37 1517.88 1226.21 1523.34 1231.94 1524.35 1232.71 1524.47 1233.49 1524.52 1234.27 1524.5L1252.88 1524.5C1251.25 1506.35 1250.9 1485.43 1250.9 1466.12L1264.76 1466.12C1295.26 1466.12 1328.55 1451.46 1328.55 1416.6 1327.73 1384.62 1301.02 1375.7 1274.32 1375.21ZM1262.11 1453.76 1250.08 1453.76 1250.08 1388.8 1265.08 1388.8C1284.89 1388.8 1299.86 1396.55 1299.86 1418.51 1300.46 1437.44 1285.6 1453.27 1266.67 1453.86 1266.65 1453.86 1266.62 1453.86 1266.59 1453.86 1265.04 1453.92 1263.48 1453.86 1261.94 1453.69ZM1580.28 1829.79 1499.83 1646.28C1498.93 1639.68 1493.31 1634.74 1486.64 1634.72L1481.69 1634.72 1388.89 1832.58C1387.32 1835.4 1386.52 1838.59 1386.57 1841.82 1387.35 1845.14 1390.66 1847.22 1393.99 1846.5L1394.22 1846.5 1414.66 1846.5C1414.44 1844.96 1414.44 1843.4 1414.66 1841.87 1414.75 1837.92 1415.53 1834.01 1416.96 1830.33L1436.77 1782.35 1515.97 1782.35 1537.56 1836.1C1538.89 1842.18 1544.35 1846.47 1550.58 1846.32L1589.98 1846.32C1585.64 1841.54 1582.33 1835.91 1580.28 1829.79ZM1444.61 1763.83 1477.58 1685.67 1509.17 1763.83Z" fill="#FFFFFF" fill-rule="evenodd"/><path d="M1056 445 2705 445 2705 1218 1056 1218Z" fill="#D73749" fill-rule="evenodd"/><path d="M2594.06 540.586 2434.86 540.586C2440.23 591.734 2442.1 643.189 2440.46 694.591 2440.46 747.527 2436.17 837.405 2436.17 853.226 2435.34 861.013 2440.96 868.006 2448.75 868.849 2450.05 868.994 2451.37 868.953 2452.66 868.726L2493.19 868.726C2490.59 861.523 2489.14 853.951 2488.91 846.294 2485.45 798.656 2484.31 750.325 2484.31 702.836L2508.69 701.35C2534.13 699.816 2559.64 702.834 2584.02 710.264 2586.54 705.093 2588.1 699.505 2588.62 693.774 2586.95 683.922 2577.63 677.277 2567.78 678.918L2566.54 679.165 2484.14 679.165C2484.14 640.417 2485.79 601.841 2487.28 563.761L2512.82 563.761C2535.73 563.761 2595.23 563.761 2613.34 574.952 2614.8 569.138 2615.3 563.125 2614.83 557.15 2614.02 547.172 2605.3 539.728 2595.33 540.511ZM2391.13 557.571 2252.75 557.571C2260.49 571.09 2260 667.058 2260 686.841 2260 728.239 2256.21 787.44 2256.21 811.011 2255.02 818.104 2259.8 824.821 2266.89 826.013 2266.89 826.014 2266.9 826.015 2266.9 826.015 2267.45 826.111 2268 826.169 2268.56 826.189L2309.59 826.189C2304.96 808.765 2302.74 790.785 2303.01 772.757L2303.01 694.269C2308.77 694.269 2319.49 693.105 2327.06 693.105 2348.44 691.76 2369.86 694.794 2390.02 702.019 2390.02 696.25 2391.51 690.481 2391.51 684.538 2391.12 676.992 2384.7 671.186 2377.15 671.565 2376.44 671.607 2375.73 671.698 2375.02 671.837L2302.51 671.837C2302.51 641.333 2304 611.176 2305.16 580.498L2331.84 580.498C2360.16 578.905 2388.52 582.711 2415.41 591.715L2415.41 590.229C2415.41 572.749 2410.46 557.571 2391.01 557.571ZM2197.16 696.077C2197.16 673.991 2197.16 651.88 2198.3 630.117 2198.3 618.579 2199.79 606.545 2199.79 594.834 2199.26 589.404 2194.45 585.419 2189.02 585.921L2151.06 585.921C2155.49 619.915 2157.19 654.209 2156.16 688.475 2156.16 709.744 2156.16 731.334 2154.99 753.123L2154.99 782.958C2154.55 789.495 2159.48 795.16 2166.01 795.635L2202.63 795.635C2197.95 762.647 2195.86 729.342 2196.37 696.027ZM2563.13 950.68 2543.33 950.68C2539.55 962.912 2534 974.524 2526.85 985.145 2518.78 998.664 2510.37 1012.18 2506.41 1017.33 2494.03 998.367 2482.85 978.559 2470.82 959.272 2467.61 953.296 2461.07 949.897 2454.34 950.705L2429.49 950.705C2450.75 979.228 2470.03 1008.74 2488.66 1038.92L2488.66 1055.41C2488.66 1069.75 2487.01 1084.11 2487.01 1092.18 2487.45 1096.98 2491.69 1100.52 2496.48 1100.1L2497.55 1099.93 2517.67 1099.93C2515.69 1078.66 2515.34 1057.39 2515.34 1035.78 2526.23 1017.16 2538.58 999.358 2550.95 982.026 2556.4 974.276 2561.82 966.873 2567.44 959.618 2568.12 958.35 2568.46 956.924 2568.43 955.483 2568.61 952.933 2566.69 950.718 2564.14 950.537 2564.11 950.535 2564.08 950.533 2564.05 950.531 2563.73 950.544 2563.43 950.594 2563.13 950.68ZM2417.12 950.68 2307.61 950.68C2299.58 949.659 2292.25 955.341 2291.23 963.372 2291.23 963.375 2291.23 963.378 2291.23 963.382 2291.23 963.654 2291.23 963.926 2291.23 964.199L2291.23 971.949C2307.64 969.835 2324.18 968.958 2340.72 969.324 2341.71 988.438 2341.71 1004.93 2341.71 1023.08 2341.71 1053.58 2340.23 1067.92 2340.23 1090.35 2339.89 1095.71 2343.97 1100.33 2349.33 1100.67 2350.32 1100.73 2351.32 1100.64 2352.28 1100.4L2370.89 1100.4C2368.74 1075.07 2367.97 1049.63 2368.59 1024.22L2368.59 970.141C2383.26 970.141 2397.59 972.122 2407.99 972.122 2414.1 971.17 2418.29 965.44 2417.34 959.321 2417.36 959.082 2417.36 958.842 2417.34 958.603L2417.34 951.002 2417.34 951.002ZM2266.63 1017.95C2266.63 988.117 2268.11 981.184 2268.11 962.713 2269.3 956.912 2265.56 951.248 2259.76 950.063 2259.76 950.062 2259.75 950.062 2259.75 950.061 2258.43 949.826 2257.08 949.826 2255.77 950.061L2238.12 950.061C2240.14 973.203 2240.9 996.436 2240.42 1019.66 2240.42 1056.8 2238.94 1065.34 2238.94 1087.75 2238.07 1093.72 2242.21 1099.26 2248.17 1100.12 2248.19 1100.13 2248.2 1100.13 2248.22 1100.13 2248.97 1100.2 2249.74 1100.2 2250.49 1100.13L2269.1 1100.13C2267.45 1083.29 2266.63 1058.24 2266.63 1018.42ZM2130.79 984.972C2131.46 972.708 2141.92 963.294 2154.18 963.926L2155.49 963.926C2168.87 963.899 2181.32 970.755 2188.45 982.075 2192.61 976.603 2195.39 970.207 2196.54 963.431 2196.54 950.755 2167.54 947.932 2158.31 947.932 2132.1 947.932 2106.56 961.97 2106.56 990.147 2106.56 1039.67 2176.92 1026.59 2176.92 1059.47 2177.42 1073.31 2166.62 1084.94 2152.79 1085.45 2151.83 1085.5 2150.86 1085.5 2149.9 1085.45 2132.89 1085.11 2117.03 1076.8 2107.06 1063.01 2105.21 1068.93 2103.93 1075.01 2103.25 1081.16 2102.77 1086.94 2106.02 1092.38 2111.34 1094.68 2121.17 1099.76 2132.07 1102.41 2143.14 1102.43 2172.96 1102.43 2201.49 1085.94 2201.49 1052.91 2200.65 1004.93 2130.79 1019.93 2130.79 985.145ZM1915.21 1077.97C1900.71 1082.97 1885.37 1085.1 1870.05 1084.23L1859.51 1084.23C1853.72 1084.23 1853.72 1081.11 1853.72 1076.16L1853.72 1029.49C1872.03 1028.86 1890.34 1030.42 1908.29 1034.12L1908.29 1022.09C1908.34 1017.08 1904.33 1012.98 1899.33 1012.93 1899.32 1012.93 1899.31 1012.93 1899.3 1012.93 1898.55 1012.91 1897.8 1012.99 1897.08 1013.17 1882.75 1013.17 1867.25 1014.66 1852.9 1014.66L1852.9 988.438C1852.72 980.835 1853.1 973.229 1854.06 965.684 1874.02 964.754 1894.01 966.587 1913.46 971.132 1913.46 962.218 1913.46 950.68 1900.59 950.68L1822.41 950.68C1824.04 953.286 1825.11 956.204 1825.55 959.247 1826.69 977.396 1826.69 995.693 1826.69 1013.84 1826.69 1039.07 1825.55 1063.36 1825.55 1089.36 1824.51 1093.78 1827.24 1098.21 1831.66 1099.25 1831.68 1099.25 1831.7 1099.26 1831.72 1099.26 1832.61 1099.48 1833.53 1099.54 1834.44 1099.44L1903.73 1099.44C1909.33 1100.17 1914.46 1096.22 1915.19 1090.62 1915.23 1090.1 1915.23 1089.58 1915.19 1089.06L1915.19 1077.99ZM1791.75 950.358 1770.84 950.358C1771.26 958.635 1769.5 966.878 1765.72 974.251 1754.01 1002.95 1738.49 1038.63 1726.66 1062.97 1718.92 1046.48 1707.04 1017.63 1697.31 994.529 1692.21 982.843 1688.43 972.766 1683.48 961.574 1680.44 953.992 1672.6 949.486 1664.52 950.68L1645.24 950.68C1668.48 1000.2 1691.55 1049.72 1712.06 1101.22L1731.66 1101.22C1751.46 1053.23 1773.86 1006.91 1795.78 959.594 1795.98 958.721 1795.98 957.816 1795.78 956.944 1796.64 954.163 1795.09 951.211 1792.32 950.333L1791.65 950.185ZM1425.21 555.268C1396.97 541.304 1365.9 534.027 1334.39 534 1230.75 534 1162 617.588 1162 719.697 1162 818.736 1237.33 882.938 1333.75 882.938 1369.7 883.537 1405.01 873.437 1435.21 853.919L1431.25 820.94C1410.12 840.924 1382.5 852.63 1353.45 853.919 1268.41 853.919 1211.54 783.181 1211.54 700.731 1211.54 630.315 1251.76 561.062 1329.07 561.062 1355.12 560.594 1380.46 569.503 1400.49 586.168 1411.62 595.647 1419.47 608.404 1422.91 622.615 1432.86 609.385 1439.64 594.043 1442.71 577.775 1441.63 567.556 1434.85 558.834 1425.21 555.268ZM1613.59 1018.27C1613.59 988.562 1615.08 981.506 1615.08 963.035 1616.34 957.347 1612.75 951.716 1607.06 950.458 1607.06 950.458 1607.06 950.457 1607.06 950.457 1605.74 950.197 1604.37 950.197 1603.05 950.457L1584.91 950.457C1586.96 973.588 1587.74 996.815 1587.24 1020.03 1587.24 1057.17 1585.58 1065.71 1585.58 1088.15 1584.7 1094.1 1588.8 1099.64 1594.75 1100.52 1594.76 1100.52 1594.77 1100.52 1594.78 1100.53 1595.72 1100.65 1596.67 1100.65 1597.61 1100.53L1616.39 1100.53C1614.41 1083.24 1613.59 1058.19 1613.59 1018.27ZM1532.35 951.002 1517.5 951.002C1518.64 976.083 1518.96 1000.52 1518.96 1026.37L1518.96 1052.24C1482.7 1019.26 1448.92 984.155 1413.48 949.368L1402.12 949.368 1402.12 970.958C1402.12 999.977 1402.12 1039.39 1400.96 1058.01 1399.8 1076.63 1398.31 1082.77 1398.31 1093.64 1397.91 1096.98 1400.28 1100.02 1403.62 1100.42 1403.63 1100.43 1403.63 1100.43 1403.63 1100.43 1404.46 1100.54 1405.31 1100.47 1406.11 1100.23L1422.59 1100.23C1420.55 1084.32 1419.68 1068.28 1419.97 1052.24L1419.97 997.773C1455.9 1032.91 1491.49 1065.89 1525.61 1102.98L1537.32 1102.98C1537.32 1077.75 1536.16 1053.46 1536.16 1027.95 1536.16 1013.94 1537.32 1001.24 1537.64 988.538 1537.96 975.836 1539.62 965.784 1539.62 959.197 1540.37 955.54 1538.01 951.97 1534.35 951.225 1533.7 951.049 1533.02 950.974 1532.35 951.002ZM1347.26 951.002 1333.18 951.002C1335.28 964.591 1336.27 978.328 1336.15 992.078L1336.15 1029.99C1336.15 1060.49 1326.92 1084.58 1291.31 1084.58 1250.27 1084.58 1246.17 1059.82 1246.17 1025.16 1246.17 1002.72 1248.47 975.638 1248.47 957.538 1248.62 953.809 1245.74 950.656 1242.01 950.482 1241.47 950.421 1240.92 950.421 1240.38 950.482L1217.98 950.482C1219.12 966.972 1219.46 978.04 1219.46 1003.91L1219.46 1040.68C1219.46 1085.25 1244.51 1103.03 1287.02 1103.03 1329.54 1103.03 1352.98 1081.36 1354.83 1040.06 1356.69 998.763 1358.3 971.949 1358.3 958.752 1358.77 954.236 1355.49 950.195 1350.98 949.724 1350.94 949.721 1350.91 949.718 1350.87 949.714 1349.62 949.595 1348.36 949.756 1347.19 950.185ZM1966.71 558.735 1865.03 559.725C1870.47 568.292 1872.77 583.791 1874.26 614.964 1875.74 637.867 1876.24 660.967 1876.24 684.291 1876.24 712.492 1876.24 740.347 1875.1 768.474 1875.1 783.973 1873.44 799.473 1873.44 814.799 1873.79 821.306 1879.31 826.321 1885.81 826.04L1962.53 826.04C2048.73 826.04 2113 778.402 2113 688.352 2113 598.301 2052.49 558.735 1966.71 558.735ZM1966.71 802.766 1933.65 802.766C1927.7 803.952 1921.9 800.102 1920.68 794.15 1920.54 793.432 1920.48 792.702 1920.49 791.971 1919.22 783.121 1918.56 774.195 1918.51 765.255 1918.51 747.775 1917.34 721.876 1917.34 700.286 1917.34 660.373 1918.83 620.634 1920.49 580.721 1930.05 579.3 1939.72 578.638 1949.39 578.74 2018.29 578.74 2064.76 617.811 2064.76 690.159 2066.25 753.791 2035.74 802.939 1967.18 802.939ZM2026.11 1036.1C2047.36 1032.21 2063.01 1014 2063.68 992.4 2063.68 960.213 2035.81 951.002 2008.79 951.002L1954.76 951.002C1956.88 953.946 1958.09 957.452 1958.23 961.079 1959.36 977.569 1958.23 1002.77 1958.23 1023.72L1958.23 1089.85C1957.64 1094.73 1961.12 1099.16 1966 1099.76 1967.03 1099.87 1968.08 1099.82 1969.09 1099.58L1988.89 1099.58C1986.72 1080.2 1985.84 1060.7 1986.27 1041.2L2002.75 1041.2C2014.28 1059.85 2025.49 1077.15 2039 1095.3 2048.5 1109.8 2065.07 1118.05 2082.36 1116.89L2090.45 1116.89C2066.65 1092.16 2045.39 1065.09 2027 1036.1ZM1993.14 1028.35 1985.55 1028.35 1985.55 1013.35C1985.55 1002.13 1985.55 975.093 1986.71 963.828L1999.55 963.828C2018.46 961.714 2035.5 975.335 2037.62 994.252 2037.62 994.254 2037.62 994.255 2037.62 994.257 2037.62 995.099 2037.76 995.941 2037.79 996.733 2037.64 1021.29 2015.22 1028.23 1993.96 1028.23ZM1594.96 781.002 1515.34 597.484C1514.38 590.915 1508.79 586.022 1502.15 585.946L1497.06 585.946 1404.45 783.156C1402.84 786.14 1402.05 789.497 1402.15 792.887 1402.15 796.328 1406.43 797.17 1409.9 797.17L1430.31 797.17C1430.11 795.633 1430.11 794.077 1430.31 792.54 1430.42 788.589 1431.2 784.685 1432.64 781.002L1451.6 732.845 1530.79 732.845 1552.86 786.944C1554.31 793.102 1560.08 797.251 1566.37 796.675L1605.77 796.675C1601.45 792.401 1598.03 787.297 1595.72 781.671ZM1458.85 715.042 1492.95 636.876 1523.93 715.042 1458.85 715.042ZM1751.41 720.985C1791.79 710.633 1820.2 674.463 1820.7 632.766 1820.7 577.032 1771.21 556.581 1721.71 556.581 1690.41 556.581 1658.76 556.581 1626.96 557.744 1630.74 567.46 1632.58 577.823 1632.38 588.248L1632.38 688.005C1632.38 761.888 1628.94 804.375 1628.94 818.439 1628.94 824.208 1631.24 825.025 1636.36 825.025L1685.86 825.025C1683.55 820.599 1682.36 815.678 1682.39 810.689 1678.86 783.905 1677.11 756.915 1677.17 729.898L1710.13 729.898C1723.82 751.489 1740.77 776.719 1759.63 802.271 1788.78 840.524 1828.35 884.72 1875 884.72 1886.46 884.535 1897.9 883.767 1909.28 882.418 1855.05 862.461 1784.67 770.455 1752.2 721.802ZM1703.1 710.091 1676.06 710.091 1676.06 664.434C1676.06 636.554 1676.06 604.887 1678.36 577.775 1687.27 576.958 1696.5 576.141 1705.41 576.141 1744.78 576.141 1776.6 597.063 1776.6 639.624 1777.84 677.756 1747.94 709.67 1709.83 710.906 1709.82 710.906 1709.8 710.907 1709.79 710.908 1707.83 710.908 1705.85 710.908 1703.9 710.908Z" fill="#FFFFFF" fill-rule="evenodd"/><path d="M1056 1218 2705 1218 2705 1257 1056 1257Z" fill="#FFFFFF" fill-rule="evenodd"/></g></svg>