<svg width="2610" height="1726" xmlns="http://www.w3.org/2000/svg" xmlns:xlink="http://www.w3.org/1999/xlink" xml:space="preserve" overflow="hidden"><g transform="translate(-682 -399)"><text fill="#00674F" font-family="Assistant,Assistant_MSFontService,sans-serif" font-weight="700" font-size="110" transform="matrix(1 0 0 1 781.775 2029)">The Art and Science of Uncertainty and the Future.</text><text fill="#00674F" font-family="Assistant,Assistant_MSFontService,sans-serif" font-weight="700" font-size="110" transform="matrix(1 0 0 1 3203.49 2029)"> </text><text fill="#3A3A3A" font-family="Poppins Black,Poppins Black_MSFontService,sans-serif" font-weight="900" font-size="165" transform="matrix(1 0 0 1 781.775 1845)">SUMMER SCHOOL</text><path d="M1049.73 1388.39C1051.27 1402.81 1058.11 1414.44 1067.89 1424.66 1089.92 1447.66 1116.9 1460.59 1148.53 1462.54 1191.32 1465.18 1222.63 1484.67 1241.87 1523.18 1247.03 1533.5 1255.4 1539.19 1266.57 1541.55 1292.8 1547.07 1317.2 1538.14 1341.97 1532.24 1344.84 1531.56 1345.31 1529.21 1342.57 1525.61 1331.69 1509.86 1316.79 1503.02 1297.71 1504.8 1292.22 1505.31 1286.64 1504.78 1281.1 1504.73 1251.55 1504.51 1229.16 1493.05 1217.6 1464.38 1216.13 1460.73 1213.98 1457.36 1212.21 1453.83 1202.5 1434.45 1186.12 1423.36 1165.95 1417.68 1153.43 1414.16 1140.43 1412.75 1127.4 1412.1 1102.58 1410.85 1078.96 1405.67 1058.03 1391.27 1055.81 1389.74 1053.78 1386.15 1049.73 1388.39ZM1065.21 1298.31C1059.86 1297.62 1054.36 1297.49 1048.61 1299.27 1049.4 1313.41 1053.06 1326.63 1056.87 1341.7 1064.48 1360.83 1078.96 1372.09 1098.26 1377.64 1112.35 1381.69 1126.79 1383.46 1141.41 1384.37 1185.64 1387.13 1222.34 1402.22 1240.86 1446.42 1242.24 1449.69 1244.08 1452.77 1245.74 1455.93 1252.48 1468.72 1263.06 1474.95 1277.53 1474.7 1283.46 1474.6 1289.44 1475.2 1295.33 1474.7 1327.93 1471.96 1353.01 1484.01 1370.79 1511.75 1378.56 1523.86 1390.64 1529.21 1404.62 1526.71 1431.26 1521.95 1455.51 1511.06 1479.16 1495 1452.78 1483.11 1425.99 1480.97 1399.49 1479 1367.74 1476.63 1345.53 1460.96 1341.25 1428.89 1337.41 1400.09 1321.4 1383.09 1298.04 1370.94 1229.64 1335.38 1158.35 1308.18 1080.92 1300.76 1075.77 1300.27 1070.57 1299.01 1065.21 1298.31ZM1158.15 1223.72C1168.84 1259.78 1186.68 1288.42 1221.25 1303.61 1234.98 1309.64 1249.44 1314.06 1262.99 1320.45 1302.2 1338.98 1343.1 1355.38 1366.61 1395.74 1367.9 1397.96 1370.55 1399.69 1372.94 1400.93 1392.07 1410.87 1412.3 1408.04 1433.89 1407.73 1427.69 1393.66 1424.75 1381.04 1422.83 1368.16 1420.75 1354.14 1419.97 1339.88 1414.07 1324.82 1401 1302.81 1383.01 1287.43 1357.66 1280.99 1333.88 1274.95 1309.59 1272.42 1285.45 1268.72 1254.06 1263.9 1226.79 1248.06 1198.24 1235.63 1185.77 1230.2 1173.12 1224.99 1158.15 1223.72ZM935.706 1139.52C943.382 1150.23 952.76 1156.57 958.982 1165.88 974.148 1188.58 989.903 1210.88 1005.13 1233.54 1016.22 1250.05 1030.95 1260.73 1050.37 1265.72 1083.2 1274.15 1117.42 1272.56 1153.4 1282.74 1138.33 1259.43 1129.37 1237.1 1119.78 1215.07 1116.28 1207.01 1111.73 1199.65 1104.58 1191.98 1096.57 1184.56 1087.1 1179.61 1076.73 1176.69L951.29 1141.9C946.731 1140.65 941.89 1140.43 935.706 1139.52ZM1264.22 1044.06C1211.89 1048.78 1160.82 1060.93 1109.36 1070.78 1073.83 1077.58 1038.93 1089.44 1002.09 1086.22 980.338 1084.32 966.638 1097.5 949.033 1110.36 971.245 1114.62 990.586 1118.53 1008.65 1126.46 1031.83 1136.64 1054.54 1135.9 1078.87 1124.5 1084.85 1121.44 1091.13 1118.84 1096.77 1115.24 1127.2 1095.9 1161.16 1089.06 1196.27 1089.76 1235.61 1090.55 1263.28 1069.43 1291.01 1045.06 1281.5 1042.77 1272.84 1043.28 1264.22 1044.06ZM1455.66 1039.03C1425.26 1042.82 1394.82 1040.78 1364.39 1040.82 1355.3 1040.84 1347.75 1042.78 1340.39 1048.6 1323.02 1062.33 1304.97 1075.18 1287.2 1088.41 1268.17 1102.58 1247.32 1111.92 1223.51 1115.19 1197.39 1118.78 1170.7 1118.73 1145.26 1126.8 1128.79 1132.02 1113.33 1139.21 1098.49 1150.31 1107.19 1156.81 1115.31 1161.12 1122.66 1169.08 1134.62 1180.64 1148.93 1187.56 1164.89 1192.02 1181.22 1196.59 1198.39 1200.22 1212.43 1209.9 1234.91 1225.4 1253.67 1225.38 1275.02 1206.15 1295.98 1187.27 1322.61 1182.98 1350.76 1188.9 1373.07 1193.59 1395.49 1199.19 1418.25 1189.4 1434.3 1182.49 1451.21 1178.12 1468.97 1179.85 1478.91 1180.81 1485.38 1176.61 1490.48 1168.4 1503.31 1147.74 1518.92 1129.68 1538.31 1114.61 1549.01 1106.31 1558.89 1096.42 1564.98 1083.31 1563.02 1081.94 1561.85 1080.49 1560.49 1080.27 1539.37 1076.98 1522.5 1065.01 1505.85 1052.98 1490.67 1042.01 1474.01 1036.74 1455.66 1039.03ZM1377.87 931.017C1361.83 932.364 1346.1 936.269 1330.89 944.593 1325.77 947.394 1319.95 949.399 1314.22 950.524 1288.76 955.52 1263.07 953.516 1237.47 951.87 1217.36 950.576 1196.83 947.706 1177.32 952.552 1133.62 963.413 1118.73 1001.35 1101.05 1035.48 1103.82 1039.61 1106.29 1039.47 1108.61 1039.09L1156.35 1031.01C1208.37 1021.89 1260.09 1010.76 1313.5 1013.01 1329.65 1013.69 1345.5 1009.48 1360.43 1002.41 1386.55 990.035 1412.12 976.674 1436.16 960.557 1445.48 954.305 1455.53 948.932 1464.4 939.765 1459.37 938.471 1455.64 937.515 1450.01 936.481 1442.24 935.234 1434.49 933.705 1426.67 932.794 1410.24 930.883 1393.9 929.67 1377.87 931.017ZM1452.07 789.066C1436.77 796.067 1424.96 805.18 1413.46 814.895 1393.82 831.478 1372.16 843.889 1345.87 846.372 1330.18 847.854 1314.5 849.547 1298.87 851.554 1266.02 855.778 1242.77 875.224 1222.01 901.438 1217.86 907.253 1211.22 911.367 1208.33 920.526 1234 918.987 1257.65 925.07 1281.61 924.973 1305 924.877 1325.05 914.259 1342.78 899.498 1378.71 869.588 1411.72 836.608 1443.84 802.712 1447.17 799.192 1450.62 795.568 1452.07 789.066ZM1720 592 1720 628.075 1686.03 642.736C1672.42 647.07 1658.39 650.128 1643.97 652.134 1627.78 654.386 1610.6 655.456 1598.27 671.656 1585.47 691.157 1566.9 706.237 1553.61 727.367 1573.21 728.447 1590.65 729.265 1607.2 722.789 1627.27 714.941 1646.96 706.303 1666.34 697.002L1720 669.119 1720 705.179 1682.92 723.436C1642.86 742.168 1602.97 760.644 1557.09 761.082 1532.23 761.32 1510.85 771.917 1493.77 791.294 1468.46 820.006 1445.63 851.074 1415.42 875.274 1406.02 882.801 1397.52 891.443 1387.32 900.749 1412.44 900.192 1435.46 902.663 1460.51 906.349 1493.12 913.85 1519.25 904.209 1540.13 877.867 1550.15 865.21 1562.47 854.396 1573.25 842.296 1590.39 823.045 1612.43 815.87 1637.27 813.242 1658.73 810.973 1680.61 809.977 1701.04 801.758L1720 790.369 1720 827.727 1701.28 835.035C1684.21 840.182 1666.57 842.712 1648.94 843.516 1609.65 845.307 1585.62 870.078 1563.32 898.026 1563.02 898.394 1563.61 899.467 1563.94 900.899 1573.2 903.042 1582.71 905.451 1592.3 907.425 1632.73 915.741 1672.84 926.304 1714.65 925.368L1720 924.508 1720 955.764 1713.42 955.466C1701.98 955.366 1690.56 955.673 1679.1 954.317 1641.08 949.824 1604.3 938.816 1566.54 933.187 1553.49 931.242 1539.69 923.869 1526.73 933.995 1498.96 955.694 1468.58 973.495 1439.26 992.879 1429.8 999.136 1419.02 1003.66 1408.5 1014.06 1429.44 1009.95 1447.63 1010.29 1465.68 1009.84 1491.62 1009.2 1513.5 1020.76 1534.09 1035.82 1567.12 1059.97 1582.08 1057 1604.66 1023.39 1625.35 992.572 1646.31 983.243 1682.22 1000.19 1685.68 1001.82 1689.08 1004.16 1693.39 1002.22 1700.06 999.212 1706.79 996.318 1713.1 992.422L1720 986.066 1720 1070.36 1698.49 1045.34C1693.45 1040.63 1688.25 1040.58 1682.22 1043.52 1670.86 1049.06 1659.29 1054.18 1646.14 1060.14 1618.25 1068.92 1594.67 1082.96 1583.69 1112.4 1588.35 1115.19 1594.25 1115.51 1600.11 1115.44 1620.68 1115.23 1641.02 1117.57 1661.41 1119.99 1680.19 1122.23 1699.13 1123.2 1717.96 1125.13L1720 1124.73 1720 1154.84 1624.3 1145.65C1614.84 1144.96 1605.38 1143.74 1595.92 1143.68 1561.03 1143.48 1531.08 1153.1 1513.47 1186.53 1511.65 1189.98 1508.79 1192.9 1506.26 1195.94 1498.24 1205.55 1488.69 1211.41 1475.41 1210.1 1456.18 1208.2 1437.66 1211.05 1419.98 1219.37 1411.32 1223.46 1401.94 1224.35 1392.27 1224.45 1374.23 1224.64 1357.13 1219.3 1339.79 1216.01 1317.14 1211.7 1301.66 1222.8 1283.87 1235.97 1298.85 1241.49 1312.32 1241.95 1325.43 1243.91 1366.96 1250.09 1405.28 1261.32 1432.71 1297.16 1447.18 1316.05 1471.89 1318.33 1493.01 1306.67 1509.81 1297.4 1523.8 1284.6 1537.43 1271.29 1558.68 1250.54 1583.94 1236.91 1613.23 1232.32 1643.28 1227.61 1673 1221.88 1702.08 1212.85 1709.46 1210.55 1715 1208.84 1719.15 1207.08L1720 1206.49 1720 1239.78 1667.13 1252.63C1647.68 1256.65 1628.12 1260.13 1608.51 1263.47 1577.57 1268.74 1558.65 1290.9 1539.53 1314.23 1549.57 1317.61 1558.22 1317.73 1568.98 1317.97 1580.08 1320.64 1591.47 1322.46 1602.21 1326.17 1622.74 1333.26 1639.43 1329.28 1654.87 1313.61 1674.26 1293.92 1694.57 1274.79 1719.99 1262.91 1720 1262.91 1720 1262.91 1720 1262.91L1720 1298.02 1719.67 1298.25C1701.72 1310.02 1686.06 1324.55 1670.95 1339.67 1657.49 1353.15 1642.07 1361.67 1620.13 1359.74 1613.59 1358.33 1606.97 1357.22 1600.53 1355.44 1585.31 1351.23 1570.15 1346.39 1554.3 1345.73 1520.09 1344.29 1485.76 1347.94 1450.59 1342.84 1451.93 1356.19 1452.76 1369.16 1457.23 1381.33 1461.8 1393.77 1474.94 1400.25 1488 1397.74 1493.41 1396.7 1498.85 1395.76 1504.23 1394.57 1544.12 1385.76 1583.26 1387.42 1621.84 1401.78 1653.64 1413.62 1685.18 1426.33 1718.6 1433.33L1720 1433.23 1720 1462.21 1671.87 1451.8C1655.99 1447.19 1640.44 1441.5 1625.24 1434.85 1585.16 1417.31 1544.55 1414.98 1502.52 1425.44 1466.04 1434.52 1429.34 1441.91 1391.33 1436.12 1387.15 1435.49 1382.39 1433.38 1377.34 1435.74 1382.25 1448.46 1392.65 1449.96 1403.49 1450.89 1436.07 1453.69 1469.13 1454.54 1499.66 1468.01 1519.24 1476.65 1538.51 1476.27 1558.6 1470.92 1591.42 1462.18 1624.56 1458.84 1660.05 1467.56 1672.06 1470.33 1683.76 1474.17 1695.45 1478.17L1720 1486.24 1720 1520.88 1662.61 1498.59C1645.37 1492.96 1627.36 1489 1608.98 1490.99 1586.6 1493.41 1564.71 1498.83 1542.85 1504.11 1504.93 1513.26 1473.23 1537.1 1435.64 1548.75 1439.81 1552.97 1444 1554.14 1448.02 1555.64 1477.27 1566.54 1506.28 1565.14 1534.6 1552.79 1586.66 1530.07 1640.01 1514.31 1699.94 1519.95 1704.86 1519.98 1709.67 1520.81 1714.47 1521.77L1720 1522.76 1720 1555.78 1717.2 1554.34C1671.64 1541.32 1628.1 1548.22 1585.19 1565.32 1569.04 1571.76 1552.58 1577.44 1536.49 1584.01 1505.2 1596.78 1474.01 1595.07 1442.7 1584.37 1434.1 1581.43 1425.09 1579.39 1416.93 1575.52 1384.66 1560.21 1351.6 1560.14 1317.4 1567.53 1298.1 1571.69 1278.18 1572.78 1258.52 1568.73 1242.88 1565.5 1229.75 1557.81 1220.29 1544.62 1216.84 1539.79 1213.57 1534.81 1210.58 1529.69 1197.12 1506.67 1176.97 1494.91 1150.56 1492.91 1109.98 1489.82 1075.29 1474.2 1046.17 1445.2 1027.55 1426.65 1019.57 1404.8 1018.82 1379.18 1018.19 1357.47 1021.39 1335.64 1016.77 1314.04 1014.25 1302.25 1009.86 1291.26 1002.69 1281.61 983.082 1255.23 964.099 1228.4 946.748 1200.5 921.64 1160.12 884.335 1140.23 838.472 1133.97 834.578 1133.44 830.72 1132.52 826.907 1131.53L824 1124.14 829.151 1106.95C831.406 1107.74 835.379 1105.67 837.634 1106.46 862.746 1108.65 882.518 1103.44 899.284 1098.94 916.05 1094.44 927.515 1089.36 938.229 1079.46 958.775 1060.48 983.586 1055.32 1009.52 1056.69 1041.61 1058.39 1062.06 1043.76 1076.11 1016.82 1078.31 1012.61 1081.11 1008.68 1082.96 1004.33 1097.71 969.673 1122.82 944.055 1152.48 921.8 1174.29 905.434 1195.04 887.759 1212.8 866.627 1238.45 836.127 1272.12 821.47 1311.82 820.66 1341.81 820.046 1368.36 810.043 1391.34 790.978 1416.52 770.093 1444.24 755.369 1477.19 751.03 1492.29 749.042 1504.24 740.967 1512.71 727.674 1528.72 702.541 1548.9 680.648 1568.1 658.02 1588.6 633.872 1616.01 624.487 1646.38 620.852 1672.68 617.7 1696.84 608.58 1718.75 593.291L1720 592Z" fill="#AEAEAE" fill-rule="evenodd"/><path d="M1698 503C1698 490.85 1707.85 481 1720 481L1720 481C1732.15 481 1742 490.85 1742 503L1742 1629C1742 1641.15 1732.15 1651 1720 1651L1720 1651C1707.85 1651 1698 1641.15 1698 1629Z" fill="#AEAEAE" fill-rule="evenodd"/><path d="M1139.7 1097.62C1164.09 1092.42 1177.58 1093.1 1194.4 1095.12 1209.32 1100.78 1224.65 1105.78 1240.6 1109.77 1277.16 1118.92 1312.47 1121.6 1347.54 1113.19 1378.13 1105.86 1415.05 1103.6 1442.93 1101.49 1470.82 1099.38 1500.3 1100.22 1514.85 1100.54L1585.97 1105.02C1603.11 1105.43 1614.55 1105.61 1633.24 1105.59L1698.1 1104.92 1701.17 1105.5 1740.84 1099.78 1745.65 1130.2C1726.49 1128.7 1674.68 1132.36 1655.52 1130.86 1630.56 1131.07 1603.45 1131.56 1580.28 1131.19 1557.11 1130.82 1535.87 1130.75 1516.51 1128.65 1480.84 1127.11 1486.66 1124.56 1458.86 1126.36 1431.06 1128.15 1379.5 1128.66 1349.7 1139.43 1321.35 1142.24 1309.27 1146.12 1281.94 1142.49L1185.7 1117.62C1157.21 1116.82 1136.69 1127.6 1112.47 1136.52 1093.52 1143.77 1082.1 1148.98 1064.85 1151.15 1047.59 1153.32 1033.74 1152.12 1008.95 1149.55L917.854 1127.69C897.169 1125.61 848.799 1134.47 832.473 1131.98 816.147 1129.49 818.43 1118.02 819.898 1112.76 821.366 1107.49 819.319 1100.46 841.281 1100.36 863.243 1100.27 917.155 1101.27 951.672 1112.18 983.095 1122.11 1015.34 1126.61 1048.09 1126.27 1072.03 1126.02 1126.82 1109.56 1139.7 1097.62Z" fill="#3A3A3A" fill-rule="evenodd"/><path d="M1934.28 1276.04C1936.53 1292.45 1934.68 1307.05 1935.61 1321.55 1938.57 1367.18 1957.16 1388.39 1995.39 1396.32 2009.64 1399.28 2024.05 1400.33 2038.63 1401.03 2061.66 1402.14 2085.23 1401.83 2107.57 1414.82 2119 1420.49 2127.97 1428.93 2135.78 1438.95 2150.43 1457.74 2159.46 1479.72 2170.77 1500.37 2186.83 1529.7 2211.32 1543.84 2244.25 1544.48 2276.67 1545.12 2303.9 1555.7 2321.86 1584.5 2328.66 1595.41 2338.89 1602.51 2351.31 1604.09 2370.08 1606.48 2389.03 1606.43 2408.54 1598.82 2393.2 1584.85 2383.26 1568.04 2372.67 1551.87 2352.52 1521.14 2323.53 1507.19 2288.12 1504.23 2261.83 1502.03 2236.59 1497.2 2216.51 1478.06 2203.35 1465.52 2192.48 1451.05 2182.84 1435.85 2158.9 1398.09 2127.95 1369.01 2085.52 1353.17 2061.06 1344.03 2040.06 1329.74 2022.03 1310.79 2013.42 1301.74 2004.1 1293.13 1991.61 1289.64 1972.85 1284.39 1953 1284.34 1934.28 1276.04ZM1951.16 1135.8C1941.67 1134.73 1931.53 1135.2 1920.65 1137.47 1905.74 1140.57 1890.48 1138.89 1873.48 1140.03 1888.51 1156.26 1901.2 1171.76 1910.66 1191.41 1914.63 1200.65 1919.6 1209.59 1922.37 1219.17 1930.33 1246.74 1949.7 1258.64 1976.71 1261.13 2000.61 1263.33 2021.38 1271.76 2038.45 1289.55 2053.62 1305.35 2070.54 1319.05 2091.81 1326.59 2131.58 1340.7 2163.21 1365.82 2188.42 1399.45 2201.94 1417.49 2214.28 1436.42 2228.98 1453.59 2235.68 1461.42 2243.34 1465.57 2253.66 1462.38 2276 1455.47 2289.24 1437.48 2305.15 1421.43 2302.77 1419.85 2301.75 1418.86 2300.53 1418.42 2263.54 1405.07 2240.95 1379.06 2232.47 1340.78 2227.99 1320.57 2215.81 1307.44 2196.23 1301.67 2166.77 1292.99 2146.12 1274.08 2132.12 1247.46 2121.08 1226.46 2104.19 1214.21 2080.67 1211.81 2056.57 1209.36 2037.24 1198.76 2021.97 1180.11 2002.29 1156.08 1979.63 1139.01 1951.16 1135.8ZM2057.53 1095.8C2033.21 1099.35 2010.49 1107.23 1988.14 1120.42 2011.16 1129.78 2027.91 1144.52 2042.51 1162.13 2053.44 1175.31 2066.45 1184.93 2084.43 1186.41 2116.48 1189.03 2139.42 1205.41 2154.06 1233.82 2155.17 1235.97 2156.73 1237.88 2157.93 1239.99 2168.3 1258.24 2182.93 1271.14 2203.35 1277.23 2233.47 1286.21 2252.27 1305.21 2258.74 1336.92 2265.18 1368.44 2286.15 1387.13 2316.4 1396.53 2323.7 1398.8 2328.4 1397.73 2333.71 1392.1 2347.77 1377.23 2362.33 1362.82 2377.11 1348.67 2386.44 1339.73 2396.53 1331.58 2407.24 1322.24 2402.02 1320.7 2398.42 1319.62 2394.8 1318.57 2379.86 1314.24 2364.47 1311.55 2349.91 1305.8 2330.72 1298.21 2316.92 1286.2 2312.38 1264.84 2308.97 1248.84 2302.89 1233.7 2292.66 1220.54 2289.8 1216.85 2286.68 1213.84 2282.08 1212.63 2232.94 1199.64 2193.6 1171.45 2158.2 1135.76 2131.51 1108.85 2099.39 1091.71 2057.53 1095.8ZM2018.02 865.886C1993.43 870.365 1970.37 874.273 1947.84 881.053 1921.79 888.895 1904.98 905.746 1897.46 931.739 1895.06 940.003 1893.66 948.551 1891.77 958.817 1887.98 993.783 1888.19 1029.64 1867.78 1061.05 1883.61 1055.6 1897.13 1048.15 1909.66 1038.61 1932.94 1020.86 1949.06 996.838 1966.93 974.369 1982.5 954.792 1996.75 934.242 2005.77 910.679 2011.13 896.671 2016.36 882.51 2018.02 865.886ZM2141.31 676.229C2137.18 676.72 2133.66 677.881 2130.3 679.369 2116.56 685.43 2106.84 696.666 2096.94 707.124 2080.38 724.637 2060.3 733.686 2036.98 737.238 2026.07 738.899 2015.28 741.381 2004.46 743.613 1989.36 746.729 1978.15 754.761 1970.6 768.581 1955.71 795.836 1953.31 827.026 1940.49 856.464 1966.69 850.114 1990.84 844.259 2016.62 838.074 2023.5 837.052 2028.84 834.197 2032 827.403 2041.08 807.891 2054.89 792.205 2071.1 778.14 2103.14 750.325 2120.14 711.968 2141.31 676.229ZM2228.03 668.26C2219.03 668.25 2210.01 668.632 2201.01 668.567 2186.42 668.463 2174.95 674.647 2167.34 687.402 2159.88 699.911 2152.4 712.399 2144.95 724.914 2127.14 754.851 2107.57 783.237 2079.83 805.257 2071.93 811.525 2065.11 819.589 2060.4 830.254 2067.6 830.166 2073.59 829.714 2079.64 828.374 2105.04 822.755 2121.62 806.007 2136.43 785.853 2161.89 751.189 2194.61 730.193 2239.87 733.626 2265.19 735.545 2290.19 733.065 2314.78 725.534 2342.86 716.934 2366.89 702.699 2387.01 679.945 2370.61 681.091 2355.53 681.424 2340.3 679.811 2312.48 676.869 2284.92 671.662 2254.99 670.297 2246.04 668.669 2237.04 668.269 2228.03 668.26ZM2567.43 399.009C2571.69 399.159 2575.64 401.28 2578.69 405.291 2584.42 412.821 2581.5 421.641 2571.09 430.044 2549.23 447.701 2527.53 465.548 2505.79 483.353 2501.57 486.804 2497.49 490.42 2492.49 494.701 2497.93 496.929 2502.44 496.181 2506.75 496.043 2514.04 495.812 2519.2 496.26 2519.24 506.22 2519.29 516.013 2514.97 518.345 2506.7 517.752 2506.36 517.727 2506 517.81 2505.66 517.749 2480.11 513.168 2461.19 523.439 2445.36 543.024 2419.31 575.249 2384.39 586.624 2343.82 585.43 2323.11 584.82 2302.21 583.196 2281.52 587.108 2275.96 588.158 2270.71 589.796 2266.04 592.852 2246.94 605.349 2232.94 622.905 2217.44 641.227 2238.61 642.986 2258.15 644.358 2277.63 646.294 2298.26 648.343 2318.86 650.746 2339.43 653.319 2374.14 657.659 2407.19 656.702 2434.76 630.313 2445.26 620.263 2458.06 612.099 2472.12 608.091 2505.27 598.64 2528.19 575.887 2549.92 551.19 2556.33 543.893 2562.42 536.301 2568.99 529.148 2574.27 523.397 2580.73 521.203 2587.37 526.786 2593.81 532.201 2593.78 539.664 2589.07 545.502 2563.39 577.369 2538.63 610.305 2498.18 625.677 2484.13 631.019 2469.98 636.834 2458.57 648.359 2463.97 654.351 2470.89 652.888 2476.56 654.17 2512.69 662.338 2547.41 675.649 2583.76 683.052 2594.24 685.186 2598.1 692.081 2595.49 700.457 2592.59 709.752 2585.83 710.265 2577.16 708.487 2543.51 701.584 2511.05 690.586 2478.26 680.72 2463.13 676.17 2447.46 676.612 2431.84 676.812 2426.38 676.883 2422.77 679.588 2419.72 683.686 2385.17 730.079 2336.84 751.76 2281.35 759.674 2267.73 761.616 2253.52 761.17 2239.74 759.928 2206.3 756.912 2182.41 773.381 2162.68 797.224 2150.75 811.64 2140.01 826.953 2124.28 837.725 2127.38 842.6 2131.99 842.025 2135.83 842.848 2176.8 851.625 2217.94 859.872 2260.07 858.667 2307.73 857.304 2353.44 847.054 2396.04 824.879 2407.55 818.885 2417.05 810.265 2426.21 801.14 2440.46 786.941 2454.42 772.354 2472.54 761.479 2481.52 756.001 2490.38 752.019 2499.48 748.58 2508.37 745.222 2517.7 747.719 2520 754.584 2523.07 763.798 2517.9 769.38 2509.97 772.283 2477.66 784.123 2455.79 809.026 2433.15 833.015 2432.21 834.011 2431.48 835.226 2430.77 836.414 2430.44 836.973 2430.4 837.709 2429.92 839.528 2442.68 847.019 2457.12 849.963 2471.61 852.448 2479.1 853.728 2486.75 854.015 2494.31 854.843 2504.5 855.953 2510.56 861.497 2509.62 869.701 2508.49 879.513 2501.41 881.499 2492.9 881.101 2466.33 879.863 2440.98 872.725 2416.03 864.388 2401.19 859.432 2387.23 859.248 2372.43 864.471 2330.54 879.257 2287.13 886.065 2242.81 884.452 2203.67 883.031 2165.18 875.728 2126.96 867.416 2103.51 862.32 2079.98 858.967 2055.87 860.137 2049.65 860.439 2046.45 862.208 2045.23 868.619 2032.05 937.725 1989.91 990.071 1945.21 1040.91 1943.65 1042.67 1941.4 1044.02 1941.53 1046.96 1943.95 1049.67 1946.48 1047.78 1949.03 1047.11 1992.32 1035.62 2030.86 1014.99 2065.35 986.58 2070.17 982.605 2075.45 979.077 2079.79 974.64 2111.96 941.831 2151.18 935.693 2194.88 941.406 2221.7 944.913 2248.92 942.832 2275.2 934.987 2306.79 925.558 2338.58 926.794 2370.87 930.945 2400.37 934.739 2430.17 937.321 2459.44 927.771 2475.25 922.613 2488.49 913.163 2501.98 904.029 2522.53 890.113 2544.04 878.55 2568.99 874.513 2579.1 872.879 2588.94 873.077 2598.86 875.503 2604.71 876.932 2608.03 880.311 2608.35 886.236 2608.66 892.145 2605.85 896.263 2600.09 897.947 2597.13 898.814 2593.97 899.942 2591 899.696 2563.99 897.459 2541.65 908.98 2520.71 923.878 2495.52 941.808 2468.93 955.724 2437.52 959.157 2414.91 961.629 2392.46 960.514 2370.18 957.379 2340.42 953.189 2310.93 951.278 2281.71 960.178 2245.43 971.226 2208.39 969.963 2171.44 966.082 2144.43 963.246 2122.62 972.331 2103.2 990.108 2068.55 1021.82 2030.03 1047.36 1985.29 1062.74 1950.83 1074.6 1915.26 1082.08 1879.68 1089.55 1861.22 1093.43 1842.62 1097.03 1823.48 1105.92 1837.42 1110.68 1850.06 1111.54 1862.59 1113.14 1910.91 1119.29 1955.19 1105.54 1998.51 1086.23 2022.83 1075.38 2048.68 1070.34 2075.24 1069.96 2094.21 1069.68 2112.87 1073.68 2129.26 1082.97 2153.56 1096.74 2178.2 1094.72 2203.8 1089.25 2226.44 1084.41 2247.53 1075.96 2267.58 1064.64 2308.94 1041.28 2353.24 1034.08 2400.1 1039.82 2416.91 1041.88 2433.82 1043.29 2450.74 1044.2 2480.33 1045.78 2507.39 1036.12 2533.73 1024.03 2557.42 1013.15 2581.93 1006.8 2608.28 1008.87 2615.59 1009.44 2622.68 1010.62 2629.65 1012.76 2636.15 1014.75 2639.88 1019.06 2638.82 1025.86 2637.77 1032.59 2633.12 1035.3 2626.21 1035.77 2612.72 1036.69 2599.64 1032.29 2585.85 1034.49 2572.26 1036.65 2559.68 1040.82 2547.29 1046.25 2525.37 1055.84 2503.41 1065.08 2479.56 1069.22 2458.65 1072.86 2438.1 1069.51 2417.48 1067.54 2379.12 1063.88 2340.72 1058.95 2303.83 1075.57 2300.46 1077.08 2296.39 1077.55 2293.45 1082.48 2318.37 1090.43 2342.24 1100.2 2367.78 1104.81 2378.1 1106.67 2388.27 1107.47 2398.73 1105.5 2408.35 1103.69 2415.89 1109.05 2416.43 1116.99 2417 1125.27 2410.99 1130.31 2400.76 1131.26 2365.19 1134.55 2332.07 1123.96 2299.34 1112.66 2273.87 1103.87 2249.35 1100.48 2223.53 1111.48 2210.96 1116.83 2196.82 1118.05 2182.98 1119.43 2182.02 1124.71 2186.32 1126.31 2188.74 1128.77 2229.24 1169.81 2279.46 1189.37 2335.78 1196.85 2372.47 1201.72 2406.67 1194.25 2440.29 1181.14 2475.27 1167.49 2509.41 1152.27 2539.78 1129.57 2550.71 1121.4 2563.52 1116.68 2577.07 1114.44 2580.11 1113.94 2583.26 1113.62 2586.32 1113.83 2592.8 1114.28 2598.14 1117.3 2598.98 1124.05 2599.81 1130.71 2595.63 1135.14 2589.4 1137.2 2582.82 1139.36 2576.09 1141.04 2569.53 1143.22 2559.09 1146.69 2551.17 1154.28 2542.37 1160.38 2527.76 1170.49 2512.67 1179.57 2495.68 1185.19 2491.59 1186.55 2487.77 1188.69 2482.06 1191.27 2515.13 1196.52 2545.24 1206.89 2577.17 1204.88 2582.69 1204.54 2588.25 1205.11 2593.71 1203.54 2596.77 1202.67 2600.45 1202.5 2602.8 1204.46 2609.69 1210.18 2616.6 1215.51 2626.83 1215.43 2619.71 1226.52 2608.88 1227.29 2598.69 1229.05 2567.28 1234.47 2536.45 1229.34 2506.09 1222.19 2472.56 1214.3 2439.25 1211.51 2405.29 1218.71 2380.71 1223.93 2355.86 1224.82 2330.93 1221.02 2329.66 1220.83 2328.28 1221.31 2325.43 1221.66 2331.93 1236.13 2333.63 1251.53 2339.98 1265.08 2346.91 1279.9 2362.34 1283.93 2376.87 1287.76 2394.93 1292.53 2413.16 1296.67 2431.25 1301.33 2438.86 1303.29 2446.31 1303.43 2453.79 1301.18 2502.64 1286.52 2546.79 1298.61 2588.44 1324.85 2591.37 1326.7 2594.07 1328.91 2596.85 1330.98 2603.66 1336.05 2604.09 1343.01 2600.48 1349.5 2596.75 1356.23 2589.69 1355.25 2583.8 1352.75 2578.44 1350.48 2573.61 1346.87 2568.66 1343.68 2515.44 1309.35 2464.26 1316.17 2415.37 1350.06 2394.98 1364.2 2378.71 1382.74 2361.19 1400.83 2367.56 1407.58 2375.54 1404.74 2382.23 1405.64 2419.55 1410.65 2456.66 1418.06 2494.57 1417.35 2506.69 1417.12 2518.64 1414.5 2530.86 1415.18 2544 1415.92 2557.12 1415.15 2570.31 1416.98 2585.92 1419.15 2601.31 1417.17 2615.84 1409.71 2625.6 1404.7 2632.56 1406.94 2636.27 1414.56 2640.02 1422.27 2637.21 1428.54 2627.4 1433.55 2609.26 1442.82 2590.24 1446.47 2569.99 1442.41 2567.01 1441.81 2563.87 1442.05 2559.19 1441.82 2570.75 1458.34 2582.11 1472.62 2601.23 1478.22 2607.88 1480.16 2614.6 1482.04 2620.95 1484.77 2628.98 1488.21 2631.18 1495.07 2628.35 1502.91 2625.58 1510.58 2618.85 1512.15 2612.01 1509.74 2588.07 1501.31 2564.18 1492.83 2547.96 1471.21 2533.55 1452.02 2513.34 1444.36 2489.9 1443.82 2454.54 1443.02 2419.75 1436.71 2384.73 1432.63 2371.7 1431.11 2358.73 1429.02 2345.71 1427.31 2341.09 1426.71 2336.83 1427.48 2333.25 1431.03 2318.02 1446.08 2303.68 1462.04 2285.87 1476.47 2302.85 1480.23 2318.26 1483.61 2333.66 1487.04 2354.78 1491.75 2371.86 1503.43 2382.24 1521.84 2399.56 1552.56 2426.84 1553.04 2456.27 1550.04 2477.59 1547.88 2498.39 1542.18 2520.07 1542.23 2547.12 1542.3 2572.56 1550.63 2598.66 1555.63 2605.1 1556.87 2611.58 1557.94 2618.03 1559.18 2625.58 1560.64 2629.76 1565.12 2629.22 1572.96 2628.63 1581.33 2623.4 1585.32 2615.4 1585.44 2601.71 1585.66 2588.85 1581.03 2575.75 1577.96 2553.51 1572.75 2531.5 1565.9 2508.19 1568.85 2481.47 1572.24 2454.89 1577.18 2426.76 1574.81 2428.24 1581.72 2432.48 1585.08 2436.35 1587.99 2456.9 1603.52 2477.7 1618.83 2505.48 1617.42 2518.44 1616.76 2530.25 1611.13 2542.79 1608.55 2568.43 1603.26 2591.47 1611.11 2613.76 1622.29 2619.32 1625.08 2622.3 1630.44 2619.99 1637.25 2617.76 1643.82 2612.94 1646.11 2606.28 1646 2599.74 1645.88 2594.2 1642.94 2588.65 1640.22 2571.9 1632.02 2554.51 1630.26 2537.19 1636.84 2507.65 1648.07 2479.43 1645.52 2451.9 1630.99 2431.36 1620.13 2410.66 1626.66 2389.9 1629.88 2351.52 1635.84 2318.21 1628.35 2294.7 1594.15 2281.32 1574.69 2260.32 1569.99 2238.9 1569.18 2199.02 1567.66 2169.34 1550.31 2149.65 1515.84 2142.07 1502.6 2134.72 1489.19 2128.02 1475.48 2111.51 1441.73 2083.69 1427.2 2047.25 1427.23 2026.05 1427.25 2005.03 1425.74 1984.34 1420.96 1944.18 1411.68 1917.25 1381.8 1911.04 1341.15 1908.4 1323.82 1910.23 1306.48 1909.01 1289.22 1905.58 1240.73 1893.37 1195.39 1857.73 1159.8 1836.42 1138.5 1809.28 1129.51 1779.8 1127.16 1770.83 1126.44 1761.75 1127.02 1752.72 1127.04L1741 1129.97 1741 1098.97 1747.99 1100.64C1799.08 1100.11 1856.46 1064.93 1861.63 999.339 1864.09 968.104 1865.77 936.36 1879.12 906.959 1882.73 898.995 1886.33 891.138 1892.38 884.744 1914.33 861.543 1920.88 831.356 1929.89 802.293 1932.15 795.019 1934.27 787.687 1936.03 780.28 1944.56 744.326 1968.97 725.44 2003.4 717.267 2010.81 715.508 2018.22 713.724 2025.7 712.368 2048.17 708.298 2067.74 699.248 2083.35 681.872 2102.02 661.073 2125.11 648.02 2153.24 644.297 2176.5 641.219 2194.3 628.481 2209.18 611.055 2213.24 606.301 2217.75 601.858 2221.29 596.747 2240.53 568.999 2268.41 559.412 2300.5 558.795 2317.86 558.461 2335.23 558.776 2352.59 558.689 2381.54 558.543 2404.85 548.141 2424.62 525.736 2438.33 510.192 2444.47 494.945 2442.84 474.57 2441.29 455.241 2442.44 435.692 2442.54 416.241 2442.56 412.517 2441.66 408.596 2443.83 405.149 2464.42 402.535 2464.42 402.535 2464.42 422.337 2464.42 439.992 2464.42 457.649 2464.42 475.362 2470.4 476.262 2472.99 472.459 2476.07 470.077 2503.03 449.291 2529 427.324 2554.29 404.548 2558.59 400.678 2563.16 398.858 2567.43 399.009Z" fill="#00674F" fill-rule="evenodd"/></g></svg>